{
.appVersion = "3223";
.formatVersion = 3;
axes = (
{
name = Weight;
tag = wght;
}
);
classes = (
{
automatic = 1;
code = "A Aacute Abreve Acircumflex Adieresis Agrave Amacron Aogonek Aring Atilde AE B C Cacute Ccaron Ccedilla Cdotaccent D Dcaron Dcroat Eth E Eacute Ecaron Ecircumflex Edieresis Edotaccent Egrave Emacron Eogonek F G Gbreve Gcommaaccent Gdotaccent H Hbar I IJ Iacute Icircumflex Idieresis Idotaccent Igrave Imacron Iogonek J K Kcommaaccent L Lacute Lcaron Lcommaaccent Lslash M N Nacute Ncaron Ncommaaccent Ntilde Eng O Oacute Ocircumflex Odieresis Ograve Ohungarumlaut Omacron Oslash Otilde OE P Thorn Q R Racute Rcaron Rcommaaccent S Sacute Scaron Scedilla Scommaaccent Germandbls T Tcaron Tcommaaccent U Uacute Ubreve Ucircumflex Udieresis Ugrave Uhungarumlaut Umacron Uogonek Uring V W Wacute Wcircumflex Wdieresis Wgrave X Y Yacute Ycircumflex Ydieresis Ygrave Z Zacute Zcaron Zdotaccent";
name = Uppercase;
}
);
customParameters = (
{
name = fsType;
value = (
);
},
{
name = "Use Typo Metrics";
value = 1;
}
);
date = "2023-10-04 13:27:06 +0000";
familyName = Alike;
featurePrefixes = (
{
automatic = 1;
code = "languagesystem DFLT dflt;

languagesystem latn dflt;
languagesystem latn AZE;
languagesystem latn CRT;
languagesystem latn KAZ;
languagesystem latn TAT;
languagesystem latn TRK;
languagesystem latn ROM;
languagesystem latn MOL;
languagesystem latn CAT;
";
name = Languagesystems;
}
);
features = (
{
automatic = 1;
code = "feature sups;
feature frac;
feature ordn;
feature case;
feature locl;
";
tag = aalt;
},
{
automatic = 1;
code = "lookup ccmp_Other_1 {
	@CombiningTopAccents = [acutecomb brevecomb caroncomb circumflexcomb commaturnedabovecomb dieresiscomb dotaccentcomb gravecomb hungarumlautcomb macroncomb ringcomb tildecomb];
	lookupflag UseMarkFilteringSet @CombiningTopAccents;
	sub i' @CombiningTopAccents by idotless;
	sub j' @CombiningTopAccents by jdotless;
} ccmp_Other_1;

lookup ccmp_Other_2 {

glyphs = (
{
glyphname = A;
kernLeft = _KERN_A;
kernRight = _KERN_A;
lastChange = "2023-10-27 11:47:12 +0000";
layers = (
{
anchors = (
{
name = bottom;
pos = (342,0);
},
{
name = ogonek;
pos = (616,10);
},
{
name = top;
pos = (333,705);
}
);
background = {
anchors = (
{
name = top;
pos = (333,705);
}
);
shapes = (
{
closed = 1;
nodes = (
(435,240,l),
(509,50,l),
(485,40,o),
(459,34,o),
(429,30,c),
(425,18,o),
(425,7,o),
(427,-5,c),
(464,-3,o),
(534,0,o),
(572,0,cs),
(609,0,o),
(658,-3,o),
(694,-5,c),
(700,7,o),
(701,18,o),
(699,30,c),
(622,50,l),
(351,727,l),
(340,727,o),
(322,725,o),
(312,719,c),
(75,50,l),
(52,40,o),
(27,34,o),
(-2,30,c),
(-6,18,o),
(-6,7,o),
(-4,-5,c),
(33,-3,o),
(50,0,o),
(88,0,cs),
(125,0,o),
(174,-3,o),
(210,-5,c),
(216,7,o),
(217,18,o),
(215,30,c),
(138,50,l),
(203,240,l)
);
},
{
closed = 1;
nodes = (
(314,580,l),
(322,534,o),
(335,491,o),
(358,437,c),
(413,295,l),
(221,295,l),
(268,432,ls),
(285,482,o),
(298,532,o),
(312,580,c)
);
}
);
};
layerId = "E67231B9-FA09-451D-8B80-B70CA73DDE32";
shapes = (
{
closed = 1;
nodes = (
(435,240,l),
(509,50,l),
(485,40,o),
(459,34,o),
(429,30,c),
(425,18,o),
(425,7,o),
(427,-5,c),
(464,-3,o),
(534,0,o),
(572,0,cs),
(609,0,o),
(658,-3,o),
(694,-5,c),
(700,7,o),
(701,18,o),
(699,30,c),
(622,50,l),
(351,727,l),
(340,727,o),
(322,725,o),
(312,719,c),
(75,50,l),
(52,40,o),
(27,34,o),
(-2,30,c),
(-6,18,o),
(-6,7,o),
(-4,-5,c),
(33,-3,o),
(50,0,o),
(88,0,cs),
(125,0,o),
(174,-3,o),
(210,-5,c),
(216,7,o),
(217,18,o),
(215,30,c),
(138,50,l),
(203,240,l)
);
},
{
closed = 1;
nodes = (
(314,580,l),
(322,534,o),
(335,491,o),
(358,437,c),
(413,295,l),
(221,295,l),
(268,432,ls),
(285,482,o),
(298,532,o),
(312,580,c)
);
}
);
width = 684;
}
);
unicode = 65;
},
{
glyphname = Aacute;
kernLeft = _KERN_A;
kernRight = _KERN_A;
lastChange = "2023-10-27 11:44:35 +0000";
layers = (
{
associatedMasterId = "E67231B9-FA09-451D-8B80-B70CA73DDE32";
layerId = "DA51D0F6-E92C-4977-9AEE-C0B7DC2D6803";
name = img;
width = 684;
},
{
background = {
anchors = (
{
name = top;
pos = (333,705);
}
);
shapes = (
{
closed = 1;
nodes = (
(435,240,l),
(509,50,l),
(485,40,o),
(459,34,o),
(429,30,c),
(425,18,o),
(425,7,o),
(427,-5,c),
(464,-3,o),
(534,0,o),
(572,0,cs),
(609,0,o),
(658,-3,o),
(694,-5,c),
(700,7,o),
(701,18,o),
(699,30,c),
(622,50,l),
(351,727,l),
(340,727,o),
(322,725,o),
(312,719,c),
(75,50,l),
(52,40,o),
(27,34,o),
(-2,30,c),
(-6,18,o),
(-6,7,o),
(-4,-5,c),
(33,-3,o),
(50,0,o),
(88,0,cs),
(125,0,o),
(174,-3,o),
(210,-5,c),
(216,7,o),
(217,18,o),
(215,30,c),
(138,50,l),
(203,240,l)
);
},
{
closed = 1;
nodes = (
(314,580,l),
(322,534,o),
(335,491,o),
(358,437,c),
(413,295,l),
(221,295,l),
(268,432,ls),
(285,482,o),
(298,532,o),
(312,580,c)
);
},
{
closed = 1;
nodes = (
(450,842,l),
(442,871,o),
(422,901,o),
(396,918,c),
(258,774,l),
(264,763,o),
(269,756,o),
(281,745,c)
);
}
);
};
layerId = "E67231B9-FA09-451D-8B80-B70CA73DDE32";
shapes = (
{
ref = A;
},
{
pos = (229,-51);
ref = acutecomb.case;
}
);
width = 684;
}
);
unicode = 193;
},
{
glyphname = Acircumflex;
kernLeft = _KERN_A;
kernRight = _KERN_A;
lastChange = "2023-10-27 11:44:35 +0000";
layers = (
{
associatedMasterId = "E67231B9-FA09-451D-8B80-B70CA73DDE32";
layerId = "DA51D0F6-E92C-4977-9AEE-C0B7DC2D6803";
name = img;
width = 684;
},
{
background = {
anchors = (
{
name = top;
pos = (333,705);
}
);
shapes = (
{
closed = 1;
nodes = (
(435,240,l),
(509,50,l),
(485,40,o),
(459,34,o),
(429,30,c),
(425,18,o),
(425,7,o),
(427,-5,c),
(464,-3,o),
(534,0,o),
(572,0,cs),
(609,0,o),
(658,-3,o),
(694,-5,c),
(700,7,o),
(701,18,o),
(699,30,c),
(622,50,l),
(351,727,l),
(340,727,o),
(322,725,o),
(312,719,c),
(75,50,l),
(52,40,o),
(27,34,o),
(-2,30,c),
(-6,18,o),
(-6,7,o),
(-4,-5,c),
(33,-3,o),
(50,0,o),
(88,0,cs),
(125,0,o),
(174,-3,o),
(210,-5,c),
(216,7,o),
(217,18,o),
(215,30,c),
(138,50,l),
(203,240,l)
);
},
{
closed = 1;
nodes = (
(314,580,l),
(322,534,o),
(335,491,o),
(358,437,c),
(413,295,l),
(221,295,l),
(268,432,ls),
(285,482,o),
(298,532,o),
(312,580,c)
);
},
{
closed = 1;
nodes = (
(472,759,o),
(485,766,o),
(494,778,c),
(372,916,l),
(359,918,o),
(349,919,o),
(340,919,cs),
(330,919,o),
(320,918,o),
(309,916,c),
(184,778,l),
(193,766,o),
(206,758,o),
(216,754,c),
(256,782,o),
(299,816,o),
(336,852,c),
(374,818,o),
(413,782,o),
(456,754,c)
);
}
);
};
layerId = "E67231B9-FA09-451D-8B80-B70CA73DDE32";
shapes = (
{
ref = A;
},
{
pos = (171,-51);
ref = circumflexcomb.case;
}
);
width = 684;
}
);
unicode = 194;
},
{
glyphname = Adieresis;
kernLeft = _KERN_A;
kernRight = _KERN_A;
lastChange = "2023-10-27 11:44:35 +0000";
layers = (
{
associatedMasterId = "E67231B9-FA09-451D-8B80-B70CA73DDE32";
layerId = "DA51D0F6-E92C-4977-9AEE-C0B7DC2D6803";
name = img;
width = 684;
},
{
background = {
anchors = (
{
name = top;
pos = (333,705);
}
);
shapes = (
{
closed = 1;
nodes = (
(435,240,l),
(509,50,l),
(485,40,o),
(459,34,o),
(429,30,c),
(425,18,o),
(425,7,o),
(427,-5,c),
(464,-3,o),
(534,0,o),
(572,0,cs),
(609,0,o),
(658,-3,o),
(694,-5,c),
(700,7,o),
(701,18,o),
(699,30,c),
(622,50,l),
(351,727,l),
(340,727,o),
(322,725,o),
(312,719,c),
(75,50,l),
(52,40,o),
(27,34,o),
(-2,30,c),
(-6,18,o),
(-6,7,o),
(-4,-5,c),
(33,-3,o),
(50,0,o),
(88,0,cs),
(125,0,o),
(174,-3,o),
(210,-5,c),
(216,7,o),
(217,18,o),
(215,30,c),
(138,50,l),
(203,240,l)
);
},
{
closed = 1;
nodes = (
(314,580,l),
(322,534,o),
(335,491,o),
(358,437,c),
(413,295,l),
(221,295,l),
(268,432,ls),
(285,482,o),
(298,532,o),
(312,580,c)
);
},
{
closed = 1;
nodes = (
(179,816,o),
(203,777,o),
(237,777,cs),
(267,777,o),
(302,809,o),
(302,834,cs),
(302,858,o),
(279,897,o),
(244,897,cs),
(215,897,o),
(179,865,o),
(179,841,cs)
);
},
{
closed = 1;
nodes = (
(368,816,o),
(392,777,o),
(426,777,cs),
(456,777,o),
(491,809,o),
(491,834,cs),
(491,858,o),
(468,897,o),
(433,897,cs),
(404,897,o),
(368,865,o),
(368,841,cs)
);
}
);
};
layerId = "E67231B9-FA09-451D-8B80-B70CA73DDE32";
shapes = (
{
ref = A;
},
{
pos = (154,-51);
ref = dieresiscomb.case;
}
);
width = 684;
}
);
unicode = 196;
},
{
glyphname = Agrave;
kernLeft = _KERN_A;
kernRight = _KERN_A;
lastChange = "2023-10-27 11:44:35 +0000";
layers = (
{
associatedMasterId = "E67231B9-FA09-451D-8B80-B70CA73DDE32";
layerId = "DA51D0F6-E92C-4977-9AEE-C0B7DC2D6803";
name = img;
width = 684;
},
{
background = {
anchors = (
{
name = top;
pos = (333,705);
}
);
shapes = (
{
closed = 1;
nodes = (
(435,240,l),
(509,50,l),
(485,40,o),
(459,34,o),
(429,30,c),
(425,18,o),
(425,7,o),
(427,-5,c),
(464,-3,o),
(534,0,o),
(572,0,cs),
(609,0,o),
(658,-3,o),
(694,-5,c),
(700,7,o),
(701,18,o),
(699,30,c),
(622,50,l),
(351,727,l),
(340,727,o),
(322,725,o),
(312,719,c),
(75,50,l),
(52,40,o),
(27,34,o),
(-2,30,c),
(-6,18,o),
(-6,7,o),
(-4,-5,c),
(33,-3,o),
(50,0,o),
(88,0,cs),
(125,0,o),
(174,-3,o),
(210,-5,c),
(216,7,o),
(217,18,o),
(215,30,c),
(138,50,l),
(203,240,l)
);
},
{
closed = 1;
nodes = (
(314,580,l),
(322,534,o),
(335,491,o),
(358,437,c),
(413,295,l),
(221,295,l),
(268,432,ls),
(285,482,o),
(298,532,o),
(312,580,c)
);
},
{
closed = 1;
nodes = (
(380,745,l),
(392,756,o),
(397,763,o),
(403,774,c),
(265,918,l),
(239,901,o),
(219,871,o),
(211,842,c)
);
}
);
};
layerId = "E67231B9-FA09-451D-8B80-B70CA73DDE32";
shapes = (
{
ref = A;
},
{
pos = (182,-51);
ref = gravecomb.case;
}
);
width = 684;
}
);
unicode = 192;
},
{
glyphname = Aring;
kernLeft = _KERN_A;
kernRight = _KERN_A;
lastChange = "2023-10-27 11:44:35 +0000";
layers = (
{
associatedMasterId = "E67231B9-FA09-451D-8B80-B70CA73DDE32";
layerId = "DA51D0F6-E92C-4977-9AEE-C0B7DC2D6803";
name = img;
width = 684;
},
{
background = {
shapes = (
{
closed = 1;
nodes = (
(221,791,o),
(261,729,o),
(311,718,c),
(75,50,l),
(52,40,o),
(27,34,o),
(-2,30,c),
(-6,18,o),
(-6,7,o),
(-4,-5,c),
(33,-3,o),
(50,0,o),
(88,0,cs),
(125,0,o),
(174,-3,o),
(210,-5,c),
(216,7,o),
(217,18,o),
(215,30,c),
(138,50,l),
(203,240,l),
(435,240,l),
(509,50,l),
(485,40,o),
(459,34,o),
(429,30,c),
(425,18,o),
(425,7,o),
(427,-5,c),
(464,-3,o),
(534,0,o),
(572,0,cs),
(609,0,o),
(658,-3,o),
(694,-5,c),
(700,7,o),
(701,18,o),
(699,30,c),
(622,50,l),
(354,719,l),
(403,732,o),
(450,779,o),
(450,820,cs),
(450,864,o),
(406,934,o),
(343,934,cs),
(288,934,o),
(221,879,o),
(221,833,cs)
);
},
{
closed = 1;
nodes = (
(314,580,l),
(322,534,o),
(335,491,o),
(358,437,c),
(413,295,l),
(221,295,l),
(268,432,ls),
(285,482,o),
(298,532,o),
(312,580,c)
);
},
{
closed = 1;
nodes = (
(279,852,o),
(312,880,o),
(340,880,cs),
(371,880,o),
(393,845,o),
(393,823,cs),
(393,799,o),
(361,772,o),
(333,772,cs),
(303,772,o),
(279,807,o),
(279,830,cs)
);
}
);
};
layerId = "E67231B9-FA09-451D-8B80-B70CA73DDE32";
shapes = (
{
ref = A;
},
{
pos = (192,-51);
ref = ringcomb.case;
}
);
width = 684;
}
);
unicode = 197;
},
{
glyphname = Atilde;
kernLeft = _KERN_A;
kernRight = _KERN_A;
lastChange = "2023-10-27 11:44:35 +0000";
layers = (
{
associatedMasterId = "E67231B9-FA09-451D-8B80-B70CA73DDE32";
layerId = "DA51D0F6-E92C-4977-9AEE-C0B7DC2D6803";
name = img;
width = 684;
},
{
background = {
anchors = (
{
name = top;
pos = (333,705);
}
);
shapes = (
{
closed = 1;
nodes = (
(435,240,l),
(509,50,l),
(485,40,o),
(459,34,o),
(429,30,c),
(425,18,o),
(425,7,o),
(427,-5,c),
(464,-3,o),
(534,0,o),
(572,0,cs),
(609,0,o),
(658,-3,o),
(694,-5,c),
(700,7,o),
(701,18,o),
(699,30,c),
(622,50,l),
(351,727,l),
(340,727,o),
(322,725,o),
(312,719,c),
(75,50,l),
(52,40,o),
(27,34,o),
(-2,30,c),
(-6,18,o),
(-6,7,o),
(-4,-5,c),
(33,-3,o),
(50,0,o),
(88,0,cs),
(125,0,o),
(174,-3,o),
(210,-5,c),
(216,7,o),
(217,18,o),
(215,30,c),
(138,50,l),
(203,240,l)
);
},
{
closed = 1;
nodes = (
(314,580,l),
(322,534,o),
(335,491,o),
(358,437,c),
(413,295,l),
(221,295,l),
(268,432,ls),
(285,482,o),
(298,532,o),
(312,580,c)
);
},
{
closed = 1;
nodes = (
(229,812,o),
(251,825,o),
(281,822,c),
(326,819,o),
(346,783,o),
(408,786,cs),
(451,788,o),
(473,820,o),
(486,866,c),
(477,874,o),
(467,883,o),
(457,883,c),
(442,860,o),
(418,852,o),
(391,857,cs),
(348,865,o),
(331,896,o),
(281,893,c),
(246,892,o),
(214,868,o),
(186,817,c),
(193,809,o),
(201,796,o),
(215,791,c)
);
}
);
};
layerId = "E67231B9-FA09-451D-8B80-B70CA73DDE32";
shapes = (
{
ref = A;
},
{
pos = (164,-51);
ref = tildecomb.case;
}
);
width = 684;
}
);
unicode = 195;
},
{
glyphname = AE;
kernRight = _KERN_E_1ST;
lastChange = "2023-10-27 11:47:12 +0000";
layers = (
{
anchors = (
{
name = bottom;
pos = (442,0);
},
{
name = top;
pos = (442,705);
}
);
background = {
shapes = (
{
closed = 1;
nodes = (
(416,295,l),
(416,655,l),
(412,655,l),
(253,295,l)
);
},
{
closed = 1;
nodes = (
(416,240,l),
(229,240,l),
(145,50,l),
(222,30,l),
(224,18,o),
(223,7,o),
(217,-5,c),
(181,-3,o),
(132,0,o),
(95,0,cs),
(57,0,o),
(40,-3,o),
(3,-5,c),
(1,7,o),
(1,18,o),
(5,30,c),
(34,34,o),
(59,40,o),
(82,50,c),
(374,700,l),
(831,700,l),
(832,641,o),
(830,582,o),
(820,525,c),
(807,520,o),
(800,520,o),
(784,522,c),
(758,655,l),
(521,655,l),
(521,385,l),
(687,385,l),
(706,473,l),
(718,477,o),
(734,477,o),
(746,468,c),
(743,439,o),
(742,400,o),
(742,361,cs),
(742,318,o),
(743,275,o),
(746,243,c),
(734,238,o),
(718,238,o),
(706,241,c),
(687,330,l),
(521,330,l),
(521,45,l),
(788,45,l),
(812,178,l),
(828,180,o),
(834,180,o),
(847,175,c),
(857,127,o),
(859,79,o),
(859,31,cs),
(859,21,o),
(859,10,o),
(859,0,c),
(471,0,ls),
(433,0,o),
(375,-3,o),
(338,-5,c),
(336,7,o),
(336,18,o),
(340,30,c),
(365,35,o),
(391,40,o),
(416,50,c)
);
}
);
};
guides = (
{
pos = (0,655);
}
);
layerId = "E67231B9-FA09-451D-8B80-B70CA73DDE32";
shapes = (
{
closed = 1;
nodes = (
(416,295,l),
(416,655,l),
(412,655,l),
(253,295,l)
);
},
{
closed = 1;
nodes = (
(416,240,l),
(229,240,l),
(145,50,l),
(222,30,l),
(224,18,o),
(223,7,o),
(217,-5,c),
(181,-3,o),
(132,0,o),
(95,0,cs),
(57,0,o),
(40,-3,o),
(3,-5,c),
(1,7,o),
(1,18,o),
(5,30,c),
(34,34,o),
(59,40,o),
(82,50,c),
(374,700,l),
(831,700,l),
(832,641,o),
(830,582,o),
(820,525,c),
(807,520,o),
(800,520,o),
(784,522,c),
(758,655,l),
(521,655,l),
(521,385,l),
(687,385,l),
(706,473,l),
(718,477,o),
(734,477,o),
(746,468,c),
(743,439,o),
(742,400,o),
(742,361,cs),
(742,318,o),
(743,275,o),
(746,243,c),
(734,238,o),
(718,238,o),
(706,241,c),
(687,330,l),
(521,330,l),
(521,45,l),
(788,45,l),
(812,178,l),
(828,180,o),
(834,180,o),
(847,175,c),
(857,127,o),
(859,79,o),
(859,31,cs),
(859,21,o),
(859,10,o),
(859,0,c),
(471,0,ls),
(433,0,o),
(375,-3,o),
(338,-5,c),
(336,7,o),
(336,18,o),
(340,30,c),
(365,35,o),
(391,40,o),
(416,50,c)
);
}
);
width = 884;
}
);
unicode = 198;
},
{
glyphname = B;
kernLeft = _KERN_I_2ND;
lastChange = "2023-10-27 11:47:12 +0000";
layers = (
{
anchors = (
{
name = bottom;
pos = (318,0);
},
{
name = center;
pos = (318,353);
},
{
name = top;
pos = (318,705);
}
);
background = {
shapes = (
{
closed = 1;
nodes = (
(325,-5,l),
(462,-5,o),
(593,39,o),
(593,190,cs),
(593,317,o),
(501,361,o),
(395,373,c),
(395,375,l),
(480,389,o),
(550,451,o),
(550,540,cs),
(550,648,o),
(464,702,o),
(301,701,cs),
(167,700,ls),
(130,700,o),
(81,703,o),
(45,705,c),
(39,693,o),
(38,682,o),
(40,670,c),
(117,650,l),
(117,50,l),
(89,40,o),
(63,34,o),
(37,30,c),
(33,18,o),
(33,7,o),
(35,-5,c),
(72,-3,o),
(134,0,o),
(172,0,c)
);
},
{
closed = 1;
nodes = (
(222,45,l),
(222,342,l),
(293,342,ls),
(434,342,o),
(481,297,o),
(481,191,cs),
(481,96,o),
(440,40,o),
(313,40,c)
);
},
{
closed = 1;
nodes = (
(222,392,l),
(222,652,l),
(240,653,o),
(257,654,o),
(272,654,cs),
(412,654,o),
(443,606,o),
(443,536,cs),
(443,448,o),
(406,392,o),
(280,392,cs)
);
}
);
};
layerId = "E67231B9-FA09-451D-8B80-B70CA73DDE32";
shapes = (
{
closed = 1;
nodes = (
(325,-5,l),
(462,-5,o),
(593,39,o),
(593,190,cs),
(593,317,o),
(501,361,o),
(395,373,c),
(395,375,l),
(480,389,o),
(550,451,o),
(550,540,cs),
(550,648,o),
(464,702,o),
(301,701,cs),
(167,700,ls),
(130,700,o),
(81,703,o),
(45,705,c),
(39,693,o),
(38,682,o),
(40,670,c),
(117,650,l),
(117,50,l),
(89,40,o),
(63,34,o),
(37,30,c),
(33,18,o),
(33,7,o),
(35,-5,c),
(72,-3,o),
(134,0,o),
(172,0,c)
);
},
{
closed = 1;
nodes = (
(222,45,l),
(222,342,l),
(293,342,ls),
(434,342,o),
(481,297,o),
(481,191,cs),
(481,96,o),
(440,40,o),
(313,40,c)
);
},
{
closed = 1;
nodes = (
(222,392,l),
(222,652,l),
(240,653,o),
(257,654,o),
(272,654,cs),
(412,654,o),
(443,606,o),
(443,536,cs),
(443,448,o),
(406,392,o),
(280,392,cs)
);
}
);
width = 636;
}
);
unicode = 66;
},
{
glyphname = C;
kernLeft = _KERN_O_2ND;
kernRight = _KERN_C_1ST;
lastChange = "2023-10-27 11:44:40 +0000";
layers = (
{
anchors = (
{
name = bottom;
pos = (378,0);
},
{
name = top;
pos = (403,705);
}
);
background = {
anchors = (
{
name = bottom;
pos = (378,0);
}
);
shapes = (
{
closed = 1;
nodes = (
(541,66,o),
(481,33,o),
(398,33,cs),
(241,33,o),
(160,162,o),
(160,350,cs),
(160,528,o),
(263,667,o),
(404,667,cs),
(452,667,o),
(489,663,o),
(533,645,c),
(544,516,l),
(557,510,o),
(575,509,o),
(588,511,c),
(607,562,o),
(622,614,o),
(619,675,c),
(566,704,o),
(494,720,o),
(397,720,cs),
(232,720,o),
(44,603,o),
(44,350,cs),
(44,95,o),
(209,-20,o),
(387,-20,cs),
(475,-20,o),
(553,15,o),
(615,76,c),
(614,91,o),
(609,104,o),
(592,109,c)
);
}
);
};
layerId = "E67231B9-FA09-451D-8B80-B70CA73DDE32";
shapes = (
{
closed = 1;
nodes = (
(541,66,o),
(481,33,o),
(398,33,cs),
(241,33,o),
(160,162,o),
(160,350,cs),
(160,528,o),
(263,667,o),
(404,667,cs),
(452,667,o),
(489,663,o),
(533,645,c),
(544,516,l),
(557,510,o),
(575,509,o),
(588,511,c),
(607,562,o),
(622,614,o),
(619,675,c),
(566,704,o),
(494,720,o),
(397,720,cs),
(232,720,o),
(44,603,o),
(44,350,cs),
(44,95,o),
(209,-20,o),
(387,-20,cs),
(475,-20,o),
(553,15,o),
(615,76,c),
(614,91,o),
(609,104,o),
(592,109,c)
);
}
);
width = 646;
}
);
unicode = 67;
},
{
glyphname = Ccedilla;
kernLeft = _KERN_O_2ND;
kernRight = _KERN_C_1ST;
lastChange = "2023-10-27 11:43:03 +0000";
layers = (
{
associatedMasterId = "E67231B9-FA09-451D-8B80-B70CA73DDE32";
layerId = "DA51D0F6-E92C-4977-9AEE-C0B7DC2D6803";
name = img;
width = 647;
},
{
background = {
shapes = (
{
closed = 1;
nodes = (
(370,-19,l),
(376,-19,o),
(382,-20,o),
(388,-20,cs),
(476,-20,o),
(554,15,o),
(616,76,c),
(615,91,o),
(610,104,o),
(593,109,c),
(542,66,o),
(482,33,o),
(399,33,cs),
(242,33,o),
(161,162,o),
(161,350,cs),
(161,528,o),
(264,667,o),
(405,667,cs),
(453,667,o),
(490,663,o),
(534,645,c),
(545,516,l),
(558,510,o),
(576,509,o),
(589,511,c),
(608,562,o),
(623,614,o),
(620,675,c),
(567,704,o),
(495,721,o),
(398,721,cs),
(233,721,o),
(45,603,o),
(45,350,cs),
(45,122,o),
(176,6,o),
(330,-16,c),
(332,-85,l),
(388,-85,o),
(422,-106,o),
(422,-143,cs),
(422,-168,o),
(392,-193,o),
(348,-193,cs),
(331,-193,o),
(311,-190,o),
(288,-181,c),
(279,-188,o),
(274,-197,o),
(273,-210,c),
(298,-219,o),
(332,-223,o),
(354,-223,cs),
(440,-223,o),
(490,-178,o),
(490,-121,cs),
(490,-65,o),
(452,-36,o),
(373,-36,c)
);
}
);
};
layerId = "E67231B9-FA09-451D-8B80-B70CA73DDE32";
shapes = (
{
ref = C;
},
{
pos = (249,11);
ref = cedillacomb;
}
);
width = 646;
}
);
unicode = 199;
},
{
glyphname = D;
kernLeft = _KERN_I_2ND;
kernRight = _KERN_D_1ST;
lastChange = "2023-10-27 11:44:53 +0000";
layers = (
{
anchors = (
{
name = bottom;
pos = (370,0);
},
{
name = center;
pos = (370,353);
},
{
name = top;
pos = (370,705);
}
);
background = {
shapes = (
{
closed = 1;
nodes = (
(297,-7,l),
(499,-7,o),
(692,85,o),
(692,360,cs),
(692,558,o),
(581,704,o),
(297,704,c),
(167,700,l),
(130,700,o),
(81,703,o),
(45,705,c),
(39,693,o),
(38,682,o),
(40,670,c),
(117,650,l),
(117,50,l),
(91,40,o),
(65,34,o),
(37,30,c),
(33,18,o),
(33,7,o),
(35,-5,c),
(72,-3,o),
(134,0,o),
(172,0,c)
);
},
{
closed = 1;
nodes = (
(222,655,l),
(240,656,o),
(257,657,o),
(273,657,cs),
(500,657,o),
(581,552,o),
(581,360,cs),
(581,144,o),
(504,42,o),
(288,42,cs),
(267,42,o),
(245,43,o),
(222,45,c)
);
}
);
};
layerId = "E67231B9-FA09-451D-8B80-B70CA73DDE32";
shapes = (
{
closed = 1;
nodes = (
(297,-7,l),
(499,-7,o),
(692,85,o),
(692,360,cs),
(692,558,o),
(581,704,o),
(297,704,c),
(167,700,l),
(130,700,o),
(81,703,o),
(45,705,c),
(39,693,o),
(38,682,o),
(40,670,c),
(117,650,l),
(117,50,l),
(91,40,o),
(65,34,o),
(37,30,c),
(33,18,o),
(33,7,o),
(35,-5,c),
(72,-3,o),
(134,0,o),
(172,0,c)
);
},
{
closed = 1;
nodes = (
(222,655,l),
(240,656,o),
(257,657,o),
(273,657,cs),
(500,657,o),
(581,552,o),
(581,360,cs),
(581,144,o),
(504,42,o),
(288,42,cs),
(267,42,o),
(245,43,o),
(222,45,c)
);
}
);
width = 739;
}
);
unicode = 68;
},
{
glyphname = Eth;
kernLeft = _KERN_I_2ND;
kernRight = _KERN_D_1ST;
lastChange = "2023-10-27 11:41:42 +0000";
layers = (
{
background = {
shapes = (
{
closed = 1;
nodes = (
(297,-7,l),
(499,-7,o),
(692,85,o),
(692,360,cs),
(692,558,o),
(581,704,o),
(297,704,c),
(167,700,l),
(130,700,o),
(81,703,o),
(45,705,c),
(39,693,o),
(38,682,o),
(40,670,c),
(117,650,l),
(117,395,l),
(48,395,l),
(41,387,o),
(35,354,o),
(37,340,c),
(117,340,l),
(117,50,l),
(91,40,o),
(65,34,o),
(37,30,c),
(33,18,o),
(33,7,o),
(35,-5,c),
(72,-3,o),
(134,0,o),
(172,0,c)
);
},
{
closed = 1;
nodes = (
(222,340,l),
(400,340,l),
(407,351,o),
(411,377,o),
(411,395,c),
(222,395,l),
(222,655,l),
(240,656,o),
(257,657,o),
(273,657,cs),
(500,657,o),
(581,552,o),
(581,360,cs),
(581,144,o),
(504,42,o),
(288,42,cs),
(267,42,o),
(245,43,o),
(222,45,c)
);
}
);
};
layerId = "E67231B9-FA09-451D-8B80-B70CA73DDE32";
shapes = (
{
closed = 1;
nodes = (
(297,-7,l),
(499,-7,o),
(692,85,o),
(692,360,cs),
(692,558,o),
(581,704,o),
(297,704,c),
(167,700,l),
(130,700,o),
(81,703,o),
(45,705,c),
(39,693,o),
(38,682,o),
(40,670,c),
(117,650,l),
(117,395,l),
(48,395,l),
(41,387,o),
(35,354,o),
(37,340,c),
(117,340,l),
(117,50,l),
(91,40,o),
(65,34,o),
(37,30,c),
(33,18,o),
(33,7,o),
(35,-5,c),
(72,-3,o),
(134,0,o),
(172,0,c)
);
},
{
closed = 1;
nodes = (
(222,340,l),
(400,340,l),
(407,351,o),
(411,377,o),
(411,395,c),
(222,395,l),
(222,655,l),
(240,656,o),
(257,657,o),
(273,657,cs),
(500,657,o),
(581,552,o),
(581,360,cs),
(581,144,o),
(504,42,o),
(288,42,cs),
(267,42,o),
(245,43,o),
(222,45,c)
);
}
);
width = 740;
}
);
unicode = 208;
},
{
glyphname = E;
kernLeft = _KERN_I_2ND;
kernRight = _KERN_E_1ST;
lastChange = "2023-10-27 11:47:12 +0000";
layers = (
{
anchors = (
{
name = bottom;
pos = (313,0);
},
{
name = ogonek;
pos = (563,10);
},
{
name = top;
pos = (322,705);
},
{
name = topleft;
pos = (20,705);
}
);
background = {
anchors = (
{
name = top;
pos = (322,705);
}
);
shapes = (
{
closed = 1;
nodes = (
(408,330,l),
(427,241,l),
(439,238,o),
(455,238,o),
(467,243,c),
(464,275,o),
(463,318,o),
(463,361,cs),
(463,400,o),
(464,439,o),
(467,468,c),
(455,477,o),
(439,477,o),
(427,473,c),
(408,385,l),
(222,385,l),
(222,655,l),
(479,655,l),
(505,522,l),
(521,520,o),
(528,520,o),
(541,525,c),
(551,582,o),
(553,641,o),
(552,700,c),
(167,700,ls),
(130,700,o),
(81,703,o),
(45,705,c),
(39,693,o),
(38,682,o),
(40,670,c),
(117,650,l),
(117,50,l),
(92,40,o),
(66,35,o),
(41,30,c),
(37,18,o),
(37,7,o),
(39,-5,c),
(76,-3,o),
(134,0,o),
(172,0,cs),
(580,0,l),
(580,10,o),
(580,21,o),
(580,31,cs),
(580,79,o),
(578,127,o),
(568,175,c),
(555,180,o),
(549,180,o),
(533,178,c),
(512,45,l),
(222,45,l),
(222,330,l)
);
}
);
};
guides = (
{
pos = (0,385);
},
{
pos = (0,330);
},
{
angle = 90;
pos = (373,0);
}
);
layerId = "E67231B9-FA09-451D-8B80-B70CA73DDE32";
shapes = (
{
closed = 1;
nodes = (
(408,330,l),
(427,241,l),
(439,238,o),
(455,238,o),
(467,243,c),
(464,275,o),
(463,318,o),
(463,361,cs),
(463,400,o),
(464,439,o),
(467,468,c),
(455,477,o),
(439,477,o),
(427,473,c),
(408,385,l),
(222,385,l),
(222,655,l),
(479,655,l),
(505,522,l),
(521,520,o),
(528,520,o),
(541,525,c),
(551,582,o),
(553,641,o),
(552,700,c),
(167,700,ls),
(130,700,o),
(81,703,o),
(45,705,c),
(39,693,o),
(38,682,o),
(40,670,c),
(117,650,l),
(117,50,l),
(92,40,o),
(66,35,o),
(41,30,c),
(37,18,o),
(37,7,o),
(39,-5,c),
(76,-3,o),
(134,0,o),
(172,0,cs),
(580,0,l),
(580,10,o),
(580,21,o),
(580,31,cs),
(580,79,o),
(578,127,o),
(568,175,c),
(555,180,o),
(549,180,o),
(533,178,c),
(512,45,l),
(222,45,l),
(222,330,l)
);
}
);
width = 625;
}
);
unicode = 69;
},
{
glyphname = Eacute;
kernLeft = _KERN_I_2ND;
kernRight = _KERN_E_1ST;
lastChange = "2023-10-27 11:43:03 +0000";
layers = (
{
associatedMasterId = "E67231B9-FA09-451D-8B80-B70CA73DDE32";
layerId = "DA51D0F6-E92C-4977-9AEE-C0B7DC2D6803";
name = img;
width = 585;
},
{
background = {
anchors = (
{
name = top;
pos = (322,705);
}
);
shapes = (
{
closed = 1;
nodes = (
(408,330,l),
(427,241,l),
(439,238,o),
(455,238,o),
(467,243,c),
(464,275,o),
(463,318,o),
(463,361,cs),
(463,400,o),
(464,439,o),
(467,468,c),
(455,477,o),
(439,477,o),
(427,473,c),
(408,385,l),
(222,385,l),
(222,655,l),
(479,655,l),
(505,522,l),
(521,520,o),
(528,520,o),
(541,525,c),
(551,582,o),
(553,641,o),
(552,700,c),
(167,700,ls),
(130,700,o),
(81,703,o),
(45,705,c),
(39,693,o),
(38,682,o),
(40,670,c),
(117,650,l),
(117,50,l),
(92,40,o),
(66,35,o),
(41,30,c),
(37,18,o),
(37,7,o),
(39,-5,c),
(76,-3,o),
(134,0,o),
(172,0,cs),
(580,0,l),
(580,10,o),
(580,21,o),
(580,31,cs),
(580,79,o),
(578,127,o),
(568,175,c),
(555,180,o),
(549,180,o),
(533,178,c),
(512,45,l),
(222,45,l),
(222,330,l)
);
},
{
closed = 1;
nodes = (
(449,842,l),
(441,871,o),
(421,901,o),
(395,918,c),
(257,774,l),
(263,763,o),
(268,756,o),
(280,745,c)
);
}
);
};
layerId = "E67231B9-FA09-451D-8B80-B70CA73DDE32";
shapes = (
{
ref = E;
},
{
pos = (218,-51);
ref = acutecomb.case;
}
);
width = 625;
}
);
unicode = 201;
},
{
glyphname = Ecircumflex;
kernLeft = _KERN_I_2ND;
kernRight = _KERN_E_1ST;
lastChange = "2023-10-27 11:43:03 +0000";
layers = (
{
associatedMasterId = "E67231B9-FA09-451D-8B80-B70CA73DDE32";
layerId = "DA51D0F6-E92C-4977-9AEE-C0B7DC2D6803";
name = img;
width = 585;
},
{
background = {
anchors = (
{
name = top;
pos = (322,705);
}
);
shapes = (
{
closed = 1;
nodes = (
(408,330,l),
(427,241,l),
(439,238,o),
(455,238,o),
(467,243,c),
(464,275,o),
(463,318,o),
(463,361,cs),
(463,400,o),
(464,439,o),
(467,468,c),
(455,477,o),
(439,477,o),
(427,473,c),
(408,385,l),
(222,385,l),
(222,655,l),
(479,655,l),
(505,522,l),
(521,520,o),
(528,520,o),
(541,525,c),
(551,582,o),
(553,641,o),
(552,700,c),
(167,700,ls),
(130,700,o),
(81,703,o),
(45,705,c),
(39,693,o),
(38,682,o),
(40,670,c),
(117,650,l),
(117,50,l),
(92,40,o),
(66,35,o),
(41,30,c),
(37,18,o),
(37,7,o),
(39,-5,c),
(76,-3,o),
(134,0,o),
(172,0,cs),
(580,0,l),
(580,10,o),
(580,21,o),
(580,31,cs),
(580,79,o),
(578,127,o),
(568,175,c),
(555,180,o),
(549,180,o),
(533,178,c),
(512,45,l),
(222,45,l),
(222,330,l)
);
},
{
closed = 1;
nodes = (
(466,759,o),
(479,766,o),
(488,778,c),
(366,916,l),
(353,918,o),
(343,919,o),
(334,919,cs),
(324,919,o),
(314,918,o),
(303,916,c),
(178,778,l),
(187,766,o),
(200,758,o),
(210,754,c),
(250,782,o),
(293,816,o),
(330,852,c),
(368,818,o),
(407,782,o),
(450,754,c)
);
}
);
};
layerId = "E67231B9-FA09-451D-8B80-B70CA73DDE32";
shapes = (
{
ref = E;
},
{
pos = (160,-51);
ref = circumflexcomb.case;
}
);
width = 625;
}
);
unicode = 202;
},
{
glyphname = Edieresis;
kernLeft = _KERN_I_2ND;
kernRight = _KERN_E_1ST;
lastChange = "2023-10-27 11:43:03 +0000";
layers = (
{
associatedMasterId = "E67231B9-FA09-451D-8B80-B70CA73DDE32";
layerId = "DA51D0F6-E92C-4977-9AEE-C0B7DC2D6803";
name = img;
width = 585;
},
{
background = {
anchors = (
{
name = top;
pos = (322,705);
}
);
shapes = (
{
closed = 1;
nodes = (
(408,330,l),
(427,241,l),
(439,238,o),
(455,238,o),
(467,243,c),
(464,275,o),
(463,318,o),
(463,361,cs),
(463,400,o),
(464,439,o),
(467,468,c),
(455,477,o),
(439,477,o),
(427,473,c),
(408,385,l),
(222,385,l),
(222,655,l),
(479,655,l),
(505,522,l),
(521,520,o),
(528,520,o),
(541,525,c),
(551,582,o),
(553,641,o),
(552,700,c),
(167,700,ls),
(130,700,o),
(81,703,o),
(45,705,c),
(39,693,o),
(38,682,o),
(40,670,c),
(117,650,l),
(117,50,l),
(92,40,o),
(66,35,o),
(41,30,c),
(37,18,o),
(37,7,o),
(39,-5,c),
(76,-3,o),
(134,0,o),
(172,0,cs),
(580,0,l),
(580,10,o),
(580,21,o),
(580,31,cs),
(580,79,o),
(578,127,o),
(568,175,c),
(555,180,o),
(549,180,o),
(533,178,c),
(512,45,l),
(222,45,l),
(222,330,l)
);
},
{
closed = 1;
nodes = (
(168,816,o),
(192,777,o),
(226,777,cs),
(256,777,o),
(291,809,o),
(291,834,cs),
(291,858,o),
(268,897,o),
(233,897,cs),
(204,897,o),
(168,865,o),
(168,841,cs)
);
},
{
closed = 1;
nodes = (
(357,816,o),
(381,777,o),
(415,777,cs),
(445,777,o),
(480,809,o),
(480,834,cs),
(480,858,o),
(457,897,o),
(422,897,cs),
(393,897,o),
(357,865,o),
(357,841,cs)
);
}
);
};
layerId = "E67231B9-FA09-451D-8B80-B70CA73DDE32";
shapes = (
{
ref = E;
},
{
pos = (143,-51);
ref = dieresiscomb.case;
}
);
width = 625;
}
);
unicode = 203;
},
{
glyphname = Egrave;
kernLeft = _KERN_I_2ND;
kernRight = _KERN_E_1ST;
lastChange = "2023-10-27 11:43:03 +0000";
layers = (
{
associatedMasterId = "E67231B9-FA09-451D-8B80-B70CA73DDE32";
layerId = "DA51D0F6-E92C-4977-9AEE-C0B7DC2D6803";
name = img;
width = 585;
},
{
background = {
anchors = (
{
name = top;
pos = (322,705);
}
);
shapes = (
{
closed = 1;
nodes = (
(408,330,l),
(427,241,l),
(439,238,o),
(455,238,o),
(467,243,c),
(464,275,o),
(463,318,o),
(463,361,cs),
(463,400,o),
(464,439,o),
(467,468,c),
(455,477,o),
(439,477,o),
(427,473,c),
(408,385,l),
(222,385,l),
(222,655,l),
(479,655,l),
(505,522,l),
(521,520,o),
(528,520,o),
(541,525,c),
(551,582,o),
(553,641,o),
(552,700,c),
(167,700,ls),
(130,700,o),
(81,703,o),
(45,705,c),
(39,693,o),
(38,682,o),
(40,670,c),
(117,650,l),
(117,50,l),
(92,40,o),
(66,35,o),
(41,30,c),
(37,18,o),
(37,7,o),
(39,-5,c),
(76,-3,o),
(134,0,o),
(172,0,cs),
(580,0,l),
(580,10,o),
(580,21,o),
(580,31,cs),
(580,79,o),
(578,127,o),
(568,175,c),
(555,180,o),
(549,180,o),
(533,178,c),
(512,45,l),
(222,45,l),
(222,330,l)
);
},
{
closed = 1;
nodes = (
(369,745,l),
(381,756,o),
(386,763,o),
(392,774,c),
(254,918,l),
(228,901,o),
(208,871,o),
(200,842,c)
);
}
);
};
layerId = "E67231B9-FA09-451D-8B80-B70CA73DDE32";
shapes = (
{
ref = E;
},
{
pos = (171,-51);
ref = gravecomb.case;
}
);
width = 625;
}
);
unicode = 200;
},
{
glyphname = F;
kernLeft = _KERN_I_2ND;
lastChange = "2023-10-27 11:47:12 +0000";
layers = (
{
anchors = (
{
name = bottom;
pos = (281,0);
},
{
name = top;
pos = (281,705);
}
);
background = {
shapes = (
{
closed = 1;
nodes = (
(222,340,l),
(379,340,l),
(398,251,l),
(410,248,o),
(426,248,o),
(438,253,c),
(435,285,o),
(434,328,o),
(434,371,cs),
(434,410,o),
(435,449,o),
(438,478,c),
(426,487,o),
(410,487,o),
(398,483,c),
(379,395,l),
(222,395,l),
(222,655,l),
(470,655,l),
(495,522,l),
(511,520,o),
(518,520,o),
(531,525,c),
(538,569,o),
(543,614,o),
(543,661,cs),
(543,674,o),
(543,687,o),
(542,700,c),
(167,700,ls),
(130,700,o),
(81,703,o),
(45,705,c),
(39,693,o),
(38,682,o),
(40,670,c),
(117,650,l),
(117,50,l),
(92,37,o),
(71,35,o),
(49,30,c),
(45,18,o),
(45,7,o),
(47,-5,c),
(84,-3,o),
(129,0,o),
(167,0,cs),
(204,0,o),
(276,-3,o),
(312,-5,c),
(318,7,o),
(319,18,o),
(317,30,c),
(222,49,l)
);
}
);
};
layerId = "E67231B9-FA09-451D-8B80-B70CA73DDE32";
shapes = (
{
closed = 1;
nodes = (
(222,340,l),
(379,340,l),
(398,251,l),
(410,248,o),
(426,248,o),
(438,253,c),
(435,285,o),
(434,328,o),
(434,371,cs),
(434,410,o),
(435,449,o),
(438,478,c),
(426,487,o),
(410,487,o),
(398,483,c),
(379,395,l),
(222,395,l),
(222,655,l),
(470,655,l),
(495,522,l),
(511,520,o),
(518,520,o),
(531,525,c),
(538,569,o),
(543,614,o),
(543,661,cs),
(543,674,o),
(543,687,o),
(542,700,c),
(167,700,ls),
(130,700,o),
(81,703,o),
(45,705,c),
(39,693,o),
(38,682,o),
(40,670,c),
(117,650,l),
(117,50,l),
(92,37,o),
(71,35,o),
(49,30,c),
(45,18,o),
(45,7,o),
(47,-5,c),
(84,-3,o),
(129,0,o),
(167,0,cs),
(204,0,o),
(276,-3,o),
(312,-5,c),
(318,7,o),
(319,18,o),
(317,30,c),
(222,49,l)
);
}
);
width = 561;
}
);
unicode = 70;
},
{
glyphname = G;
kernLeft = _KERN_O_2ND;
lastChange = "2023-10-27 11:47:12 +0000";
layers = (
{
anchors = (
{
name = bottom;
pos = (358,0);
},
{
name = top;
pos = (358,705);
}
);
background = {
shapes = (
{
closed = 1;
nodes = (
(620,250,l),
(646,263,o),
(671,267,o),
(697,270,c),
(697,274,o),
(698,277,o),
(698,281,cs),
(698,289,o),
(696,297,o),
(692,305,c),
(656,303,o),
(606,300,o),
(569,300,cs),
(532,300,o),
(479,303,o),
(443,305,c),
(439,297,o),
(437,289,o),
(437,281,cs),
(437,277,o),
(437,274,o),
(438,270,c),
(515,250,l),
(515,58,l),
(474,41,o),
(443,33,o),
(397,33,cs),
(240,33,o),
(160,166,o),
(160,350,cs),
(160,523,o),
(254,668,o),
(417,668,cs),
(455,668,o),
(502,659,o),
(544,643,c),
(555,507,l),
(564,503,o),
(575,501,o),
(586,501,cs),
(590,501,o),
(595,501,o),
(599,502,c),
(617,560,o),
(630,618,o),
(630,677,c),
(564,709,o),
(493,720,o),
(424,720,cs),
(203,720,o),
(44,583,o),
(44,350,cs),
(44,100,o),
(202,-20,o),
(378,-20,cs),
(459,-20,o),
(544,5,o),
(620,49,c)
);
}
);
};
layerId = "E67231B9-FA09-451D-8B80-B70CA73DDE32";
shapes = (
{
closed = 1;
nodes = (
(620,250,l),
(646,263,o),
(671,267,o),
(697,270,c),
(697,274,o),
(698,277,o),
(698,281,cs),
(698,289,o),
(696,297,o),
(692,305,c),
(656,303,o),
(606,300,o),
(569,300,cs),
(532,300,o),
(479,303,o),
(443,305,c),
(439,297,o),
(437,289,o),
(437,281,cs),
(437,277,o),
(437,274,o),
(438,270,c),
(515,250,l),
(515,58,l),
(474,41,o),
(443,33,o),
(397,33,cs),
(240,33,o),
(160,166,o),
(160,350,cs),
(160,523,o),
(254,668,o),
(417,668,cs),
(455,668,o),
(502,659,o),
(544,643,c),
(555,507,l),
(564,503,o),
(575,501,o),
(586,501,cs),
(590,501,o),
(595,501,o),
(599,502,c),
(617,560,o),
(630,618,o),
(630,677,c),
(564,709,o),
(493,720,o),
(424,720,cs),
(203,720,o),
(44,583,o),
(44,350,cs),
(44,100,o),
(202,-20,o),
(378,-20,cs),
(459,-20,o),
(544,5,o),
(620,49,c)
);
}
);
width = 716;
}
);
unicode = 71;
},
{
glyphname = H;
kernLeft = _KERN_I_2ND;
kernRight = _KERN_I_1ST;
lastChange = "2023-10-27 11:47:12 +0000";
layers = (
{
anchors = (
{
name = bottom;
pos = (390,0);
},
{
name = center;
pos = (390,353);
},
{
name = top;
pos = (390,705);
},
{
name = topleft;
pos = (20,705);
}
);
background = {
shapes = (
{
closed = 1;
nodes = (
(662,650,l),
(689,660,o),
(715,665,o),
(742,670,c),
(746,682,o),
(746,693,o),
(744,705,c),
(707,703,o),
(645,700,o),
(607,700,cs),
(570,700,o),
(521,703,o),
(485,705,c),
(479,693,o),
(478,682,o),
(480,670,c),
(557,650,l),
(557,395,l),
(222,395,l),
(222,650,l),
(249,660,o),
(275,665,o),
(302,670,c),
(306,682,o),
(306,693,o),
(304,705,c),
(267,703,o),
(205,700,o),
(167,700,cs),
(130,700,o),
(81,703,o),
(45,705,c),
(39,693,o),
(38,682,o),
(40,670,c),
(117,650,l),
(117,50,l),
(92,40,o),
(65,35,o),
(37,30,c),
(33,18,o),
(33,7,o),
(35,-5,c),
(72,-3,o),
(134,0,o),
(172,0,cs),
(209,0,o),
(258,-3,o),
(294,-5,c),
(300,7,o),
(301,18,o),
(299,30,c),
(222,50,l),
(222,340,l),
(557,340,l),
(557,50,l),
(531,40,o),
(505,34,o),
(477,30,c),
(473,18,o),
(473,7,o),
(475,-5,c),
(512,-3,o),
(574,0,o),
(612,0,cs),
(649,0,o),
(698,-3,o),
(734,-5,c),
(740,7,o),
(741,18,o),
(739,30,c),
(662,50,l)
);
}
);
};
layerId = "E67231B9-FA09-451D-8B80-B70CA73DDE32";
shapes = (
{
closed = 1;
nodes = (
(662,650,l),
(689,660,o),
(715,665,o),
(742,670,c),
(746,682,o),
(746,693,o),
(744,705,c),
(707,703,o),
(645,700,o),
(607,700,cs),
(570,700,o),
(521,703,o),
(485,705,c),
(479,693,o),
(478,682,o),
(480,670,c),
(557,650,l),
(557,395,l),
(222,395,l),
(222,650,l),
(249,660,o),
(275,665,o),
(302,670,c),
(306,682,o),
(306,693,o),
(304,705,c),
(267,703,o),
(205,700,o),
(167,700,cs),
(130,700,o),
(81,703,o),
(45,705,c),
(39,693,o),
(38,682,o),
(40,670,c),
(117,650,l),
(117,50,l),
(92,40,o),
(65,35,o),
(37,30,c),
(33,18,o),
(33,7,o),
(35,-5,c),
(72,-3,o),
(134,0,o),
(172,0,cs),
(209,0,o),
(258,-3,o),
(294,-5,c),
(300,7,o),
(301,18,o),
(299,30,c),
(222,50,l),
(222,340,l),
(557,340,l),
(557,50,l),
(531,40,o),
(505,34,o),
(477,30,c),
(473,18,o),
(473,7,o),
(475,-5,c),
(512,-3,o),
(574,0,o),
(612,0,cs),
(649,0,o),
(698,-3,o),
(734,-5,c),
(740,7,o),
(741,18,o),
(739,30,c),
(662,50,l)
);
}
);
width = 779;
}
);
unicode = 72;
},
{
glyphname = I;
kernLeft = _KERN_I_2ND;
kernRight = _KERN_I_1ST;
lastChange = "2023-10-27 11:47:12 +0000";
layers = (
{
anchors = (
{
name = bottom;
pos = (170,0);
},
{
name = ogonek;
pos = (305,10);
},
{
name = top;
pos = (169,706);
},
{
name = topleft;
pos = (20,705);
}
);
background = {
anchors = (
{
name = top;
pos = (169,706);
}
);
shapes = (
{
closed = 1;
nodes = (
(222,650,l),
(249,660,o),
(275,665,o),
(302,670,c),
(306,682,o),
(306,693,o),
(304,705,c),
(267,703,o),
(205,700,o),
(167,700,cs),
(130,700,o),
(81,703,o),
(45,705,c),
(39,693,o),
(38,682,o),
(40,670,c),
(117,650,l),
(117,50,l),
(92,38,o),
(65,34,o),
(37,30,c),
(33,18,o),
(33,7,o),
(35,-5,c),
(72,-3,o),
(134,0,o),
(172,0,cs),
(209,0,o),
(258,-3,o),
(294,-5,c),
(300,7,o),
(301,18,o),
(299,30,c),
(222,50,l)
);
}
);
};
layerId = "E67231B9-FA09-451D-8B80-B70CA73DDE32";
shapes = (
{
closed = 1;
nodes = (
(222,650,l),
(249,660,o),
(275,665,o),
(302,670,c),
(306,682,o),
(306,693,o),
(304,705,c),
(267,703,o),
(205,700,o),
(167,700,cs),
(130,700,o),
(81,703,o),
(45,705,c),
(39,693,o),
(38,682,o),
(40,670,c),
(117,650,l),
(117,50,l),
(92,38,o),
(65,34,o),
(37,30,c),
(33,18,o),
(33,7,o),
(35,-5,c),
(72,-3,o),
(134,0,o),
(172,0,cs),
(209,0,o),
(258,-3,o),
(294,-5,c),
(300,7,o),
(301,18,o),
(299,30,c),
(222,50,l)
);
}
);
width = 339;
}
);
unicode = 73;
},
{
glyphname = Iacute;
kernLeft = _KERN_I_2ND;
kernRight = _KERN_I_1ST;
lastChange = "2023-10-27 11:43:03 +0000";
layers = (
{
associatedMasterId = "E67231B9-FA09-451D-8B80-B70CA73DDE32";
layerId = "DA51D0F6-E92C-4977-9AEE-C0B7DC2D6803";
name = img;
width = 339;
},
{
background = {
anchors = (
{
name = top;
pos = (169,706);
}
);
shapes = (
{
closed = 1;
nodes = (
(222,650,l),
(249,660,o),
(275,665,o),
(302,670,c),
(306,682,o),
(306,693,o),
(304,705,c),
(267,703,o),
(205,700,o),
(167,700,cs),
(130,700,o),
(81,703,o),
(45,705,c),
(39,693,o),
(38,682,o),
(40,670,c),
(117,650,l),
(117,50,l),
(92,38,o),
(65,34,o),
(37,30,c),
(33,18,o),
(33,7,o),
(35,-5,c),
(72,-3,o),
(134,0,o),
(172,0,cs),
(209,0,o),
(258,-3,o),
(294,-5,c),
(300,7,o),
(301,18,o),
(299,30,c),
(222,50,l)
);
},
{
closed = 1;
nodes = (
(296,843,l),
(288,872,o),
(268,902,o),
(242,919,c),
(104,775,l),
(110,764,o),
(115,757,o),
(127,746,c)
);
}
);
};
layerId = "E67231B9-FA09-451D-8B80-B70CA73DDE32";
shapes = (
{
ref = I;
},
{
pos = (65,-50);
ref = acutecomb.case;
}
);
width = 339;
}
);
unicode = 205;
},
{
glyphname = Icircumflex;
kernLeft = _KERN_I_2ND;
kernRight = _KERN_I_1ST;
lastChange = "2023-10-27 11:43:03 +0000";
layers = (
{
associatedMasterId = "E67231B9-FA09-451D-8B80-B70CA73DDE32";
layerId = "DA51D0F6-E92C-4977-9AEE-C0B7DC2D6803";
name = img;
width = 339;
},
{
background = {
anchors = (
{
name = top;
pos = (169,706);
}
);
shapes = (
{
closed = 1;
nodes = (
(222,650,l),
(249,660,o),
(275,665,o),
(302,670,c),
(306,682,o),
(306,693,o),
(304,705,c),
(267,703,o),
(205,700,o),
(167,700,cs),
(130,700,o),
(81,703,o),
(45,705,c),
(39,693,o),
(38,682,o),
(40,670,c),
(117,650,l),
(117,50,l),
(92,38,o),
(65,34,o),
(37,30,c),
(33,18,o),
(33,7,o),
(35,-5,c),
(72,-3,o),
(134,0,o),
(172,0,cs),
(209,0,o),
(258,-3,o),
(294,-5,c),
(300,7,o),
(301,18,o),
(299,30,c),
(222,50,l)
);
},
{
closed = 1;
nodes = (
(313,760,o),
(326,767,o),
(335,779,c),
(213,917,l),
(200,919,o),
(190,920,o),
(181,920,cs),
(171,920,o),
(161,919,o),
(150,917,c),
(25,779,l),
(34,767,o),
(47,759,o),
(57,755,c),
(97,783,o),
(140,817,o),
(177,853,c),
(215,819,o),
(254,783,o),
(297,755,c)
);
}
);
};
layerId = "E67231B9-FA09-451D-8B80-B70CA73DDE32";
shapes = (
{
ref = I;
},
{
pos = (7,-50);
ref = circumflexcomb.case;
}
);
width = 339;
}
);
unicode = 206;
},
{
glyphname = Idieresis;
kernLeft = _KERN_I_2ND;
kernRight = _KERN_I_1ST;
lastChange = "2023-10-27 11:43:03 +0000";
layers = (
{
associatedMasterId = "E67231B9-FA09-451D-8B80-B70CA73DDE32";
layerId = "DA51D0F6-E92C-4977-9AEE-C0B7DC2D6803";
name = img;
width = 339;
},
{
background = {
anchors = (
{
name = top;
pos = (169,706);
}
);
shapes = (
{
closed = 1;
nodes = (
(222,650,l),
(249,660,o),
(275,665,o),
(302,670,c),
(306,682,o),
(306,693,o),
(304,705,c),
(267,703,o),
(205,700,o),
(167,700,cs),
(130,700,o),
(81,703,o),
(45,705,c),
(39,693,o),
(38,682,o),
(40,670,c),
(117,650,l),
(117,50,l),
(92,38,o),
(65,34,o),
(37,30,c),
(33,18,o),
(33,7,o),
(35,-5,c),
(72,-3,o),
(134,0,o),
(172,0,cs),
(209,0,o),
(258,-3,o),
(294,-5,c),
(300,7,o),
(301,18,o),
(299,30,c),
(222,50,l)
);
},
{
closed = 1;
nodes = (
(15,817,o),
(39,778,o),
(73,778,cs),
(103,778,o),
(138,810,o),
(138,835,cs),
(138,859,o),
(115,898,o),
(80,898,cs),
(51,898,o),
(15,866,o),
(15,842,cs)
);
},
{
closed = 1;
nodes = (
(204,817,o),
(228,778,o),
(262,778,cs),
(292,778,o),
(327,810,o),
(327,835,cs),
(327,859,o),
(304,898,o),
(269,898,cs),
(240,898,o),
(204,866,o),
(204,842,cs)
);
}
);
};
layerId = "E67231B9-FA09-451D-8B80-B70CA73DDE32";
shapes = (
{
ref = I;
},
{
pos = (-10,-50);
ref = dieresiscomb.case;
}
);
width = 339;
}
);
unicode = 207;
},
{
glyphname = Igrave;
kernLeft = _KERN_I_2ND;
kernRight = _KERN_I_1ST;
lastChange = "2023-10-27 11:43:03 +0000";
layers = (
{
associatedMasterId = "E67231B9-FA09-451D-8B80-B70CA73DDE32";
layerId = "DA51D0F6-E92C-4977-9AEE-C0B7DC2D6803";
name = img;
width = 339;
},
{
background = {
anchors = (
{
name = top;
pos = (169,706);
}
);
shapes = (
{
closed = 1;
nodes = (
(222,650,l),
(249,660,o),
(275,665,o),
(302,670,c),
(306,682,o),
(306,693,o),
(304,705,c),
(267,703,o),
(205,700,o),
(167,700,cs),
(130,700,o),
(81,703,o),
(45,705,c),
(39,693,o),
(38,682,o),
(40,670,c),
(117,650,l),
(117,50,l),
(92,38,o),
(65,34,o),
(37,30,c),
(33,18,o),
(33,7,o),
(35,-5,c),
(72,-3,o),
(134,0,o),
(172,0,cs),
(209,0,o),
(258,-3,o),
(294,-5,c),
(300,7,o),
(301,18,o),
(299,30,c),
(222,50,l)
);
},
{
closed = 1;
nodes = (
(186,746,l),
(198,757,o),
(203,764,o),
(209,775,c),
(71,919,l),
(45,902,o),
(25,872,o),
(17,843,c)
);
}
);
};
layerId = "E67231B9-FA09-451D-8B80-B70CA73DDE32";
shapes = (
{
ref = I;
},
{
pos = (18,-50);
ref = gravecomb.case;
}
);
width = 339;
}
);
unicode = 204;
},
{
glyphname = J;
lastChange = "2023-10-27 11:47:12 +0000";
layers = (
{
anchors = (
{
name = bottom;
pos = (162,0);
},
{
name = top;
pos = (162,705);
}
);
background = {
shapes = (
{
closed = 1;
nodes = (
(111,139,ls),
(111,32,o),
(70,-40,o),
(-9,-81,c),
(-9,-91,o),
(2,-105,o),
(11,-106,c),
(148,-53,o),
(216,22,o),
(216,139,cs),
(216,650,l),
(243,662,o),
(269,666,o),
(296,670,c),
(300,682,o),
(300,693,o),
(298,705,c),
(261,703,o),
(199,700,o),
(161,700,cs),
(124,700,o),
(75,703,o),
(39,705,c),
(33,693,o),
(32,682,o),
(34,670,c),
(111,650,l)
);
}
);
};
layerId = "E67231B9-FA09-451D-8B80-B70CA73DDE32";
shapes = (
{
closed = 1;
nodes = (
(111,139,ls),
(111,32,o),
(70,-40,o),
(-9,-81,c),
(-9,-91,o),
(2,-105,o),
(11,-106,c),
(148,-53,o),
(216,22,o),
(216,139,cs),
(216,650,l),
(243,662,o),
(269,666,o),
(296,670,c),
(300,682,o),
(300,693,o),
(298,705,c),
(261,703,o),
(199,700,o),
(161,700,cs),
(124,700,o),
(75,703,o),
(39,705,c),
(33,693,o),
(32,682,o),
(34,670,c),
(111,650,l)
);
}
);
width = 324;
}
);
unicode = 74;
},
{
glyphname = K;
kernLeft = _KERN_I_2ND;
lastChange = "2023-10-27 11:45:20 +0000";
layers = (
{
anchors = (
{
name = bottom;
pos = (333,0);
},
{
name = top;
pos = (333,705);
}
);
background = {
shapes = (
{
closed = 1;
nodes = (
(542,628,l),
(569,658,o),
(624,668,o),
(646,670,c),
(650,682,o),
(650,693,o),
(648,705,c),
(611,703,o),
(582,700,o),
(544,700,cs),
(507,700,o),
(456,703,o),
(420,705,c),
(414,693,o),
(413,682,o),
(415,670,c),
(444,666,o),
(471,662,o),
(492,650,c),
(260,365,l),
(222,365,l),
(222,650,l),
(246,661,o),
(273,667,o),
(302,670,c),
(306,682,o),
(306,693,o),
(304,705,c),
(267,703,o),
(205,700,o),
(167,700,cs),
(130,700,o),
(81,703,o),
(45,705,c),
(39,693,o),
(38,682,o),
(40,670,c),
(117,650,l),
(117,50,l),
(90,40,o),
(64,34,o),
(37,30,c),
(33,18,o),
(33,7,o),
(35,-5,c),
(72,-3,o),
(134,0,o),
(172,0,cs),
(209,0,o),
(258,-3,o),
(294,-5,c),
(300,7,o),
(301,18,o),
(299,30,c),
(222,50,l),
(222,310,l),
(288,310,l),
(480,50,l),
(455,37,o),
(428,33,o),
(400,30,c),
(396,18,o),
(396,7,o),
(398,-5,c),
(435,-3,o),
(512,0,o),
(550,0,cs),
(587,0,o),
(636,-3,o),
(672,-5,c),
(678,7,o),
(679,18,o),
(677,30,c),
(652,32,o),
(594,44,o),
(581,62,cs),
(340,389,l)
);
}
);
};
layerId = "E67231B9-FA09-451D-8B80-B70CA73DDE32";
shapes = (
{
closed = 1;
nodes = (
(542,628,l),
(569,658,o),
(624,668,o),
(646,670,c),
(650,682,o),
(650,693,o),
(648,705,c),
(611,703,o),
(582,700,o),
(544,700,cs),
(507,700,o),
(456,703,o),
(420,705,c),
(414,693,o),
(413,682,o),
(415,670,c),
(444,666,o),
(471,662,o),
(492,650,c),
(260,365,l),
(222,365,l),
(222,650,l),
(246,661,o),
(273,667,o),
(302,670,c),
(306,682,o),
(306,693,o),
(304,705,c),
(267,703,o),
(205,700,o),
(167,700,cs),
(130,700,o),
(81,703,o),
(45,705,c),
(39,693,o),
(38,682,o),
(40,670,c),
(117,650,l),
(117,50,l),
(90,40,o),
(64,34,o),
(37,30,c),
(33,18,o),
(33,7,o),
(35,-5,c),
(72,-3,o),
(134,0,o),
(172,0,cs),
(209,0,o),
(258,-3,o),
(294,-5,c),
(300,7,o),
(301,18,o),
(299,30,c),
(222,50,l),
(222,310,l),
(288,310,l),
(480,50,l),
(455,37,o),
(428,33,o),
(400,30,c),
(396,18,o),
(396,7,o),
(398,-5,c),
(435,-3,o),
(512,0,o),
(550,0,cs),
(587,0,o),
(636,-3,o),
(672,-5,c),
(678,7,o),
(679,18,o),
(677,30,c),
(652,32,o),
(594,44,o),
(581,62,cs),
(340,389,l)
);
}
);
width = 666;
}
);
unicode = 75;
},
{
glyphname = L;
kernLeft = _KERN_I_2ND;
lastChange = "2023-10-27 11:45:11 +0000";
layers = (
{
anchors = (
{
name = bottom;
pos = (274,0);
},
{
name = center;
pos = (274,353);
},
{
name = top;
pos = (173,705);
},
{
name = topright;
pos = (528,705);
}
);
background = {
shapes = (
{
closed = 1;
nodes = (
(222,55,l),
(222,650,l),
(249,664,o),
(275,667,o),
(302,670,c),
(306,682,o),
(306,693,o),
(304,705,c),
(267,703,o),
(205,700,o),
(167,700,cs),
(130,700,o),
(81,703,o),
(45,705,c),
(39,693,o),
(38,682,o),
(40,670,c),
(117,650,l),
(117,50,l),
(97,41,o),
(70,36,o),
(41,30,c),
(37,18,o),
(37,7,o),
(39,-5,c),
(76,-3,o),
(134,0,o),
(172,0,cs),
(535,0,l),
(535,58,o),
(533,117,o),
(525,175,c),
(512,180,o),
(505,180,o),
(489,178,c),
(462,55,l)
);
}
);
};
layerId = "E67231B9-FA09-451D-8B80-B70CA73DDE32";
shapes = (
{
closed = 1;
nodes = (
(222,55,l),
(222,650,l),
(249,664,o),
(275,667,o),
(302,670,c),
(306,682,o),
(306,693,o),
(304,705,c),
(267,703,o),
(205,700,o),
(167,700,cs),
(130,700,o),
(81,703,o),
(45,705,c),
(39,693,o),
(38,682,o),
(40,670,c),
(117,650,l),
(117,50,l),
(97,41,o),
(70,36,o),
(41,30,c),
(37,18,o),
(37,7,o),
(39,-5,c),
(76,-3,o),
(134,0,o),
(172,0,cs),
(535,0,l),
(535,58,o),
(533,117,o),
(525,175,c),
(512,180,o),
(505,180,o),
(489,178,c),
(462,55,l)
);
}
);
width = 548;
}
);
unicode = 76;
},
{
glyphname = M;
lastChange = "2023-10-27 11:47:12 +0000";
layers = (
{
anchors = (
{
name = bottom;
pos = (459,0);
},
{
name = top;
pos = (459,705);
}
);
background = {
shapes = (
{
closed = 1;
nodes = (
(494,265,ls),
(479,226,o),
(468,189,o),
(457,147,c),
(455,147,l),
(445,188,o),
(436,224,o),
(419,265,c),
(256,680,l),
(256,700,l),
(191,700,ls),
(154,700,o),
(105,703,o),
(69,705,c),
(63,693,o),
(62,682,o),
(64,670,c),
(141,650,l),
(101,50,l),
(76,40,o),
(50,34,o),
(23,30,c),
(19,18,o),
(19,7,o),
(21,-5,c),
(58,-3,o),
(90,0,o),
(128,0,cs),
(165,0,o),
(197,-4,o),
(233,-6,c),
(239,6,o),
(240,17,o),
(238,29,c),
(161,49,l),
(186,487,l),
(189,590,l),
(192,590,l),
(203,552,o),
(213,518,o),
(225,488,cs),
(422,21,l),
(434,20,o),
(446,24,o),
(458,31,c),
(639,488,ls),
(652,522,o),
(662,556,o),
(671,590,c),
(674,590,l),
(673,575,o),
(673,559,o),
(673,544,cs),
(673,525,o),
(673,507,o),
(675,488,cs),
(717,50,l),
(696,37,o),
(666,35,o),
(637,30,c),
(633,18,o),
(633,7,o),
(635,-5,c),
(672,-3,o),
(734,0,o),
(772,0,cs),
(809,0,o),
(858,-3,o),
(894,-5,c),
(900,7,o),
(901,18,o),
(899,30,c),
(822,50,l),
(772,650,l),
(796,660,o),
(823,665,o),
(852,670,c),
(856,682,o),
(856,693,o),
(854,705,c),
(817,703,o),
(755,700,o),
(717,700,cs),
(657,700,l),
(657,680,l)
);
}
);
};
guides = (
{
pos = (0,570);
},
{
pos = (0,590);
},
{
pos = (0,488);
}
);
layerId = "E67231B9-FA09-451D-8B80-B70CA73DDE32";
shapes = (
{
closed = 1;
nodes = (
(494,265,ls),
(479,226,o),
(468,189,o),
(457,147,c),
(455,147,l),
(445,188,o),
(436,224,o),
(419,265,c),
(256,680,l),
(256,700,l),
(191,700,ls),
(154,700,o),
(105,703,o),
(69,705,c),
(63,693,o),
(62,682,o),
(64,670,c),
(141,650,l),
(101,50,l),
(76,40,o),
(50,34,o),
(23,30,c),
(19,18,o),
(19,7,o),
(21,-5,c),
(58,-3,o),
(90,0,o),
(128,0,cs),
(165,0,o),
(197,-4,o),
(233,-6,c),
(239,6,o),
(240,17,o),
(238,29,c),
(161,49,l),
(186,487,l),
(189,590,l),
(192,590,l),
(203,552,o),
(213,518,o),
(225,488,cs),
(422,21,l),
(434,20,o),
(446,24,o),
(458,31,c),
(639,488,ls),
(652,522,o),
(662,556,o),
(671,590,c),
(674,590,l),
(673,575,o),
(673,559,o),
(673,544,cs),
(673,525,o),
(673,507,o),
(675,488,cs),
(717,50,l),
(696,37,o),
(666,35,o),
(637,30,c),
(633,18,o),
(633,7,o),
(635,-5,c),
(672,-3,o),
(734,0,o),
(772,0,cs),
(809,0,o),
(858,-3,o),
(894,-5,c),
(900,7,o),
(901,18,o),
(899,30,c),
(822,50,l),
(772,650,l),
(796,660,o),
(823,665,o),
(852,670,c),
(856,682,o),
(856,693,o),
(854,705,c),
(817,703,o),
(755,700,o),
(717,700,cs),
(657,700,l),
(657,680,l)
);
}
);
width = 918;
}
);
unicode = 77;
},
{
glyphname = N;
kernLeft = _KERN_I_2ND;
kernRight = _KERN_N_1ST;
lastChange = "2023-10-27 11:47:12 +0000";
layers = (
{
anchors = (
{
name = bottom;
pos = (379,0);
},
{
name = top;
pos = (373,705);
}
);
background = {
anchors = (
{
name = top;
pos = (373,705);
}
);
shapes = (
{
closed = 1;
nodes = (
(206,700,l),
(166,700,ls),
(129,700,o),
(80,703,o),
(44,705,c),
(38,693,o),
(37,682,o),
(39,670,c),
(116,650,l),
(116,50,l),
(91,41,o),
(65,34,o),
(38,30,c),
(34,18,o),
(34,7,o),
(36,-5,c),
(73,-3,o),
(100,0,o),
(138,0,cs),
(175,0,o),
(207,-4,o),
(243,-6,c),
(249,6,o),
(250,17,o),
(248,29,c),
(171,50,l),
(171,472,ls),
(171,501,o),
(171,539,o),
(166,570,c),
(169,570,l),
(189,535,o),
(206,503,o),
(228,475,cs),
(626,-30,l),
(634,-27,o),
(641,-23,o),
(646,-20,c),
(646,650,l),
(673,660,o),
(699,665,o),
(726,670,c),
(730,682,o),
(730,693,o),
(728,705,c),
(691,703,o),
(656,700,o),
(618,700,cs),
(581,700,o),
(554,703,o),
(518,705,c),
(512,693,o),
(511,682,o),
(513,670,c),
(590,650,l),
(591,249,ls),
(591,211,o),
(595,185,o),
(597,153,c),
(594,153,l),
(578,188,o),
(562,222,o),
(540,251,cs),
(231,648,l)
);
}
);
};
layerId = "E67231B9-FA09-451D-8B80-B70CA73DDE32";
shapes = (
{
closed = 1;
nodes = (
(206,700,l),
(166,700,ls),
(129,700,o),
(80,703,o),
(44,705,c),
(38,693,o),
(37,682,o),
(39,670,c),
(116,650,l),
(116,50,l),
(91,41,o),
(65,34,o),
(38,30,c),
(34,18,o),
(34,7,o),
(36,-5,c),
(73,-3,o),
(100,0,o),
(138,0,cs),
(175,0,o),
(207,-4,o),
(243,-6,c),
(249,6,o),
(250,17,o),
(248,29,c),
(171,50,l),
(171,472,ls),
(171,501,o),
(171,539,o),
(166,570,c),
(169,570,l),
(189,535,o),
(206,503,o),
(228,475,cs),
(626,-30,l),
(634,-27,o),
(641,-23,o),
(646,-20,c),
(646,650,l),
(673,660,o),
(699,665,o),
(726,670,c),
(730,682,o),
(730,693,o),
(728,705,c),
(691,703,o),
(656,700,o),
(618,700,cs),
(581,700,o),
(554,703,o),
(518,705,c),
(512,693,o),
(511,682,o),
(513,670,c),
(590,650,l),
(591,249,ls),
(591,211,o),
(595,185,o),
(597,153,c),
(594,153,l),
(578,188,o),
(562,222,o),
(540,251,cs),
(231,648,l)
);
}
);
width = 757;
}
);
unicode = 78;
},
{
glyphname = Ntilde;
kernLeft = _KERN_I_2ND;
kernRight = _KERN_N_1ST;
lastChange = "2023-10-27 11:44:05 +0000";
layers = (
{
associatedMasterId = "E67231B9-FA09-451D-8B80-B70CA73DDE32";
layerId = "DA51D0F6-E92C-4977-9AEE-C0B7DC2D6803";
name = img;
width = 757;
},
{
background = {
anchors = (
{
name = top;
pos = (373,705);
}
);
shapes = (
{
closed = 1;
nodes = (
(206,700,l),
(166,700,ls),
(129,700,o),
(80,703,o),
(44,705,c),
(38,693,o),
(37,682,o),
(39,670,c),
(116,650,l),
(116,50,l),
(91,41,o),
(65,34,o),
(38,30,c),
(34,18,o),
(34,7,o),
(36,-5,c),
(73,-3,o),
(100,0,o),
(138,0,cs),
(175,0,o),
(207,-4,o),
(243,-6,c),
(249,6,o),
(250,17,o),
(248,29,c),
(171,50,l),
(171,472,ls),
(171,501,o),
(171,539,o),
(166,570,c),
(169,570,l),
(189,535,o),
(206,503,o),
(228,475,cs),
(626,-30,l),
(634,-27,o),
(641,-23,o),
(646,-20,c),
(646,650,l),
(673,660,o),
(699,665,o),
(726,670,c),
(730,682,o),
(730,693,o),
(728,705,c),
(691,703,o),
(656,700,o),
(618,700,cs),
(581,700,o),
(554,703,o),
(518,705,c),
(512,693,o),
(511,682,o),
(513,670,c),
(590,650,l),
(591,249,ls),
(591,211,o),
(595,185,o),
(597,153,c),
(594,153,l),
(578,188,o),
(562,222,o),
(540,251,cs),
(231,648,l)
);
},
{
closed = 1;
nodes = (
(278,812,o),
(300,825,o),
(330,822,c),
(375,819,o),
(395,783,o),
(457,786,cs),
(500,788,o),
(522,820,o),
(535,866,c),
(526,874,o),
(516,883,o),
(506,883,c),
(491,860,o),
(467,852,o),
(440,857,cs),
(397,865,o),
(380,896,o),
(330,893,c),
(295,892,o),
(263,868,o),
(235,817,c),
(242,809,o),
(250,796,o),
(264,791,c)
);
}
);
};
layerId = "E67231B9-FA09-451D-8B80-B70CA73DDE32";
shapes = (
{
ref = N;
},
{
pos = (204,-51);
ref = tildecomb.case;
}
);
width = 757;
}
);
unicode = 209;
},
{
glyphname = O;
kernLeft = _KERN_O_2ND;
kernRight = _KERN_O_1ST;
lastChange = "2023-10-27 11:47:12 +0000";
layers = (
{
anchors = (
{
name = bottom;
pos = (377,0);
},
{
name = center;
pos = (377,353);
},
{
name = ogonek;
pos = (678,10);
},
{
name = top;
pos = (373,705);
},
{
name = topleft;
pos = (20,705);
},
{
name = topright;
pos = (733,705);
}
);
background = {
anchors = (
{
name = top;
pos = (373,705);
}
);
shapes = (
{
closed = 1;
nodes = (
(44,130,o),
(172,-20,o),
(375,-20,cs),
(578,-20,o),
(709,130,o),
(709,351,cs),
(709,565,o),
(578,720,o),
(375,720,cs),
(172,720,o),
(44,565,o),
(44,351,cs)
);
},
{
closed = 1;
nodes = (
(594,180,o),
(530,26,o),
(386,26,cs),
(233,26,o),
(159,181,o),
(159,342,cs),
(159,513,o),
(218,674,o),
(372,674,cs),
(517,674,o),
(594,515,o),
(594,358,cs)
);
}
);
};
layerId = "E67231B9-FA09-451D-8B80-B70CA73DDE32";
shapes = (
{
closed = 1;
nodes = (
(44,130,o),
(172,-20,o),
(375,-20,cs),
(578,-20,o),
(709,130,o),
(709,351,cs),
(709,565,o),
(578,720,o),
(375,720,cs),
(172,720,o),
(44,565,o),
(44,351,cs)
);
},
{
closed = 1;
nodes = (
(594,180,o),
(530,26,o),
(386,26,cs),
(233,26,o),
(159,181,o),
(159,342,cs),
(159,513,o),
(218,674,o),
(372,674,cs),
(517,674,o),
(594,515,o),
(594,358,cs)
);
}
);
width = 753;
}
);
unicode = 79;
},
{
glyphname = Oacute;
kernLeft = _KERN_O_2ND;
kernRight = _KERN_O_1ST;
lastChange = "2023-10-27 11:43:03 +0000";
layers = (
{
associatedMasterId = "E67231B9-FA09-451D-8B80-B70CA73DDE32";
layerId = "DA51D0F6-E92C-4977-9AEE-C0B7DC2D6803";
name = img;
width = 743;
},
{
background = {
anchors = (
{
name = top;
pos = (368,705);
}
);
shapes = (
{
closed = 1;
nodes = (
(39,130,o),
(167,-20,o),
(370,-20,cs),
(573,-20,o),
(704,130,o),
(704,351,cs),
(704,565,o),
(573,720,o),
(370,720,cs),
(167,720,o),
(39,565,o),
(39,351,cs)
);
},
{
closed = 1;
nodes = (
(589,180,o),
(525,26,o),
(381,26,cs),
(228,26,o),
(154,181,o),
(154,342,cs),
(154,513,o),
(213,674,o),
(367,674,cs),
(512,674,o),
(589,515,o),
(589,358,cs)
);
},
{
closed = 1;
nodes = (
(495,842,l),
(487,871,o),
(467,901,o),
(441,918,c),
(303,774,l),
(309,763,o),
(314,756,o),
(326,745,c)
);
}
);
};
layerId = "E67231B9-FA09-451D-8B80-B70CA73DDE32";
shapes = (
{
ref = O;
},
{
pos = (269,-51);
ref = acutecomb.case;
}
);
width = 753;
}
);
unicode = 211;
},
{
glyphname = Ocircumflex;
kernLeft = _KERN_O_2ND;
kernRight = _KERN_O_1ST;
lastChange = "2023-10-27 11:43:03 +0000";
layers = (
{
associatedMasterId = "E67231B9-FA09-451D-8B80-B70CA73DDE32";
layerId = "DA51D0F6-E92C-4977-9AEE-C0B7DC2D6803";
name = img;
width = 743;
},
{
background = {
anchors = (
{
name = top;
pos = (368,705);
}
);
shapes = (
{
closed = 1;
nodes = (
(39,130,o),
(167,-20,o),
(370,-20,cs),
(573,-20,o),
(704,130,o),
(704,351,cs),
(704,565,o),
(573,720,o),
(370,720,cs),
(167,720,o),
(39,565,o),
(39,351,cs)
);
},
{
closed = 1;
nodes = (
(589,180,o),
(525,26,o),
(381,26,cs),
(228,26,o),
(154,181,o),
(154,342,cs),
(154,513,o),
(213,674,o),
(367,674,cs),
(512,674,o),
(589,515,o),
(589,358,cs)
);
},
{
closed = 1;
nodes = (
(512,759,o),
(525,766,o),
(534,778,c),
(412,916,l),
(399,918,o),
(389,919,o),
(380,919,cs),
(370,919,o),
(360,918,o),
(349,916,c),
(224,778,l),
(233,766,o),
(246,758,o),
(256,754,c),
(296,782,o),
(339,816,o),
(376,852,c),
(414,818,o),
(453,782,o),
(496,754,c)
);
}
);
};
layerId = "E67231B9-FA09-451D-8B80-B70CA73DDE32";
shapes = (
{
ref = O;
},
{
pos = (211,-51);
ref = circumflexcomb.case;
}
);
width = 753;
}
);
unicode = 212;
},
{
glyphname = Odieresis;
kernLeft = _KERN_O_2ND;
kernRight = _KERN_O_1ST;
lastChange = "2023-10-27 11:43:03 +0000";
layers = (
{
associatedMasterId = "E67231B9-FA09-451D-8B80-B70CA73DDE32";
layerId = "DA51D0F6-E92C-4977-9AEE-C0B7DC2D6803";
name = img;
width = 743;
},
{
background = {
anchors = (
{
name = top;
pos = (368,705);
}
);
shapes = (
{
closed = 1;
nodes = (
(39,130,o),
(167,-20,o),
(370,-20,cs),
(573,-20,o),
(704,130,o),
(704,351,cs),
(704,565,o),
(573,720,o),
(370,720,cs),
(167,720,o),
(39,565,o),
(39,351,cs)
);
},
{
closed = 1;
nodes = (
(589,180,o),
(525,26,o),
(381,26,cs),
(228,26,o),
(154,181,o),
(154,342,cs),
(154,513,o),
(213,674,o),
(367,674,cs),
(512,674,o),
(589,515,o),
(589,358,cs)
);
},
{
closed = 1;
nodes = (
(214,816,o),
(238,777,o),
(272,777,cs),
(302,777,o),
(337,809,o),
(337,834,cs),
(337,858,o),
(314,897,o),
(279,897,cs),
(250,897,o),
(214,865,o),
(214,841,cs)
);
},
{
closed = 1;
nodes = (
(403,816,o),
(427,777,o),
(461,777,cs),
(491,777,o),
(526,809,o),
(526,834,cs),
(526,858,o),
(503,897,o),
(468,897,cs),
(439,897,o),
(403,865,o),
(403,841,cs)
);
}
);
};
layerId = "E67231B9-FA09-451D-8B80-B70CA73DDE32";
shapes = (
{
ref = O;
},
{
pos = (194,-51);
ref = dieresiscomb.case;
}
);
width = 753;
}
);
unicode = 214;
},
{
glyphname = Ograve;
kernLeft = _KERN_O_2ND;
kernRight = _KERN_O_1ST;
lastChange = "2023-10-27 11:43:03 +0000";
layers = (
{
associatedMasterId = "E67231B9-FA09-451D-8B80-B70CA73DDE32";
layerId = "DA51D0F6-E92C-4977-9AEE-C0B7DC2D6803";
name = img;
width = 743;
},
{
background = {
anchors = (
{
name = top;
pos = (368,705);
}
);
shapes = (
{
closed = 1;
nodes = (
(39,130,o),
(167,-20,o),
(370,-20,cs),
(573,-20,o),
(704,130,o),
(704,351,cs),
(704,565,o),
(573,720,o),
(370,720,cs),
(167,720,o),
(39,565,o),
(39,351,cs)
);
},
{
closed = 1;
nodes = (
(589,180,o),
(525,26,o),
(381,26,cs),
(228,26,o),
(154,181,o),
(154,342,cs),
(154,513,o),
(213,674,o),
(367,674,cs),
(512,674,o),
(589,515,o),
(589,358,cs)
);
},
{
closed = 1;
nodes = (
(395,745,l),
(407,756,o),
(412,763,o),
(418,774,c),
(280,918,l),
(254,901,o),
(234,871,o),
(226,842,c)
);
}
);
};
layerId = "E67231B9-FA09-451D-8B80-B70CA73DDE32";
shapes = (
{
ref = O;
},
{
pos = (222,-51);
ref = gravecomb.case;
}
);
width = 753;
}
);
unicode = 210;
},
{
glyphname = Oslash;
kernLeft = _KERN_O_2ND;
kernRight = _KERN_O_1ST;
lastChange = "2023-10-27 11:47:12 +0000";
layers = (
{
anchors = (
{
name = bottom;
pos = (372,0);
},
{
name = top;
pos = (372,705);
}
);
background = {
shapes = (
{
closed = 1;
nodes = (
(40,213,o),
(88,111,o),
(167,47,c),
(118,-40,l),
(135,-47,o),
(151,-50,o),
(179,-50,c),
(215,16,l),
(259,-7,o),
(311,-20,o),
(370,-20,cs),
(570,-20,o),
(705,130,o),
(705,351,cs),
(705,489,o),
(656,583,o),
(579,649,c),
(641,755,l),
(631,764,o),
(611,767,o),
(582,765,c),
(532,681,l),
(486,707,o),
(430,720,o),
(370,720,cs),
(170,720,o),
(40,565,o),
(40,351,cs)
);
},
{
closed = 1;
nodes = (
(155,513,o),
(217,674,o),
(367,674,cs),
(417,674,o),
(460,656,o),
(493,623,c),
(214,120,l),
(176,179,o),
(155,260,o),
(155,342,cs)
);
},
{
closed = 1;
nodes = (
(590,180,o),
(522,26,o),
(381,26,cs),
(329,26,o),
(288,44,o),
(254,74,c),
(532,577,l),
(568,517,o),
(590,436,o),
(590,358,cs)
);
}
);
};
layerId = "E67231B9-FA09-451D-8B80-B70CA73DDE32";
shapes = (
{
closed = 1;
nodes = (
(40,213,o),
(88,111,o),
(167,47,c),
(118,-40,l),
(135,-47,o),
(151,-50,o),
(179,-50,c),
(215,16,l),
(259,-7,o),
(311,-20,o),
(370,-20,cs),
(570,-20,o),
(705,130,o),
(705,351,cs),
(705,489,o),
(656,583,o),
(579,649,c),
(641,755,l),
(631,764,o),
(611,767,o),
(582,765,c),
(532,681,l),
(486,707,o),
(430,720,o),
(370,720,cs),
(170,720,o),
(40,565,o),
(40,351,cs)
);
},
{
closed = 1;
nodes = (
(155,513,o),
(217,674,o),
(367,674,cs),
(417,674,o),
(460,656,o),
(493,623,c),
(214,120,l),
(176,179,o),
(155,260,o),
(155,342,cs)
);
},
{
closed = 1;
nodes = (
(590,180,o),
(522,26,o),
(381,26,cs),
(329,26,o),
(288,44,o),
(254,74,c),
(532,577,l),
(568,517,o),
(590,436,o),
(590,358,cs)
);
}
);
width = 743;
}
);
unicode = 216;
},
{
glyphname = Otilde;
kernLeft = _KERN_O_2ND;
kernRight = _KERN_O_1ST;
lastChange = "2023-10-27 11:44:05 +0000";
layers = (
{
associatedMasterId = "E67231B9-FA09-451D-8B80-B70CA73DDE32";
layerId = "DA51D0F6-E92C-4977-9AEE-C0B7DC2D6803";
name = img;
width = 743;
},
{
background = {
anchors = (
{
name = top;
pos = (368,705);
}
);
shapes = (
{
closed = 1;
nodes = (
(39,130,o),
(167,-20,o),
(370,-20,cs),
(573,-20,o),
(704,130,o),
(704,351,cs),
(704,565,o),
(573,720,o),
(370,720,cs),
(167,720,o),
(39,565,o),
(39,351,cs)
);
},
{
closed = 1;
nodes = (
(589,180,o),
(525,26,o),
(381,26,cs),
(228,26,o),
(154,181,o),
(154,342,cs),
(154,513,o),
(213,674,o),
(367,674,cs),
(512,674,o),
(589,515,o),
(589,358,cs)
);
},
{
closed = 1;
nodes = (
(274,812,o),
(296,825,o),
(326,822,c),
(371,819,o),
(391,783,o),
(453,786,cs),
(496,788,o),
(518,820,o),
(531,866,c),
(522,874,o),
(512,883,o),
(502,883,c),
(487,860,o),
(463,852,o),
(436,857,cs),
(393,865,o),
(376,896,o),
(326,893,c),
(291,892,o),
(259,868,o),
(231,817,c),
(238,809,o),
(246,796,o),
(260,791,c)
);
}
);
};
layerId = "E67231B9-FA09-451D-8B80-B70CA73DDE32";
shapes = (
{
ref = O;
},
{
pos = (204,-51);
ref = tildecomb.case;
}
);
width = 753;
}
);
unicode = 213;
},
{
glyphname = OE;
kernLeft = _KERN_O_2ND;
kernRight = _KERN_E_1ST;
lastChange = "2023-10-27 11:47:12 +0000";
layers = (
{
anchors = (
{
name = bottom;
pos = (541,0);
},
{
name = top;
pos = (541,705);
}
);
background = {
shapes = (
{
closed = 1;
nodes = (
(44,130,o),
(172,-20,o),
(375,-20,cs),
(463,-20,o),
(533,10,o),
(584,63,c),
(584,0,l),
(1037,0,l),
(1037,10,o),
(1037,21,o),
(1037,31,cs),
(1037,79,o),
(1035,127,o),
(1025,175,c),
(1012,180,o),
(1006,180,o),
(990,178,c),
(969,45,l),
(679,45,l),
(679,330,l),
(865,330,l),
(884,241,l),
(896,238,o),
(912,238,o),
(924,243,c),
(921,275,o),
(920,318,o),
(920,361,cs),
(920,400,o),
(921,439,o),
(924,468,c),
(912,477,o),
(896,477,o),
(884,473,c),
(865,385,l),
(679,385,l),
(679,655,l),
(936,655,l),
(962,522,l),
(978,520,o),
(985,520,o),
(998,525,c),
(1008,582,o),
(1010,641,o),
(1009,700,c),
(584,700,l),
(584,635,l),
(533,688,o),
(463,720,o),
(375,720,cs),
(172,720,o),
(44,565,o),
(44,351,cs)
);
},
{
closed = 1;
nodes = (
(584,344,l),
(581,172,o),
(519,26,o),
(386,26,cs),
(233,26,o),
(159,181,o),
(159,342,cs),
(159,513,o),
(218,674,o),
(372,674,cs),
(510,674,o),
(584,515,o),
(584,358,c)
);
}
);
};
guides = (
{
angle = 90;
pos = (586,0);
}
);
layerId = "E67231B9-FA09-451D-8B80-B70CA73DDE32";
shapes = (
{
closed = 1;
nodes = (
(44,130,o),
(172,-20,o),
(375,-20,cs),
(463,-20,o),
(533,10,o),
(584,63,c),
(584,0,l),
(1037,0,l),
(1037,10,o),
(1037,21,o),
(1037,31,cs),
(1037,79,o),
(1035,127,o),
(1025,175,c),
(1012,180,o),
(1006,180,o),
(990,178,c),
(969,45,l),
(679,45,l),
(679,330,l),
(865,330,l),
(884,241,l),
(896,238,o),
(912,238,o),
(924,243,c),
(921,275,o),
(920,318,o),
(920,361,cs),
(920,400,o),
(921,439,o),
(924,468,c),
(912,477,o),
(896,477,o),
(884,473,c),
(865,385,l),
(679,385,l),
(679,655,l),
(936,655,l),
(962,522,l),
(978,520,o),
(985,520,o),
(998,525,c),
(1008,582,o),
(1010,641,o),
(1009,700,c),
(584,700,l),
(584,635,l),
(533,688,o),
(463,720,o),
(375,720,cs),
(172,720,o),
(44,565,o),
(44,351,cs)
);
},
{
closed = 1;
nodes = (
(584,344,l),
(581,172,o),
(519,26,o),
(386,26,cs),
(233,26,o),
(159,181,o),
(159,342,cs),
(159,513,o),
(218,674,o),
(372,674,cs),
(510,674,o),
(584,515,o),
(584,358,c)
);
}
);
width = 1082;
}
);
unicode = 338;
},
{
glyphname = P;
kernLeft = _KERN_I_2ND;
lastChange = "2023-10-27 11:47:12 +0000";
layers = (
{
anchors = (
{
name = bottom;
pos = (295,0);
},
{
name = top;
pos = (295,705);
}
);
background = {
shapes = (
{
closed = 1;
nodes = (
(418,279,o),
(567,339,o),
(567,502,cs),
(567,631,o),
(468,709,o),
(302,709,cs),
(268,709,o),
(226,700,o),
(167,700,cs),
(130,700,o),
(81,703,o),
(45,705,c),
(39,693,o),
(38,682,o),
(40,670,c),
(117,650,l),
(117,50,l),
(93,38,o),
(66,34,o),
(37,30,c),
(33,18,o),
(33,7,o),
(35,-5,c),
(72,-3,o),
(134,0,o),
(172,0,cs),
(209,0,o),
(278,-3,o),
(314,-5,c),
(320,7,o),
(321,18,o),
(319,30,c),
(222,50,l),
(222,282,l),
(239,281,o),
(258,279,o),
(276,279,cs)
);
},
{
closed = 1;
nodes = (
(387,664,o),
(460,601,o),
(460,496,cs),
(460,374,o),
(382,325,o),
(284,325,cs),
(265,325,o),
(243,327,o),
(222,331,c),
(222,655,l),
(247,661,o),
(272,664,o),
(295,664,cs)
);
}
);
};
layerId = "E67231B9-FA09-451D-8B80-B70CA73DDE32";
shapes = (
{
closed = 1;
nodes = (
(418,279,o),
(567,339,o),
(567,502,cs),
(567,631,o),
(468,709,o),
(302,709,cs),
(268,709,o),
(226,700,o),
(167,700,cs),
(130,700,o),
(81,703,o),
(45,705,c),
(39,693,o),
(38,682,o),
(40,670,c),
(117,650,l),
(117,50,l),
(93,38,o),
(66,34,o),
(37,30,c),
(33,18,o),
(33,7,o),
(35,-5,c),
(72,-3,o),
(134,0,o),
(172,0,cs),
(209,0,o),
(278,-3,o),
(314,-5,c),
(320,7,o),
(321,18,o),
(319,30,c),
(222,50,l),
(222,282,l),
(239,281,o),
(258,279,o),
(276,279,cs)
);
},
{
closed = 1;
nodes = (
(387,664,o),
(460,601,o),
(460,496,cs),
(460,374,o),
(382,325,o),
(284,325,cs),
(265,325,o),
(243,327,o),
(222,331,c),
(222,655,l),
(247,661,o),
(272,664,o),
(295,664,cs)
);
}
);
width = 590;
}
);
unicode = 80;
},
{
glyphname = Thorn;
kernLeft = _KERN_I_2ND;
lastChange = "2023-10-27 11:47:12 +0000";
layers = (
{
associatedMasterId = "E67231B9-FA09-451D-8B80-B70CA73DDE32";
layerId = "37E99AEB-8AF4-41FE-81C5-9E9421C04E2B";
name = public.background;
width = 574;
},
{
anchors = (
{
name = bottom;
pos = (287,0);
},
{
name = top;
pos = (287,705);
}
);
background = {
shapes = (
{
closed = 1;
nodes = (
(222,650,l),
(249,660,o),
(275,665,o),
(302,670,c),
(306,682,o),
(306,693,o),
(304,705,c),
(267,703,o),
(205,700,o),
(167,700,cs),
(130,700,o),
(81,703,o),
(45,705,c),
(39,693,o),
(38,682,o),
(40,670,c),
(117,650,l),
(117,50,l),
(92,38,o),
(65,34,o),
(37,30,c),
(33,18,o),
(33,7,o),
(35,-5,c),
(72,-3,o),
(134,0,o),
(172,0,cs),
(209,0,o),
(268,-3,o),
(304,-5,c),
(310,7,o),
(311,18,o),
(309,30,c),
(222,50,l),
(222,150,l),
(233,149,o),
(246,149,o),
(258,149,cs),
(400,149,o),
(549,208,o),
(549,371,cs),
(549,500,o),
(439,574,o),
(273,574,c),
(222,571,l)
);
},
{
closed = 1;
nodes = (
(369,533,o),
(434,470,o),
(434,365,cs),
(434,261,o),
(364,194,o),
(266,194,cs),
(252,194,o),
(237,195,o),
(222,198,c),
(222,526,l),
(241,530,o),
(259,533,o),
(277,533,cs)
);
}
);
};
layerId = "E67231B9-FA09-451D-8B80-B70CA73DDE32";
shapes = (
{
closed = 1;
nodes = (
(222,650,l),
(249,660,o),
(275,665,o),
(302,670,c),
(306,682,o),
(306,693,o),
(304,705,c),
(267,703,o),
(205,700,o),
(167,700,cs),
(130,700,o),
(81,703,o),
(45,705,c),
(39,693,o),
(38,682,o),
(40,670,c),
(117,650,l),
(117,50,l),
(92,38,o),
(65,34,o),
(37,30,c),
(33,18,o),
(33,7,o),
(35,-5,c),
(72,-3,o),
(134,0,o),
(172,0,cs),
(209,0,o),
(268,-3,o),
(304,-5,c),
(310,7,o),
(311,18,o),
(309,30,c),
(222,50,l),
(222,150,l),
(233,149,o),
(246,149,o),
(258,149,cs),
(400,149,o),
(549,208,o),
(549,371,cs),
(549,500,o),
(439,574,o),
(273,574,c),
(222,571,l)
);
},
{
closed = 1;
nodes = (
(369,533,o),
(434,470,o),
(434,365,cs),
(434,261,o),
(364,194,o),
(266,194,cs),
(252,194,o),
(237,195,o),
(222,198,c),
(222,526,l),
(241,530,o),
(259,533,o),
(277,533,cs)
);
}
);
width = 574;
}
);
unicode = 222;
},
{
glyphname = Q;
kernLeft = _KERN_O_2ND;
kernRight = _KERN_O_1ST;
lastChange = "2023-10-27 11:47:12 +0000";
layers = (
{
anchors = (
{
name = bottom;
pos = (372,0);
},
{
name = top;
pos = (372,705);
}
);
background = {
shapes = (
{
closed = 1;
nodes = (
(44,141,o),
(159,-5,o),
(345,-19,c),
(430,-104,o),
(558,-208,o),
(663,-208,cs),
(718,-208,o),
(779,-165,o),
(816,-133,c),
(817,-128,o),
(807,-112,o),
(804,-111,c),
(785,-120,o),
(754,-128,o),
(721,-128,cs),
(611,-128,o),
(510,-85,o),
(425,-16,c),
(599,6,o),
(709,149,o),
(709,351,cs),
(709,565,o),
(578,720,o),
(375,720,cs),
(172,720,o),
(44,565,o),
(44,351,cs)
);
},
{
closed = 1;
nodes = (
(594,180,o),
(530,26,o),
(386,26,cs),
(233,26,o),
(159,181,o),
(159,342,cs),
(159,513,o),
(218,674,o),
(372,674,cs),
(517,674,o),
(594,515,o),
(594,358,cs)
);
}
);
};
layerId = "E67231B9-FA09-451D-8B80-B70CA73DDE32";
shapes = (
{
closed = 1;
nodes = (
(44,141,o),
(159,-5,o),
(345,-19,c),
(430,-104,o),
(558,-208,o),
(663,-208,cs),
(718,-208,o),
(779,-165,o),
(816,-133,c),
(817,-128,o),
(807,-112,o),
(804,-111,c),
(785,-120,o),
(754,-128,o),
(721,-128,cs),
(611,-128,o),
(510,-85,o),
(425,-16,c),
(599,6,o),
(709,149,o),
(709,351,cs),
(709,565,o),
(578,720,o),
(375,720,cs),
(172,720,o),
(44,565,o),
(44,351,cs)
);
},
{
closed = 1;
nodes = (
(594,180,o),
(530,26,o),
(386,26,cs),
(233,26,o),
(159,181,o),
(159,342,cs),
(159,513,o),
(218,674,o),
(372,674,cs),
(517,674,o),
(594,515,o),
(594,358,cs)
);
}
);
width = 743;
}
);
unicode = 81;
},
{
glyphname = R;
kernLeft = _KERN_I_2ND;
lastChange = "2023-10-27 11:45:56 +0000";
layers = (
{
anchors = (
{
name = bottom;
pos = (326,0);
},
{
name = top;
pos = (326,705);
}
);
background = {
shapes = (
{
closed = 1;
nodes = (
(222,315,l),
(238,314,o),
(255,313,o),
(272,313,cs),
(295,313,o),
(317,314,o),
(339,316,c),
(413,167,o),
(433,83,o),
(472,37,cs),
(501,2,o),
(536,-15,o),
(581,-15,cs),
(593,-15,o),
(636,-14,o),
(647,0,c),
(648,11,o),
(648,21,o),
(641,32,c),
(629,31,l),
(559,31,o),
(553,64,o),
(446,300,cs),
(441,311,o),
(433,326,o),
(424,332,c),
(424,336,l),
(513,366,o),
(561,421,o),
(561,512,cs),
(561,641,o),
(453,715,o),
(281,706,c),
(187,700,ls),
(144,698,o),
(81,703,o),
(45,705,c),
(39,693,o),
(38,682,o),
(40,670,c),
(117,650,l),
(117,50,l),
(91,39,o),
(65,33,o),
(37,30,c),
(33,18,o),
(33,7,o),
(35,-5,c),
(72,-3,o),
(134,0,o),
(172,0,cs),
(209,0,o),
(258,-3,o),
(294,-5,c),
(300,7,o),
(301,18,o),
(299,30,c),
(222,50,l)
);
},
{
closed = 1;
nodes = (
(463,413,o),
(398,354,o),
(282,354,cs),
(263,354,o),
(243,356,o),
(222,361,c),
(222,649,l),
(248,656,o),
(272,660,o),
(295,660,cs),
(388,660,o),
(463,607,o),
(463,506,cs)
);
}
);
};
layerId = "E67231B9-FA09-451D-8B80-B70CA73DDE32";
shapes = (
{
closed = 1;
nodes = (
(222,315,l),
(238,314,o),
(255,313,o),
(272,313,cs),
(295,313,o),
(317,314,o),
(339,316,c),
(413,167,o),
(433,83,o),
(472,37,cs),
(501,2,o),
(536,-15,o),
(581,-15,cs),
(593,-15,o),
(636,-14,o),
(647,0,c),
(648,11,o),
(648,21,o),
(641,32,c),
(629,31,l),
(559,31,o),
(553,64,o),
(446,300,cs),
(441,311,o),
(433,326,o),
(424,332,c),
(424,336,l),
(513,366,o),
(561,421,o),
(561,512,cs),
(561,641,o),
(453,715,o),
(281,706,c),
(187,700,ls),
(144,698,o),
(81,703,o),
(45,705,c),
(39,693,o),
(38,682,o),
(40,670,c),
(117,650,l),
(117,50,l),
(91,39,o),
(65,33,o),
(37,30,c),
(33,18,o),
(33,7,o),
(35,-5,c),
(72,-3,o),
(134,0,o),
(172,0,cs),
(209,0,o),
(258,-3,o),
(294,-5,c),
(300,7,o),
(301,18,o),
(299,30,c),
(222,50,l)
);
},
{
closed = 1;
nodes = (
(463,413,o),
(398,354,o),
(282,354,cs),
(263,354,o),
(243,356,o),
(222,361,c),
(222,649,l),
(248,656,o),
(272,660,o),
(295,660,cs),
(388,660,o),
(463,607,o),
(463,506,cs)
);
}
);
width = 652;
}
);
unicode = 82;
},
{
glyphname = S;
lastChange = "2023-10-27 11:45:50 +0000";
layers = (
{
anchors = (
{
name = bottom;
pos = (273,0);
},
{
name = top;
pos = (293,705);
}
);
background = {
shapes = (
{
closed = 1;
nodes = (
(381,-19,o),
(512,43,o),
(512,174,cs),
(512,299,o),
(445,340,o),
(290,409,cs),
(166,464,o),
(147,496,o),
(147,553,cs),
(147,636,o),
(224,668,o),
(303,668,cs),
(334,668,o),
(365,663,o),
(393,655,c),
(404,522,l),
(413,518,o),
(424,516,o),
(435,516,cs),
(439,516,o),
(444,516,o),
(448,517,c),
(467,570,o),
(481,625,o),
(479,686,c),
(428,706,o),
(368,716,o),
(309,716,cs),
(177,716,o),
(52,662,o),
(52,536,cs),
(52,453,o),
(68,391,o),
(213,328,cs),
(391,250,o),
(407,216,o),
(407,146,cs),
(407,58,o),
(315,37,o),
(243,37,cs),
(198,37,o),
(160,46,o),
(135,52,c),
(119,185,l),
(110,189,o),
(98,191,o),
(88,191,cs),
(83,191,o),
(79,190,o),
(75,190,c),
(57,131,o),
(49,73,o),
(49,16,c),
(104,-10,o),
(182,-19,o),
(258,-19,cs)
);
}
);
};
layerId = "E67231B9-FA09-451D-8B80-B70CA73DDE32";
shapes = (
{
closed = 1;
nodes = (
(381,-19,o),
(512,43,o),
(512,174,cs),
(512,299,o),
(445,340,o),
(290,409,cs),
(166,464,o),
(147,496,o),
(147,553,cs),
(147,636,o),
(224,668,o),
(303,668,cs),
(334,668,o),
(365,663,o),
(393,655,c),
(404,522,l),
(413,518,o),
(424,516,o),
(435,516,cs),
(439,516,o),
(444,516,o),
(448,517,c),
(467,570,o),
(481,625,o),
(479,686,c),
(428,706,o),
(368,716,o),
(309,716,cs),
(177,716,o),
(52,662,o),
(52,536,cs),
(52,453,o),
(68,391,o),
(213,328,cs),
(391,250,o),
(407,216,o),
(407,146,cs),
(407,58,o),
(315,37,o),
(243,37,cs),
(198,37,o),
(160,46,o),
(135,52,c),
(119,185,l),
(110,189,o),
(98,191,o),
(88,191,cs),
(83,191,o),
(79,190,o),
(75,190,c),
(57,131,o),
(49,73,o),
(49,16,c),
(104,-10,o),
(182,-19,o),
(258,-19,cs)
);
}
);
width = 545;
}
);
unicode = 83;
},
{
glyphname = T;
lastChange = "2023-10-27 11:45:42 +0000";
layers = (
{
anchors = (
{
name = bottom;
pos = (312,0);
},
{
name = center;
pos = (312,353);
},
{
name = top;
pos = (312,705);
}
);
background = {
shapes = (
{
closed = 1;
nodes = (
(256,50,l),
(231,41,o),
(206,34,o),
(176,30,c),
(172,18,o),
(172,7,o),
(174,-5,c),
(211,-3,o),
(273,0,o),
(311,0,cs),
(348,0,o),
(403,-3,o),
(439,-5,c),
(445,7,o),
(446,18,o),
(444,30,c),
(361,50,l),
(361,655,l),
(526,655,l),
(555,512,l),
(571,510,o),
(582,510,o),
(595,515,c),
(603,577,o),
(608,638,o),
(606,700,c),
(21,700,l),
(19,632,o),
(25,572,o),
(31,515,c),
(44,510,o),
(55,510,o),
(71,512,c),
(100,655,l),
(256,655,l)
);
}
);
};
layerId = "E67231B9-FA09-451D-8B80-B70CA73DDE32";
shapes = (
{
closed = 1;
nodes = (
(256,50,l),
(231,41,o),
(206,34,o),
(176,30,c),
(172,18,o),
(172,7,o),
(174,-5,c),
(211,-3,o),
(273,0,o),
(311,0,cs),
(348,0,o),
(403,-3,o),
(439,-5,c),
(445,7,o),
(446,18,o),
(444,30,c),
(361,50,l),
(361,655,l),
(526,655,l),
(555,512,l),
(571,510,o),
(582,510,o),
(595,515,c),
(603,577,o),
(608,638,o),
(606,700,c),
(21,700,l),
(19,632,o),
(25,572,o),
(31,515,c),
(44,510,o),
(55,510,o),
(71,512,c),
(100,655,l),
(256,655,l)
);
}
);
width = 623;
}
);
unicode = 84;
},
{
glyphname = U;
kernLeft = _KERN_U;
kernRight = _KERN_U;
lastChange = "2023-10-27 11:47:12 +0000";
layers = (
{
anchors = (
{
name = bottom;
pos = (373,0);
},
{
name = ogonek;
pos = (671,10);
},
{
name = top;
pos = (397,704);
},
{
name = topright;
pos = (725,705);
}
);
background = {
anchors = (
{
name = top;
pos = (397,704);
}
);
shapes = (
{
closed = 1;
nodes = (
(641,650,l),
(662,660,o),
(689,665,o),
(721,670,c),
(725,682,o),
(725,693,o),
(723,705,c),
(686,703,o),
(654,700,o),
(616,700,cs),
(579,700,o),
(550,703,o),
(514,705,c),
(508,693,o),
(507,682,o),
(509,670,c),
(586,650,l),
(586,305,ls),
(586,180,o),
(582,30,o),
(407,30,cs),
(277,30,o),
(206,92,o),
(206,235,cs),
(206,650,l),
(233,662,o),
(259,666,o),
(286,670,c),
(290,682,o),
(290,693,o),
(288,705,c),
(251,703,o),
(189,700,o),
(151,700,cs),
(114,700,o),
(65,703,o),
(29,705,c),
(23,693,o),
(22,682,o),
(24,670,c),
(101,650,l),
(101,265,ls),
(101,32,o),
(202,-20,o),
(382,-20,cs),
(551,-20,o),
(641,35,o),
(641,275,cs)
);
}
);
};
layerId = "E67231B9-FA09-451D-8B80-B70CA73DDE32";
shapes = (
{
closed = 1;
nodes = (
(641,650,l),
(662,660,o),
(689,665,o),
(721,670,c),
(725,682,o),
(725,693,o),
(723,705,c),
(686,703,o),
(654,700,o),
(616,700,cs),
(579,700,o),
(550,703,o),
(514,705,c),
(508,693,o),
(507,682,o),
(509,670,c),
(586,650,l),
(586,305,ls),
(586,180,o),
(582,30,o),
(407,30,cs),
(277,30,o),
(206,92,o),
(206,235,cs),
(206,650,l),
(233,662,o),
(259,666,o),
(286,670,c),
(290,682,o),
(290,693,o),
(288,705,c),
(251,703,o),
(189,700,o),
(151,700,cs),
(114,700,o),
(65,703,o),
(29,705,c),
(23,693,o),
(22,682,o),
(24,670,c),
(101,650,l),
(101,265,ls),
(101,32,o),
(202,-20,o),
(382,-20,cs),
(551,-20,o),
(641,35,o),
(641,275,cs)
);
}
);
width = 745;
}
);
unicode = 85;
},
{
glyphname = Uacute;
kernLeft = _KERN_U;
kernRight = _KERN_U;
lastChange = "2023-10-27 11:43:03 +0000";
layers = (
{
associatedMasterId = "E67231B9-FA09-451D-8B80-B70CA73DDE32";
layerId = "DA51D0F6-E92C-4977-9AEE-C0B7DC2D6803";
name = img;
width = 745;
},
{
background = {
anchors = (
{
name = top;
pos = (397,704);
}
);
shapes = (
{
closed = 1;
nodes = (
(641,650,l),
(662,660,o),
(689,665,o),
(721,670,c),
(725,682,o),
(725,693,o),
(723,705,c),
(686,703,o),
(654,700,o),
(616,700,cs),
(579,700,o),
(550,703,o),
(514,705,c),
(508,693,o),
(507,682,o),
(509,670,c),
(586,650,l),
(586,305,ls),
(586,180,o),
(582,30,o),
(407,30,cs),
(277,30,o),
(206,92,o),
(206,235,cs),
(206,650,l),
(233,662,o),
(259,666,o),
(286,670,c),
(290,682,o),
(290,693,o),
(288,705,c),
(251,703,o),
(189,700,o),
(151,700,cs),
(114,700,o),
(65,703,o),
(29,705,c),
(23,693,o),
(22,682,o),
(24,670,c),
(101,650,l),
(101,265,ls),
(101,32,o),
(202,-20,o),
(382,-20,cs),
(551,-20,o),
(641,35,o),
(641,275,cs)
);
},
{
closed = 1;
nodes = (
(544,841,l),
(536,870,o),
(516,900,o),
(490,917,c),
(352,773,l),
(358,762,o),
(363,755,o),
(375,744,c)
);
}
);
};
layerId = "E67231B9-FA09-451D-8B80-B70CA73DDE32";
shapes = (
{
ref = U;
},
{
pos = (293,-52);
ref = acutecomb.case;
}
);
width = 745;
}
);
unicode = 218;
},
{
glyphname = Ucircumflex;
kernLeft = _KERN_U;
kernRight = _KERN_U;
lastChange = "2023-10-27 11:43:03 +0000";
layers = (
{
associatedMasterId = "E67231B9-FA09-451D-8B80-B70CA73DDE32";
layerId = "DA51D0F6-E92C-4977-9AEE-C0B7DC2D6803";
name = img;
width = 745;
},
{
background = {
anchors = (
{
name = top;
pos = (397,704);
}
);
shapes = (
{
closed = 1;
nodes = (
(641,650,l),
(662,660,o),
(689,665,o),
(721,670,c),
(725,682,o),
(725,693,o),
(723,705,c),
(686,703,o),
(654,700,o),
(616,700,cs),
(579,700,o),
(550,703,o),
(514,705,c),
(508,693,o),
(507,682,o),
(509,670,c),
(586,650,l),
(586,305,ls),
(586,180,o),
(582,30,o),
(407,30,cs),
(277,30,o),
(206,92,o),
(206,235,cs),
(206,650,l),
(233,662,o),
(259,666,o),
(286,670,c),
(290,682,o),
(290,693,o),
(288,705,c),
(251,703,o),
(189,700,o),
(151,700,cs),
(114,700,o),
(65,703,o),
(29,705,c),
(23,693,o),
(22,682,o),
(24,670,c),
(101,650,l),
(101,265,ls),
(101,32,o),
(202,-20,o),
(382,-20,cs),
(551,-20,o),
(641,35,o),
(641,275,cs)
);
},
{
closed = 1;
nodes = (
(531,758,o),
(544,765,o),
(553,777,c),
(431,915,l),
(418,917,o),
(408,918,o),
(399,918,cs),
(389,918,o),
(379,917,o),
(368,915,c),
(243,777,l),
(252,765,o),
(265,757,o),
(275,753,c),
(315,781,o),
(358,815,o),
(395,851,c),
(433,817,o),
(472,781,o),
(515,753,c)
);
}
);
};
layerId = "E67231B9-FA09-451D-8B80-B70CA73DDE32";
shapes = (
{
ref = U;
},
{
pos = (235,-52);
ref = circumflexcomb.case;
}
);
width = 745;
}
);
unicode = 219;
},
{
glyphname = Udieresis;
kernLeft = _KERN_U;
kernRight = _KERN_U;
lastChange = "2023-10-27 11:43:03 +0000";
layers = (
{
associatedMasterId = "E67231B9-FA09-451D-8B80-B70CA73DDE32";
layerId = "DA51D0F6-E92C-4977-9AEE-C0B7DC2D6803";
name = img;
width = 745;
},
{
background = {
anchors = (
{
name = top;
pos = (397,704);
}
);
shapes = (
{
closed = 1;
nodes = (
(641,650,l),
(662,660,o),
(689,665,o),
(721,670,c),
(725,682,o),
(725,693,o),
(723,705,c),
(686,703,o),
(654,700,o),
(616,700,cs),
(579,700,o),
(550,703,o),
(514,705,c),
(508,693,o),
(507,682,o),
(509,670,c),
(586,650,l),
(586,305,ls),
(586,180,o),
(582,30,o),
(407,30,cs),
(277,30,o),
(206,92,o),
(206,235,cs),
(206,650,l),
(233,662,o),
(259,666,o),
(286,670,c),
(290,682,o),
(290,693,o),
(288,705,c),
(251,703,o),
(189,700,o),
(151,700,cs),
(114,700,o),
(65,703,o),
(29,705,c),
(23,693,o),
(22,682,o),
(24,670,c),
(101,650,l),
(101,265,ls),
(101,32,o),
(202,-20,o),
(382,-20,cs),
(551,-20,o),
(641,35,o),
(641,275,cs)
);
},
{
closed = 1;
nodes = (
(243,815,o),
(267,776,o),
(301,776,cs),
(331,776,o),
(366,808,o),
(366,833,cs),
(366,857,o),
(343,896,o),
(308,896,cs),
(279,896,o),
(243,864,o),
(243,840,cs)
);
},
{
closed = 1;
nodes = (
(432,815,o),
(456,776,o),
(490,776,cs),
(520,776,o),
(555,808,o),
(555,833,cs),
(555,857,o),
(532,896,o),
(497,896,cs),
(468,896,o),
(432,864,o),
(432,840,cs)
);
}
);
};
layerId = "E67231B9-FA09-451D-8B80-B70CA73DDE32";
shapes = (
{
ref = U;
},
{
pos = (218,-52);
ref = dieresiscomb.case;
}
);
width = 745;
}
);
unicode = 220;
},
{
glyphname = Ugrave;
kernLeft = _KERN_U;
kernRight = _KERN_U;
lastChange = "2023-10-27 11:43:03 +0000";
layers = (
{
associatedMasterId = "E67231B9-FA09-451D-8B80-B70CA73DDE32";
layerId = "DA51D0F6-E92C-4977-9AEE-C0B7DC2D6803";
name = img;
width = 745;
},
{
background = {
anchors = (
{
name = top;
pos = (397,704);
}
);
shapes = (
{
closed = 1;
nodes = (
(641,650,l),
(662,660,o),
(689,665,o),
(721,670,c),
(725,682,o),
(725,693,o),
(723,705,c),
(686,703,o),
(654,700,o),
(616,700,cs),
(579,700,o),
(550,703,o),
(514,705,c),
(508,693,o),
(507,682,o),
(509,670,c),
(586,650,l),
(586,305,ls),
(586,180,o),
(582,30,o),
(407,30,cs),
(277,30,o),
(206,92,o),
(206,235,cs),
(206,650,l),
(233,662,o),
(259,666,o),
(286,670,c),
(290,682,o),
(290,693,o),
(288,705,c),
(251,703,o),
(189,700,o),
(151,700,cs),
(114,700,o),
(65,703,o),
(29,705,c),
(23,693,o),
(22,682,o),
(24,670,c),
(101,650,l),
(101,265,ls),
(101,32,o),
(202,-20,o),
(382,-20,cs),
(551,-20,o),
(641,35,o),
(641,275,cs)
);
},
{
closed = 1;
nodes = (
(414,744,l),
(426,755,o),
(431,762,o),
(437,773,c),
(299,917,l),
(273,900,o),
(253,870,o),
(245,841,c)
);
}
);
};
layerId = "E67231B9-FA09-451D-8B80-B70CA73DDE32";
shapes = (
{
ref = U;
},
{
pos = (246,-52);
ref = gravecomb.case;
}
);
width = 745;
}
);
unicode = 217;
},
{
glyphname = V;
lastChange = "2023-10-27 11:47:12 +0000";
layers = (
{
anchors = (
{
name = bottom;
pos = (337,0);
},
{
name = top;
pos = (337,705);
}
);
background = {
shapes = (
{
closed = 1;
nodes = (
(605,650,l),
(628,661,o),
(659,666,o),
(687,670,c),
(691,682,o),
(691,693,o),
(689,705,c),
(652,703,o),
(619,700,o),
(581,700,cs),
(544,700,o),
(514,703,o),
(478,705,c),
(472,693,o),
(471,682,o),
(473,670,c),
(550,650,l),
(417,267,l),
(401,217,o),
(385,165,o),
(371,117,c),
(369,117,l),
(361,163,o),
(347,207,o),
(327,262,cs),
(182,650,l),
(208,660,o),
(234,666,o),
(262,670,c),
(266,682,o),
(266,693,o),
(264,705,c),
(227,703,o),
(165,700,o),
(127,700,cs),
(90,700,o),
(26,703,o),
(-10,705,c),
(-16,693,o),
(-17,682,o),
(-15,670,c),
(62,650,l),
(329,-30,l),
(341,-30,o),
(355,-26,o),
(365,-20,c)
);
}
);
};
layerId = "E67231B9-FA09-451D-8B80-B70CA73DDE32";
shapes = (
{
closed = 1;
nodes = (
(605,650,l),
(628,661,o),
(659,666,o),
(687,670,c),
(691,682,o),
(691,693,o),
(689,705,c),
(652,703,o),
(619,700,o),
(581,700,cs),
(544,700,o),
(514,703,o),
(478,705,c),
(472,693,o),
(471,682,o),
(473,670,c),
(550,650,l),
(417,267,l),
(401,217,o),
(385,165,o),
(371,117,c),
(369,117,l),
(361,163,o),
(347,207,o),
(327,262,cs),
(182,650,l),
(208,660,o),
(234,666,o),
(262,670,c),
(266,682,o),
(266,693,o),
(264,705,c),
(227,703,o),
(165,700,o),
(127,700,cs),
(90,700,o),
(26,703,o),
(-10,705,c),
(-16,693,o),
(-17,682,o),
(-15,670,c),
(62,650,l),
(329,-30,l),
(341,-30,o),
(355,-26,o),
(365,-20,c)
);
}
);
width = 673;
}
);
unicode = 86;
},
{
glyphname = W;
lastChange = "2023-10-27 11:46:16 +0000";
layers = (
{
anchors = (
{
name = bottom;
pos = (496,0);
},
{
name = top;
pos = (496,705);
}
);
background = {
shapes = (
{
closed = 1;
nodes = (
(363,254,l),
(344,199,o),
(328,146,o),
(320,95,c),
(318,95,l),
(309,146,o),
(292,205,o),
(278,257,cs),
(173,650,l),
(200,661,o),
(228,667,o),
(257,670,c),
(261,682,o),
(261,693,o),
(259,705,c),
(222,703,o),
(160,700,o),
(122,700,cs),
(85,700,o),
(21,703,o),
(-15,705,c),
(-21,693,o),
(-22,682,o),
(-20,670,c),
(57,650,l),
(278,-30,l),
(290,-30,o),
(315,-26,o),
(325,-20,c),
(488,487,l),
(674,-30,l),
(686,-30,o),
(715,-26,o),
(725,-20,c),
(910,650,l),
(937,660,o),
(965,665,o),
(992,670,c),
(996,682,o),
(996,693,o),
(994,705,c),
(957,703,o),
(925,700,o),
(887,700,cs),
(850,700,o),
(810,703,o),
(774,705,c),
(768,693,o),
(767,682,o),
(769,670,c),
(856,650,l),
(754,262,ls),
(740,211,o),
(726,156,o),
(717,106,c),
(715,106,l),
(707,152,o),
(687,215,o),
(672,262,cs),
(548,650,l),
(575,664,o),
(602,665,o),
(629,670,c),
(633,682,o),
(633,693,o),
(631,705,c),
(594,703,o),
(532,700,o),
(494,700,cs),
(457,700,o),
(393,703,o),
(357,705,c),
(351,693,o),
(350,682,o),
(352,670,c),
(429,650,l),
(460,564,l)
);
}
);
};
guides = (
{
pos = (0,390);
},
{
pos = (0,262);
},
{
pos = (0,106);
}
);
layerId = "E67231B9-FA09-451D-8B80-B70CA73DDE32";
shapes = (
{
closed = 1;
nodes = (
(363,254,l),
(344,199,o),
(328,146,o),
(320,95,c),
(318,95,l),
(309,146,o),
(292,205,o),
(278,257,cs),
(173,650,l),
(200,661,o),
(228,667,o),
(257,670,c),
(261,682,o),
(261,693,o),
(259,705,c),
(222,703,o),
(160,700,o),
(122,700,cs),
(85,700,o),
(21,703,o),
(-15,705,c),
(-21,693,o),
(-22,682,o),
(-20,670,c),
(57,650,l),
(278,-30,l),
(290,-30,o),
(315,-26,o),
(325,-20,c),
(488,487,l),
(674,-30,l),
(686,-30,o),
(715,-26,o),
(725,-20,c),
(910,650,l),
(937,660,o),
(965,665,o),
(992,670,c),
(996,682,o),
(996,693,o),
(994,705,c),
(957,703,o),
(925,700,o),
(887,700,cs),
(850,700,o),
(810,703,o),
(774,705,c),
(768,693,o),
(767,682,o),
(769,670,c),
(856,650,l),
(754,262,ls),
(740,211,o),
(726,156,o),
(717,106,c),
(715,106,l),
(707,152,o),
(687,215,o),
(672,262,cs),
(548,650,l),
(575,664,o),
(602,665,o),
(629,670,c),
(633,682,o),
(633,693,o),
(631,705,c),
(594,703,o),
(532,700,o),
(494,700,cs),
(457,700,o),
(393,703,o),
(357,705,c),
(351,693,o),
(350,682,o),
(352,670,c),
(429,650,l),
(460,564,l)
);
}
);
width = 992;
}
);
unicode = 87;
},
{
glyphname = X;
lastChange = "2023-10-27 11:47:12 +0000";
layers = (
{
anchors = (
{
name = bottom;
pos = (336,0);
},
{
name = top;
pos = (336,705);
}
);
background = {
shapes = (
{
closed = 1;
nodes = (
(575,650,l),
(601,661,o),
(635,668,o),
(657,670,c),
(661,682,o),
(661,693,o),
(659,705,c),
(622,703,o),
(590,700,o),
(552,700,cs),
(515,700,o),
(482,703,o),
(446,705,c),
(440,693,o),
(439,682,o),
(441,670,c),
(518,650,l),
(354,422,l),
(212,650,l),
(234,660,o),
(264,665,o),
(293,670,c),
(297,682,o),
(297,693,o),
(295,705,c),
(258,703,o),
(193,700,o),
(155,700,cs),
(118,700,o),
(54,703,o),
(18,705,c),
(12,693,o),
(11,682,o),
(13,670,c),
(90,650,l),
(285,343,l),
(74,50,l),
(50,38,o),
(23,34,o),
(-6,30,c),
(-10,18,o),
(-10,7,o),
(-8,-5,c),
(29,-3,o),
(56,0,o),
(94,0,cs),
(131,0,o),
(173,-3,o),
(209,-5,c),
(215,7,o),
(216,18,o),
(214,30,c),
(137,50,l),
(312,299,l),
(471,50,l),
(449,42,o),
(422,36,o),
(390,30,c),
(386,18,o),
(386,7,o),
(388,-5,c),
(425,-3,o),
(502,0,o),
(540,0,cs),
(577,0,o),
(637,-3,o),
(673,-5,c),
(679,7,o),
(680,18,o),
(678,30,c),
(653,32,o),
(603,40,o),
(585,58,c),
(382,381,l)
);
}
);
};
layerId = "E67231B9-FA09-451D-8B80-B70CA73DDE32";
shapes = (
{
closed = 1;
nodes = (
(575,650,l),
(601,661,o),
(635,668,o),
(657,670,c),
(661,682,o),
(661,693,o),
(659,705,c),
(622,703,o),
(590,700,o),
(552,700,cs),
(515,700,o),
(482,703,o),
(446,705,c),
(440,693,o),
(439,682,o),
(441,670,c),
(518,650,l),
(354,422,l),
(212,650,l),
(234,660,o),
(264,665,o),
(293,670,c),
(297,682,o),
(297,693,o),
(295,705,c),
(258,703,o),
(193,700,o),
(155,700,cs),
(118,700,o),
(54,703,o),
(18,705,c),
(12,693,o),
(11,682,o),
(13,670,c),
(90,650,l),
(285,343,l),
(74,50,l),
(50,38,o),
(23,34,o),
(-6,30,c),
(-10,18,o),
(-10,7,o),
(-8,-5,c),
(29,-3,o),
(56,0,o),
(94,0,cs),
(131,0,o),
(173,-3,o),
(209,-5,c),
(215,7,o),
(216,18,o),
(214,30,c),
(137,50,l),
(312,299,l),
(471,50,l),
(449,42,o),
(422,36,o),
(390,30,c),
(386,18,o),
(386,7,o),
(388,-5,c),
(425,-3,o),
(502,0,o),
(540,0,cs),
(577,0,o),
(637,-3,o),
(673,-5,c),
(679,7,o),
(680,18,o),
(678,30,c),
(653,32,o),
(603,40,o),
(585,58,c),
(382,381,l)
);
}
);
width = 671;
}
);
unicode = 88;
},
{
glyphname = Y;
kernLeft = _KERN_Y;
kernRight = _KERN_Y;
lastChange = "2023-10-27 11:47:12 +0000";
layers = (
{
anchors = (
{
name = bottom;
pos = (328,0);
},
{
name = top;
pos = (334,705);
},
{
name = topleft;
pos = (20,705);
}
);
background = {
anchors = (
{
name = top;
pos = (334,705);
}
);
shapes = (
{
closed = 1;
nodes = (
(384,321,l),
(576,650,l),
(601,662,o),
(633,666,o),
(661,670,c),
(665,682,o),
(665,693,o),
(663,705,c),
(626,703,o),
(594,700,o),
(556,700,cs),
(519,700,o),
(479,703,o),
(443,705,c),
(437,693,o),
(436,682,o),
(438,670,c),
(515,650,l),
(349,366,l),
(345,366,l),
(180,650,l),
(207,663,o),
(234,666,o),
(261,670,c),
(265,682,o),
(265,693,o),
(263,705,c),
(226,703,o),
(161,700,o),
(123,700,cs),
(86,700,o),
(28,703,o),
(-8,705,c),
(-14,693,o),
(-15,682,o),
(-13,670,c),
(64,650,l),
(279,301,l),
(279,50,l),
(252,37,o),
(226,34,o),
(199,30,c),
(195,18,o),
(195,7,o),
(197,-5,c),
(234,-3,o),
(296,0,o),
(334,0,cs),
(371,0,o),
(430,-3,o),
(466,-5,c),
(472,7,o),
(473,18,o),
(471,30,c),
(384,50,l)
);
}
);
};
layerId = "E67231B9-FA09-451D-8B80-B70CA73DDE32";
shapes = (
{
closed = 1;
nodes = (
(384,321,l),
(576,650,l),
(601,662,o),
(633,666,o),
(661,670,c),
(665,682,o),
(665,693,o),
(663,705,c),
(626,703,o),
(594,700,o),
(556,700,cs),
(519,700,o),
(479,703,o),
(443,705,c),
(437,693,o),
(436,682,o),
(438,670,c),
(515,650,l),
(349,366,l),
(345,366,l),
(180,650,l),
(207,663,o),
(234,666,o),
(261,670,c),
(265,682,o),
(265,693,o),
(263,705,c),
(226,703,o),
(161,700,o),
(123,700,cs),
(86,700,o),
(28,703,o),
(-8,705,c),
(-14,693,o),
(-15,682,o),
(-13,670,c),
(64,650,l),
(279,301,l),
(279,50,l),
(252,37,o),
(226,34,o),
(199,30,c),
(195,18,o),
(195,7,o),
(197,-5,c),
(234,-3,o),
(296,0,o),
(334,0,cs),
(371,0,o),
(430,-3,o),
(466,-5,c),
(472,7,o),
(473,18,o),
(471,30,c),
(384,50,l)
);
}
);
width = 655;
}
);
unicode = 89;
},
{
glyphname = Yacute;
kernLeft = _KERN_Y;
kernRight = _KERN_Y;
lastChange = "2023-10-27 11:46:25 +0000";
layers = (
{
associatedMasterId = "E67231B9-FA09-451D-8B80-B70CA73DDE32";
layerId = "DA51D0F6-E92C-4977-9AEE-C0B7DC2D6803";
name = img;
width = 655;
},
{
background = {
anchors = (
{
name = top;
pos = (334,705);
}
);
shapes = (
{
closed = 1;
nodes = (
(384,321,l),
(576,650,l),
(601,662,o),
(633,666,o),
(661,670,c),
(665,682,o),
(665,693,o),
(663,705,c),
(626,703,o),
(594,700,o),
(556,700,cs),
(519,700,o),
(479,703,o),
(443,705,c),
(437,693,o),
(436,682,o),
(438,670,c),
(515,650,l),
(349,366,l),
(345,366,l),
(180,650,l),
(207,663,o),
(234,666,o),
(261,670,c),
(265,682,o),
(265,693,o),
(263,705,c),
(226,703,o),
(161,700,o),
(123,700,cs),
(86,700,o),
(28,703,o),
(-8,705,c),
(-14,693,o),
(-15,682,o),
(-13,670,c),
(64,650,l),
(279,301,l),
(279,50,l),
(252,37,o),
(226,34,o),
(199,30,c),
(195,18,o),
(195,7,o),
(197,-5,c),
(234,-3,o),
(296,0,o),
(334,0,cs),
(371,0,o),
(430,-3,o),
(466,-5,c),
(472,7,o),
(473,18,o),
(471,30,c),
(384,50,l)
);
},
{
closed = 1;
nodes = (
(511,842,l),
(503,871,o),
(483,901,o),
(457,918,c),
(319,774,l),
(325,763,o),
(330,756,o),
(342,745,c)
);
}
);
};
layerId = "E67231B9-FA09-451D-8B80-B70CA73DDE32";
shapes = (
{
ref = Y;
},
{
pos = (230,-51);
ref = acutecomb.case;
}
);
width = 655;
}
);
unicode = 221;
},
{
glyphname = Z;
lastChange = "2023-10-27 11:46:30 +0000";
layers = (
{
anchors = (
{
name = bottom;
pos = (298,0);
},
{
name = center;
pos = (298,353);
},
{
name = top;
pos = (298,705);
}
);
background = {
shapes = (
{
closed = 1;
nodes = (
(552,0,l),
(552,10,o),
(552,19,o),
(552,29,cs),
(552,82,o),
(551,134,o),
(542,185,c),
(529,190,o),
(518,190,o),
(502,188,c),
(473,45,l),
(154,45,l),
(547,660,l),
(550,672,o),
(550,686,o),
(547,700,c),
(51,700,l),
(51,638,o),
(56,577,o),
(61,515,c),
(74,510,o),
(85,510,o),
(101,512,c),
(130,655,l),
(431,655,l),
(34,45,l),
(31,30,o),
(32,15,o),
(34,0,c)
);
}
);
};
guides = (
{
pos = (0,45);
}
);
layerId = "E67231B9-FA09-451D-8B80-B70CA73DDE32";
shapes = (
{
closed = 1;
nodes = (
(552,0,l),
(552,10,o),
(552,19,o),
(552,29,cs),
(552,82,o),
(551,134,o),
(542,185,c),
(529,190,o),
(518,190,o),
(502,188,c),
(473,45,l),
(154,45,l),
(547,660,l),
(550,672,o),
(550,686,o),
(547,700,c),
(51,700,l),
(51,638,o),
(56,577,o),
(61,515,c),
(74,510,o),
(85,510,o),
(101,512,c),
(130,655,l),
(431,655,l),
(34,45,l),
(31,30,o),
(32,15,o),
(34,0,c)
);
}
);
width = 595;
}
);
unicode = 90;
},
{
glyphname = a;
kernLeft = _KERN_a_2ND;
kernRight = _KERN_a_1ST;
lastChange = "2023-10-27 11:47:12 +0000";
layers = (
{
anchors = (
{
name = bottom;
pos = (248,0);
},
{
name = ogonek;
pos = (446,10);
},
{
name = top;
pos = (241,505);
}
);
background = {
anchors = (
{
name = top;
pos = (241,505);
}
);
shapes = (
{
closed = 1;
nodes = (
(130,201,o),
(180,230,o),
(317,230,c),
(317,95,l),
(297,65,o),
(247,38,o),
(210,38,cs),
(162,38,o),
(130,65,o),
(130,120,cs)
);
},
{
closed = 1;
nodes = (
(415,317,ls),
(415,475,o),
(368,520,o),
(257,520,cs),
(182,520,o),
(122,509,o),
(59,480,c),
(58,439,o),
(67,394,o),
(79,350,c),
(89,348,o),
(112,349,o),
(123,354,c),
(136,460,l),
(166,471,o),
(196,475,o),
(230,475,cs),
(290,475,o),
(319,432,o),
(318,358,cs),
(317,270,l),
(176,273,o),
(30,244,o),
(30,110,cs),
(30,25,o),
(92,-17,o),
(172,-17,cs),
(239,-17,o),
(287,10,o),
(321,45,c),
(325,45,l),
(339,-7,l),
(355,-11,o),
(375,-13,o),
(396,-13,cs),
(427,-13,o),
(459,-10,o),
(480,-6,c),
(486,6,o),
(487,17,o),
(485,29,c),
(462,35,o),
(438,38,o),
(415,49,c)
);
}
);
};
layerId = "E67231B9-FA09-451D-8B80-B70CA73DDE32";
shapes = (
{
closed = 1;
nodes = (
(130,201,o),
(180,230,o),
(317,230,c),
(317,95,l),
(297,65,o),
(247,38,o),
(210,38,cs),
(162,38,o),
(130,65,o),
(130,120,cs)
);
},
{
closed = 1;
nodes = (
(415,317,ls),
(415,475,o),
(368,520,o),
(257,520,cs),
(182,520,o),
(122,509,o),
(59,480,c),
(58,439,o),
(67,394,o),
(79,350,c),
(89,348,o),
(112,349,o),
(123,354,c),
(136,460,l),
(166,471,o),
(196,475,o),
(230,475,cs),
(290,475,o),
(319,432,o),
(318,358,cs),
(317,270,l),
(176,273,o),
(30,244,o),
(30,110,cs),
(30,25,o),
(92,-17,o),
(172,-17,cs),
(239,-17,o),
(287,10,o),
(321,45,c),
(325,45,l),
(339,-7,l),
(355,-11,o),
(375,-13,o),
(396,-13,cs),
(427,-13,o),
(459,-10,o),
(480,-6,c),
(486,6,o),
(487,17,o),
(485,29,c),
(462,35,o),
(438,38,o),
(415,49,c)
);
}
);
width = 496;
}
);
unicode = 97;
},
{
glyphname = aacute;
kernLeft = _KERN_a_2ND;
kernRight = _KERN_a_1ST;
lastChange = "2023-10-27 11:46:44 +0000";
layers = (
{
associatedMasterId = "E67231B9-FA09-451D-8B80-B70CA73DDE32";
layerId = "DA51D0F6-E92C-4977-9AEE-C0B7DC2D6803";
name = img;
width = 496;
},
{
background = {
anchors = (
{
name = top;
pos = (241,505);
}
);
shapes = (
{
closed = 1;
nodes = (
(130,201,o),
(180,230,o),
(317,230,c),
(317,95,l),
(297,65,o),
(247,38,o),
(210,38,cs),
(162,38,o),
(130,65,o),
(130,120,cs)
);
},
{
closed = 1;
nodes = (
(415,317,ls),
(415,475,o),
(368,520,o),
(257,520,cs),
(182,520,o),
(122,509,o),
(59,480,c),
(58,439,o),
(67,394,o),
(79,350,c),
(89,348,o),
(112,349,o),
(123,354,c),
(136,460,l),
(166,471,o),
(196,475,o),
(230,475,cs),
(290,475,o),
(319,432,o),
(318,358,cs),
(317,270,l),
(176,273,o),
(30,244,o),
(30,110,cs),
(30,25,o),
(92,-17,o),
(172,-17,cs),
(239,-17,o),
(287,10,o),
(321,45,c),
(325,45,l),
(339,-7,l),
(355,-11,o),
(375,-13,o),
(396,-13,cs),
(427,-13,o),
(459,-10,o),
(480,-6,c),
(486,6,o),
(487,17,o),
(485,29,c),
(462,35,o),
(438,38,o),
(415,49,c)
);
},
{
closed = 1;
nodes = (
(197,583,l),
(207,573,o),
(221,568,o),
(233,566,c),
(277,608,o),
(316,661,o),
(357,717,c),
(337,740,o),
(307,752,o),
(277,757,c)
);
}
);
};
layerId = "E67231B9-FA09-451D-8B80-B70CA73DDE32";
shapes = (
{
ref = a;
},
{
pos = (173,0);
ref = acutecomb;
}
);
width = 496;
}
);
unicode = 225;
},
{
glyphname = acircumflex;
kernLeft = _KERN_a_2ND;
kernRight = _KERN_a_1ST;
lastChange = "2023-10-27 11:43:03 +0000";
layers = (
{
associatedMasterId = "E67231B9-FA09-451D-8B80-B70CA73DDE32";
layerId = "DA51D0F6-E92C-4977-9AEE-C0B7DC2D6803";
name = img;
width = 496;
},
{
background = {
anchors = (
{
name = top;
pos = (241,505);
}
);
shapes = (
{
closed = 1;
nodes = (
(130,201,o),
(180,230,o),
(317,230,c),
(317,95,l),
(297,65,o),
(247,38,o),
(210,38,cs),
(162,38,o),
(130,65,o),
(130,120,cs)
);
},
{
closed = 1;
nodes = (
(415,317,ls),
(415,475,o),
(368,520,o),
(257,520,cs),
(182,520,o),
(122,509,o),
(59,480,c),
(58,439,o),
(67,394,o),
(79,350,c),
(89,348,o),
(112,349,o),
(123,354,c),
(136,460,l),
(166,471,o),
(196,475,o),
(230,475,cs),
(290,475,o),
(319,432,o),
(318,358,cs),
(317,270,l),
(176,273,o),
(30,244,o),
(30,110,cs),
(30,25,o),
(92,-17,o),
(172,-17,cs),
(239,-17,o),
(287,10,o),
(321,45,c),
(325,45,l),
(339,-7,l),
(355,-11,o),
(375,-13,o),
(396,-13,cs),
(427,-13,o),
(459,-10,o),
(480,-6,c),
(486,6,o),
(487,17,o),
(485,29,c),
(462,35,o),
(438,38,o),
(415,49,c)
);
},
{
closed = 1;
nodes = (
(336,640,o),
(304,693,o),
(275,751,c),
(255,755,o),
(234,755,o),
(214,753,c),
(183,688,o),
(143,630,o),
(111,579,c),
(125,565,o),
(143,559,o),
(160,556,c),
(188,591,o),
(215,639,o),
(239,684,c),
(275,607,o),
(287,588,o),
(305,559,c),
(330,562,o),
(351,571,o),
(368,588,c)
);
}
);
};
layerId = "E67231B9-FA09-451D-8B80-B70CA73DDE32";
shapes = (
{
ref = a;
},
{
pos = (113,0);
ref = circumflexcomb;
}
);
width = 496;
}
);
unicode = 226;
},
{
glyphname = adieresis;
kernLeft = _KERN_a_2ND;
kernRight = _KERN_a_1ST;
lastChange = "2023-10-27 11:43:03 +0000";
layers = (
{
associatedMasterId = "E67231B9-FA09-451D-8B80-B70CA73DDE32";
layerId = "DA51D0F6-E92C-4977-9AEE-C0B7DC2D6803";
name = img;
width = 496;
},
{
background = {
anchors = (
{
name = top;
pos = (241,505);
}
);
shapes = (
{
closed = 1;
nodes = (
(130,201,o),
(180,230,o),
(317,230,c),
(317,95,l),
(297,65,o),
(247,38,o),
(210,38,cs),
(162,38,o),
(130,65,o),
(130,120,cs)
);
},
{
closed = 1;
nodes = (
(415,317,ls),
(415,475,o),
(368,520,o),
(257,520,cs),
(182,520,o),
(122,509,o),
(59,480,c),
(58,439,o),
(67,394,o),
(79,350,c),
(89,348,o),
(112,349,o),
(123,354,c),
(136,460,l),
(166,471,o),
(196,475,o),
(230,475,cs),
(290,475,o),
(319,432,o),
(318,358,cs),
(317,270,l),
(176,273,o),
(30,244,o),
(30,110,cs),
(30,25,o),
(92,-17,o),
(172,-17,cs),
(239,-17,o),
(287,10,o),
(321,45,c),
(325,45,l),
(339,-7,l),
(355,-11,o),
(375,-13,o),
(396,-13,cs),
(427,-13,o),
(459,-10,o),
(480,-6,c),
(486,6,o),
(487,17,o),
(485,29,c),
(462,35,o),
(438,38,o),
(415,49,c)
);
},
{
closed = 1;
nodes = (
(95,627,o),
(119,588,o),
(153,588,cs),
(183,588,o),
(218,620,o),
(218,645,cs),
(218,669,o),
(195,708,o),
(160,708,cs),
(131,708,o),
(95,676,o),
(95,652,cs)
);
},
{
closed = 1;
nodes = (
(264,627,o),
(288,588,o),
(322,588,cs),
(352,588,o),
(387,620,o),
(387,645,cs),
(387,669,o),
(364,708,o),
(329,708,cs),
(300,708,o),
(264,676,o),
(264,652,cs)
);
}
);
};
layerId = "E67231B9-FA09-451D-8B80-B70CA73DDE32";
shapes = (
{
ref = a;
},
{
pos = (84,0);
ref = dieresiscomb;
}
);
width = 496;
}
);
unicode = 228;
},
{
glyphname = agrave;
kernLeft = _KERN_a_2ND;
kernRight = _KERN_a_1ST;
lastChange = "2023-10-27 11:43:03 +0000";
layers = (
{
associatedMasterId = "E67231B9-FA09-451D-8B80-B70CA73DDE32";
layerId = "DA51D0F6-E92C-4977-9AEE-C0B7DC2D6803";
name = img;
width = 496;
},
{
background = {
anchors = (
{
name = top;
pos = (241,505);
}
);
shapes = (
{
closed = 1;
nodes = (
(130,201,o),
(180,230,o),
(317,230,c),
(317,95,l),
(297,65,o),
(247,38,o),
(210,38,cs),
(162,38,o),
(130,65,o),
(130,120,cs)
);
},
{
closed = 1;
nodes = (
(415,317,ls),
(415,475,o),
(368,520,o),
(257,520,cs),
(182,520,o),
(122,509,o),
(59,480,c),
(58,439,o),
(67,394,o),
(79,350,c),
(89,348,o),
(112,349,o),
(123,354,c),
(136,460,l),
(166,471,o),
(196,475,o),
(230,475,cs),
(290,475,o),
(319,432,o),
(318,358,cs),
(317,270,l),
(176,273,o),
(30,244,o),
(30,110,cs),
(30,25,o),
(92,-17,o),
(172,-17,cs),
(239,-17,o),
(287,10,o),
(321,45,c),
(325,45,l),
(339,-7,l),
(355,-11,o),
(375,-13,o),
(396,-13,cs),
(427,-13,o),
(459,-10,o),
(480,-6,c),
(486,6,o),
(487,17,o),
(485,29,c),
(462,35,o),
(438,38,o),
(415,49,c)
);
},
{
closed = 1;
nodes = (
(206,757,l),
(176,752,o),
(146,740,o),
(126,717,c),
(167,661,o),
(206,608,o),
(250,566,c),
(262,568,o),
(276,573,o),
(286,583,c)
);
}
);
};
layerId = "E67231B9-FA09-451D-8B80-B70CA73DDE32";
shapes = (
{
ref = a;
},
{
pos = (132,0);
ref = gravecomb;
}
);
width = 496;
}
);
unicode = 224;
},
{
glyphname = aring;
kernLeft = _KERN_a_2ND;
kernRight = _KERN_a_1ST;
lastChange = "2023-10-27 11:43:03 +0000";
layers = (
{
associatedMasterId = "E67231B9-FA09-451D-8B80-B70CA73DDE32";
layerId = "DA51D0F6-E92C-4977-9AEE-C0B7DC2D6803";
name = img;
width = 496;
},
{
background = {
anchors = (
{
name = top;
pos = (241,505);
}
);
shapes = (
{
closed = 1;
nodes = (
(130,201,o),
(180,230,o),
(317,230,c),
(317,95,l),
(297,65,o),
(247,38,o),
(210,38,cs),
(162,38,o),
(130,65,o),
(130,120,cs)
);
},
{
closed = 1;
nodes = (
(415,317,ls),
(415,475,o),
(368,520,o),
(257,520,cs),
(182,520,o),
(122,509,o),
(59,480,c),
(58,439,o),
(67,394,o),
(79,350,c),
(89,348,o),
(112,349,o),
(123,354,c),
(136,460,l),
(166,471,o),
(196,475,o),
(230,475,cs),
(290,475,o),
(319,432,o),
(318,358,cs),
(317,270,l),
(176,273,o),
(30,244,o),
(30,110,cs),
(30,25,o),
(92,-17,o),
(172,-17,cs),
(239,-17,o),
(287,10,o),
(321,45,c),
(325,45,l),
(339,-7,l),
(355,-11,o),
(375,-13,o),
(396,-13,cs),
(427,-13,o),
(459,-10,o),
(480,-6,c),
(486,6,o),
(487,17,o),
(485,29,c),
(462,35,o),
(438,38,o),
(415,49,c)
);
},
{
closed = 1;
nodes = (
(194,683,o),
(222,704,o),
(245,704,cs),
(271,704,o),
(289,676,o),
(289,657,cs),
(289,637,o),
(263,615,o),
(238,615,cs),
(215,615,o),
(194,643,o),
(194,663,cs)
);
},
{
closed = 1;
nodes = (
(136,623,o),
(181,559,o),
(235,559,cs),
(287,559,o),
(346,609,o),
(346,653,cs),
(346,694,o),
(305,758,o),
(248,758,cs),
(198,758,o),
(136,708,o),
(136,665,cs)
);
}
);
};
layerId = "E67231B9-FA09-451D-8B80-B70CA73DDE32";
shapes = (
{
ref = a;
},
{
pos = (111,0);
ref = ringcomb;
}
);
width = 496;
}
);
unicode = 229;
},
{
glyphname = atilde;
kernLeft = _KERN_a_2ND;
kernRight = _KERN_a_1ST;
lastChange = "2023-10-27 11:43:03 +0000";
layers = (
{
associatedMasterId = "E67231B9-FA09-451D-8B80-B70CA73DDE32";
layerId = "DA51D0F6-E92C-4977-9AEE-C0B7DC2D6803";
name = img;
width = 496;
},
{
background = {
anchors = (
{
name = top;
pos = (241,505);
}
);
shapes = (
{
closed = 1;
nodes = (
(130,201,o),
(180,230,o),
(317,230,c),
(317,95,l),
(297,65,o),
(247,38,o),
(210,38,cs),
(162,38,o),
(130,65,o),
(130,120,cs)
);
},
{
closed = 1;
nodes = (
(415,317,ls),
(415,475,o),
(368,520,o),
(257,520,cs),
(182,520,o),
(122,509,o),
(59,480,c),
(58,439,o),
(67,394,o),
(79,350,c),
(89,348,o),
(112,349,o),
(123,354,c),
(136,460,l),
(166,471,o),
(196,475,o),
(230,475,cs),
(290,475,o),
(319,432,o),
(318,358,cs),
(317,270,l),
(176,273,o),
(30,244,o),
(30,110,cs),
(30,25,o),
(92,-17,o),
(172,-17,cs),
(239,-17,o),
(287,10,o),
(321,45,c),
(325,45,l),
(339,-7,l),
(355,-11,o),
(375,-13,o),
(396,-13,cs),
(427,-13,o),
(459,-10,o),
(480,-6,c),
(486,6,o),
(487,17,o),
(485,29,c),
(462,35,o),
(438,38,o),
(415,49,c)
);
},
{
closed = 1;
nodes = (
(124,617,o),
(146,629,o),
(176,626,c),
(221,623,o),
(241,587,o),
(303,590,cs),
(346,592,o),
(368,629,o),
(381,675,c),
(372,683,o),
(362,686,o),
(352,686,c),
(337,663,o),
(313,655,o),
(286,660,cs),
(243,668,o),
(226,699,o),
(176,696,c),
(141,695,o),
(109,671,o),
(81,620,c),
(88,612,o),
(95,603,o),
(110,596,c)
);
}
);
};
layerId = "E67231B9-FA09-451D-8B80-B70CA73DDE32";
shapes = (
{
ref = a;
},
{
pos = (59,0);
ref = tildecomb;
}
);
width = 496;
}
);
unicode = 227;
},
{
glyphname = ae;
kernLeft = _KERN_a_2ND;
kernRight = _KERN_e_1ST;
lastChange = "2023-10-27 11:46:59 +0000";
layers = (
{
anchors = (
{
name = bottom;
pos = (393,0);
},
{
name = top;
pos = (393,505);
}
);
background = {
shapes = (
{
closed = 1;
nodes = (
(425,270,l),
(736,267,l),
(750,278,l),
(751,287,o),
(752,295,o),
(752,304,cs),
(752,429,o),
(692,520,o),
(567,520,cs),
(486,520,o),
(425,487,o),
(390,427,c),
(372,487,o),
(333,520,o),
(257,520,cs),
(182,520,o),
(122,509,o),
(59,480,c),
(59,438,o),
(66,394,o),
(79,350,c),
(89,348,o),
(112,349,o),
(123,354,c),
(136,460,l),
(166,471,o),
(196,475,o),
(230,475,cs),
(293,475,o),
(319,430,o),
(318,356,cs),
(317,270,l),
(176,273,o),
(30,242,o),
(30,108,cs),
(30,29,o),
(97,-21,o),
(177,-21,cs),
(259,-21,o),
(322,11,o),
(363,81,c),
(407,16,o),
(481,-20,o),
(572,-20,cs),
(638,-20,o),
(695,9,o),
(734,57,c),
(733,67,o),
(728,76,o),
(716,81,c),
(663,45,o),
(640,37,o),
(575,37,cs),
(482,37,o),
(425,115,o),
(425,250,cs)
);
},
{
closed = 1;
nodes = (
(130,199,o),
(180,230,o),
(317,230,c),
(320,95,o),
(286,38,o),
(210,38,cs),
(162,38,o),
(130,63,o),
(130,118,cs)
);
},
{
closed = 1;
nodes = (
(629,473,o),
(657,426,o),
(657,323,c),
(430,311,l),
(441,420,o),
(484,473,o),
(560,473,cs)
);
}
);
};
layerId = "E67231B9-FA09-451D-8B80-B70CA73DDE32";
shapes = (
{
closed = 1;
nodes = (
(425,270,l),
(736,267,l),
(750,278,l),
(751,287,o),
(752,295,o),
(752,304,cs),
(752,429,o),
(692,520,o),
(567,520,cs),
(486,520,o),
(425,487,o),
(390,427,c),
(372,487,o),
(333,520,o),
(257,520,cs),
(182,520,o),
(122,509,o),
(59,480,c),
(59,438,o),
(66,394,o),
(79,350,c),
(89,348,o),
(112,349,o),
(123,354,c),
(136,460,l),
(166,471,o),
(196,475,o),
(230,475,cs),
(293,475,o),
(319,430,o),
(318,356,cs),
(317,270,l),
(176,273,o),
(30,242,o),
(30,108,cs),
(30,29,o),
(97,-21,o),
(177,-21,cs),
(259,-21,o),
(322,11,o),
(363,81,c),
(407,16,o),
(481,-20,o),
(572,-20,cs),
(638,-20,o),
(695,9,o),
(734,57,c),
(733,67,o),
(728,76,o),
(716,81,c),
(663,45,o),
(640,37,o),
(575,37,cs),
(482,37,o),
(425,115,o),
(425,250,cs)
);
},
{
closed = 1;
nodes = (
(130,199,o),
(180,230,o),
(317,230,c),
(320,95,o),
(286,38,o),
(210,38,cs),
(162,38,o),
(130,63,o),
(130,118,cs)
);
},
{
closed = 1;
nodes = (
(629,473,o),
(657,426,o),
(657,323,c),
(430,311,l),
(441,420,o),
(484,473,o),
(560,473,cs)
);
}
);
width = 786;
}
);
unicode = 230;
},
{
glyphname = b;
kernLeft = _KERN_b_2ND;
kernRight = _KERN_o_1ST;
lastChange = "2023-10-27 11:46:56 +0000";
layers = (
{
anchors = (
{
name = bottom;
pos = (286,0);
},
{
name = center;
pos = (286,253);
},
{
name = top;
pos = (286,505);
}
);
background = {
shapes = (
{
closed = 1;
nodes = (
(167,745,l),
(154,751,o),
(140,755,o),
(127,756,c),
(85,745,o),
(42,736,o),
(-6,729,c),
(-12,718,o),
(-13,707,o),
(-11,694,c),
(72,686,l),
(72,18,l),
(128,-6,o),
(207,-20,o),
(262,-20,cs),
(421,-20,o),
(532,74,o),
(532,249,cs),
(532,408,o),
(451,510,o),
(322,510,cs),
(277,510,o),
(225,497,o),
(172,450,c),
(167,455,l)
);
},
{
closed = 1;
nodes = (
(172,392,l),
(190,417,o),
(242,451,o),
(292,451,cs),
(364,451,o),
(425,389,o),
(425,249,cs),
(425,104,o),
(366,20,o),
(272,20,cs),
(227,20,o),
(201,29,o),
(172,43,c)
);
}
);
};
layerId = "E67231B9-FA09-451D-8B80-B70CA73DDE32";
shapes = (
{
closed = 1;
nodes = (
(167,745,l),
(154,751,o),
(140,755,o),
(127,756,c),
(85,745,o),
(42,736,o),
(-6,729,c),
(-12,718,o),
(-13,707,o),
(-11,694,c),
(72,686,l),
(72,18,l),
(128,-6,o),
(207,-20,o),
(262,-20,cs),
(421,-20,o),
(532,74,o),
(532,249,cs),
(532,408,o),
(451,510,o),
(322,510,cs),
(277,510,o),
(225,497,o),
(172,450,c),
(167,455,l)
);
},
{
closed = 1;
nodes = (
(172,392,l),
(190,417,o),
(242,451,o),
(292,451,cs),
(364,451,o),
(425,389,o),
(425,249,cs),
(425,104,o),
(366,20,o),
(272,20,cs),
(227,20,o),
(201,29,o),
(172,43,c)
);
}
);
width = 572;
}
);
unicode = 98;
},
{
glyphname = c;
kernLeft = _KERN_o_2ND;
kernRight = _KERN_c_1ST;
lastChange = "2023-10-27 11:47:22 +0000";
layers = (
{
anchors = (
{
name = bottom;
pos = (299,-20);
},
{
name = top;
pos = (272,505);
}
);
background = {
anchors = (
{
name = bottom;
pos = (279,-20);
}
);
shapes = (
{
closed = 1;
nodes = (
(390,354,l),
(399,350,o),
(408,349,o),
(418,349,cs),
(423,349,o),
(428,349,o),
(434,350,c),
(447,390,o),
(454,435,o),
(454,486,c),
(402,509,o),
(349,518,o),
(299,518,cs),
(156,518,o),
(37,426,o),
(37,250,cs),
(37,79,o),
(156,-17,o),
(281,-17,cs),
(341,-17,o),
(402,6,o),
(452,58,c),
(449,68,o),
(445,77,o),
(434,84,c),
(388,54,o),
(340,37,o),
(296,37,cs),
(212,37,o),
(144,100,o),
(144,250,cs),
(144,381,o),
(196,474,o),
(302,474,cs),
(325,474,o),
(357,469,o),
(377,460,c)
);
}
);
};
layerId = "E67231B9-FA09-451D-8B80-B70CA73DDE32";
shapes = (
{
closed = 1;
nodes = (
(390,354,l),
(399,350,o),
(408,349,o),
(418,349,cs),
(423,349,o),
(428,349,o),
(434,350,c),
(447,390,o),
(454,435,o),
(454,486,c),
(402,509,o),
(349,518,o),
(299,518,cs),
(156,518,o),
(37,426,o),
(37,250,cs),
(37,79,o),
(156,-17,o),
(281,-17,cs),
(341,-17,o),
(402,6,o),
(452,58,c),
(449,68,o),
(445,77,o),
(434,84,c),
(388,54,o),
(340,37,o),
(296,37,cs),
(212,37,o),
(144,100,o),
(144,250,cs),
(144,381,o),
(196,474,o),
(302,474,cs),
(325,474,o),
(357,469,o),
(377,460,c)
);
}
);
width = 484;
}
);
unicode = 99;
},
{
glyphname = ccedilla;
kernLeft = _KERN_o_2ND;
kernRight = _KERN_c_1ST;
lastChange = "2023-10-27 11:47:22 +0000";
layers = (
{
associatedMasterId = "E67231B9-FA09-451D-8B80-B70CA73DDE32";
layerId = "DA51D0F6-E92C-4977-9AEE-C0B7DC2D6803";
name = img;
width = 484;
},
{
background = {
shapes = (
{
closed = 1;
nodes = (
(287,-17,l),
(345,-15,o),
(404,8,o),
(452,58,c),
(449,68,o),
(445,77,o),
(434,84,c),
(388,54,o),
(340,37,o),
(296,37,cs),
(212,37,o),
(144,100,o),
(144,250,cs),
(144,381,o),
(196,474,o),
(302,474,cs),
(325,474,o),
(357,469,o),
(377,460,c),
(390,354,l),
(399,350,o),
(408,349,o),
(418,349,cs),
(423,349,o),
(428,349,o),
(434,350,c),
(447,390,o),
(454,435,o),
(454,486,c),
(402,509,o),
(349,518,o),
(299,518,cs),
(156,518,o),
(37,426,o),
(37,250,cs),
(37,93,o),
(137,0,o),
(250,-15,c),
(252,-105,l),
(308,-105,o),
(342,-126,o),
(342,-163,cs),
(342,-188,o),
(312,-213,o),
(268,-213,cs),
(251,-213,o),
(231,-210,o),
(208,-201,c),
(199,-208,o),
(194,-217,o),
(193,-230,c),
(218,-239,o),
(252,-243,o),
(274,-243,cs),
(360,-243,o),
(410,-198,o),
(410,-141,cs),
(410,-85,o),
(372,-56,o),
(293,-56,c)
);
}
);
};
layerId = "E67231B9-FA09-451D-8B80-B70CA73DDE32";
shapes = (
{
ref = c;
},
{
pos = (170,-9);
ref = cedillacomb;
}
);
width = 484;
}
);
unicode = 231;
},
{
glyphname = d;
lastChange = "2023-10-27 11:47:33 +0000";
layers = (
{
anchors = (
{
name = bottom;
pos = (293,0);
},
{
name = center;
pos = (293,253);
},
{
name = top;
pos = (293,704);
},
{
name = topright;
pos = (566,704);
}
);
background = {
shapes = (
{
closed = 1;
nodes = (
(194,38,o),
(146,112,o),
(146,250,cs),
(146,385,o),
(196,471,o),
(300,471,cs),
(338,471,o),
(373,461,o),
(399,439,c),
(399,91,l),
(374,64,o),
(337,38,o),
(285,38,cs)
);
},
{
closed = 1;
nodes = (
(499,745,l),
(486,751,o),
(472,755,o),
(459,756,c),
(417,745,o),
(372,736,o),
(324,729,c),
(318,718,o),
(317,707,o),
(319,694,c),
(402,686,l),
(402,494,l),
(399,494,l),
(370,509,o),
(329,519,o),
(292,519,cs),
(138,519,o),
(40,415,o),
(40,241,cs),
(40,88,o),
(131,-20,o),
(244,-20,cs),
(300,-20,o),
(343,-3,o),
(399,45,c),
(404,45,l),
(407,26,o),
(412,9,o),
(423,-8,c),
(439,-12,o),
(459,-14,o),
(480,-14,cs),
(511,-14,o),
(543,-11,o),
(564,-7,c),
(570,5,o),
(571,15,o),
(569,28,c),
(544,30,o),
(511,37,o),
(499,48,c)
);
}
);
};
guides = (
{
pos = (0,-42);
},
{
angle = 90;
pos = (399,0);
}
);
layerId = "E67231B9-FA09-451D-8B80-B70CA73DDE32";
shapes = (
{
closed = 1;
nodes = (
(194,38,o),
(146,112,o),
(146,250,cs),
(146,385,o),
(196,471,o),
(300,471,cs),
(338,471,o),
(373,461,o),
(399,439,c),
(399,91,l),
(374,64,o),
(337,38,o),
(285,38,cs)
);
},
{
closed = 1;
nodes = (
(499,745,l),
(486,751,o),
(472,755,o),
(459,756,c),
(417,745,o),
(372,736,o),
(324,729,c),
(318,718,o),
(317,707,o),
(319,694,c),
(402,686,l),
(402,494,l),
(399,494,l),
(370,509,o),
(329,519,o),
(292,519,cs),
(138,519,o),
(40,415,o),
(40,241,cs),
(40,88,o),
(131,-20,o),
(244,-20,cs),
(300,-20,o),
(343,-3,o),
(399,45,c),
(404,45,l),
(407,26,o),
(412,9,o),
(423,-8,c),
(439,-12,o),
(459,-14,o),
(480,-14,cs),
(511,-14,o),
(543,-11,o),
(564,-7,c),
(570,5,o),
(571,15,o),
(569,28,c),
(544,30,o),
(511,37,o),
(499,48,c)
);
}
);
width = 586;
}
);
unicode = 100;
},
{
glyphname = eth;
lastChange = "2023-10-27 11:47:12 +0000";
layers = (
{
associatedMasterId = "E67231B9-FA09-451D-8B80-B70CA73DDE32";
layerId = "37E99AEB-8AF4-41FE-81C5-9E9421C04E2B";
name = public.background;
width = 579;
},
{
anchors = (
{
name = bottom;
pos = (290,0);
},
{
name = top;
pos = (290,984);
}
);
background = {
shapes = (
{
closed = 1;
nodes = (
(458,691,l),
(459,701,o),
(447,727,o),
(440,739,c),
(335,679,l),
(288,709,o),
(234,730,o),
(174,740,c),
(167,725,o),
(169,709,o),
(172,694,c),
(213,681,o),
(248,665,o),
(279,647,c),
(208,606,l),
(207,599,o),
(220,567,o),
(227,558,c),
(325,615,l),
(373,575,o),
(403,524,o),
(420,459,c),
(381,486,o),
(334,501,o),
(283,501,cs),
(143,501,o),
(37,390,o),
(37,240,cs),
(37,86,o),
(143,-20,o),
(283,-20,cs),
(423,-20,o),
(529,86,o),
(529,240,cs),
(529,245,o),
(529,250,o),
(528,256,c),
(529,256,l),
(529,429,o),
(474,562,o),
(379,645,c)
);
},
{
closed = 1;
nodes = (
(422,120,o),
(388,24,o),
(285,24,cs),
(186,24,o),
(144,121,o),
(144,234,cs),
(144,356,o),
(178,457,o),
(281,457,cs),
(380,457,o),
(422,355,o),
(422,227,cs)
);
}
);
};
layerId = "E67231B9-FA09-451D-8B80-B70CA73DDE32";
shapes = (
{
closed = 1;
nodes = (
(458,691,l),
(459,701,o),
(447,727,o),
(440,739,c),
(335,679,l),
(288,709,o),
(234,730,o),
(174,740,c),
(167,725,o),
(169,709,o),
(172,694,c),
(213,681,o),
(248,665,o),
(279,647,c),
(208,606,l),
(207,599,o),
(220,567,o),
(227,558,c),
(325,615,l),
(373,575,o),
(403,524,o),
(420,459,c),
(381,486,o),
(334,501,o),
(283,501,cs),
(143,501,o),
(37,390,o),
(37,240,cs),
(37,86,o),
(143,-20,o),
(283,-20,cs),
(423,-20,o),
(529,86,o),
(529,240,cs),
(529,245,o),
(529,250,o),
(528,256,c),
(529,256,l),
(529,429,o),
(474,562,o),
(379,645,c)
);
},
{
closed = 1;
nodes = (
(422,120,o),
(388,24,o),
(285,24,cs),
(186,24,o),
(144,121,o),
(144,234,cs),
(144,356,o),
(178,457,o),
(281,457,cs),
(380,457,o),
(422,355,o),
(422,227,cs)
);
}
);
width = 579;
}
);
unicode = 240;
},
{
glyphname = e;
kernLeft = _KERN_o_2ND;
kernRight = _KERN_e_1ST;
lastChange = "2023-10-27 11:47:12 +0000";
layers = (
{
anchors = (
{
name = bottom;
pos = (248,0);
},
{
name = ogonek;
pos = (446,10);
},
{
name = top;
pos = (275,503);
}
);
background = {
anchors = (
{
name = top;
pos = (275,503);
}
);
shapes = (
{
closed = 1;
nodes = (
(143,270,l),
(445,267,l),
(459,278,l),
(460,287,o),
(460,295,o),
(460,304,cs),
(460,429,o),
(404,517,o),
(286,517,cs),
(148,517,o),
(37,420,o),
(37,250,cs),
(37,84,o),
(139,-17,o),
(291,-17,cs),
(350,-17,o),
(410,11,o),
(452,59,c),
(451,69,o),
(446,78,o),
(434,83,c),
(381,47,o),
(355,38,o),
(294,38,cs),
(201,38,o),
(143,115,o),
(143,250,cs)
);
},
{
closed = 1;
nodes = (
(347,474,o),
(365,426,o),
(365,323,c),
(147,311,l),
(163,421,o),
(227,474,o),
(285,474,cs)
);
}
);
};
layerId = "E67231B9-FA09-451D-8B80-B70CA73DDE32";
shapes = (
{
closed = 1;
nodes = (
(143,270,l),
(445,267,l),
(459,278,l),
(460,287,o),
(460,295,o),
(460,304,cs),
(460,429,o),
(404,517,o),
(286,517,cs),
(148,517,o),
(37,420,o),
(37,250,cs),
(37,84,o),
(139,-17,o),
(291,-17,cs),
(350,-17,o),
(410,11,o),
(452,59,c),
(451,69,o),
(446,78,o),
(434,83,c),
(381,47,o),
(355,38,o),
(294,38,cs),
(201,38,o),
(143,115,o),
(143,250,cs)
);
},
{
closed = 1;
nodes = (
(347,474,o),
(365,426,o),
(365,323,c),
(147,311,l),
(163,421,o),
(227,474,o),
(285,474,cs)
);
}
);
width = 495;
}
);
unicode = 101;
},
{
glyphname = eacute;
kernLeft = _KERN_o_2ND;
kernRight = _KERN_e_1ST;
lastChange = "2023-10-27 11:46:44 +0000";
layers = (
{
associatedMasterId = "E67231B9-FA09-451D-8B80-B70CA73DDE32";
layerId = "DA51D0F6-E92C-4977-9AEE-C0B7DC2D6803";
name = img;
width = 505;
},
{
background = {
anchors = (
{
name = top;
pos = (275,503);
}
);
shapes = (
{
closed = 1;
nodes = (
(143,270,l),
(445,267,l),
(459,278,l),
(460,287,o),
(460,295,o),
(460,304,cs),
(460,429,o),
(404,517,o),
(286,517,cs),
(148,517,o),
(37,420,o),
(37,250,cs),
(37,84,o),
(139,-17,o),
(291,-17,cs),
(350,-17,o),
(410,11,o),
(452,59,c),
(451,69,o),
(446,78,o),
(434,83,c),
(381,47,o),
(355,38,o),
(294,38,cs),
(201,38,o),
(143,115,o),
(143,250,cs)
);
},
{
closed = 1;
nodes = (
(347,474,o),
(365,426,o),
(365,323,c),
(147,311,l),
(163,421,o),
(227,474,o),
(285,474,cs)
);
},
{
closed = 1;
nodes = (
(231,581,l),
(241,571,o),
(255,566,o),
(267,564,c),
(311,606,o),
(350,659,o),
(391,715,c),
(371,738,o),
(341,750,o),
(311,755,c)
);
}
);
};
layerId = "E67231B9-FA09-451D-8B80-B70CA73DDE32";
shapes = (
{
ref = e;
},
{
pos = (207,-2);
ref = acutecomb;
}
);
width = 495;
}
);
unicode = 233;
},
{
glyphname = ecircumflex;
kernLeft = _KERN_o_2ND;
kernRight = _KERN_e_1ST;
lastChange = "2023-10-27 11:43:03 +0000";
layers = (
{
associatedMasterId = "E67231B9-FA09-451D-8B80-B70CA73DDE32";
layerId = "DA51D0F6-E92C-4977-9AEE-C0B7DC2D6803";
name = img;
width = 505;
},
{
background = {
anchors = (
{
name = top;
pos = (275,503);
}
);
shapes = (
{
closed = 1;
nodes = (
(143,270,l),
(445,267,l),
(459,278,l),
(460,287,o),
(460,295,o),
(460,304,cs),
(460,429,o),
(404,517,o),
(286,517,cs),
(148,517,o),
(37,420,o),
(37,250,cs),
(37,84,o),
(139,-17,o),
(291,-17,cs),
(350,-17,o),
(410,11,o),
(452,59,c),
(451,69,o),
(446,78,o),
(434,83,c),
(381,47,o),
(355,38,o),
(294,38,cs),
(201,38,o),
(143,115,o),
(143,250,cs)
);
},
{
closed = 1;
nodes = (
(347,474,o),
(365,426,o),
(365,323,c),
(147,311,l),
(163,421,o),
(227,474,o),
(285,474,cs)
);
},
{
closed = 1;
nodes = (
(375,638,o),
(343,691,o),
(314,749,c),
(294,753,o),
(273,753,o),
(253,751,c),
(222,686,o),
(182,628,o),
(150,577,c),
(164,563,o),
(182,557,o),
(199,554,c),
(227,589,o),
(254,637,o),
(278,682,c),
(314,605,o),
(326,586,o),
(344,557,c),
(369,560,o),
(390,569,o),
(407,586,c)
);
}
);
};
layerId = "E67231B9-FA09-451D-8B80-B70CA73DDE32";
shapes = (
{
ref = e;
},
{
pos = (147,-2);
ref = circumflexcomb;
}
);
width = 495;
}
);
unicode = 234;
},
{
glyphname = edieresis;
kernLeft = _KERN_o_2ND;
kernRight = _KERN_e_1ST;
lastChange = "2023-10-27 11:43:03 +0000";
layers = (
{
associatedMasterId = "E67231B9-FA09-451D-8B80-B70CA73DDE32";
layerId = "DA51D0F6-E92C-4977-9AEE-C0B7DC2D6803";
name = img;
width = 505;
},
{
background = {
anchors = (
{
name = top;
pos = (275,503);
}
);
shapes = (
{
closed = 1;
nodes = (
(143,270,l),
(445,267,l),
(459,278,l),
(460,287,o),
(460,295,o),
(460,304,cs),
(460,429,o),
(404,517,o),
(286,517,cs),
(148,517,o),
(37,420,o),
(37,250,cs),
(37,84,o),
(139,-17,o),
(291,-17,cs),
(350,-17,o),
(410,11,o),
(452,59,c),
(451,69,o),
(446,78,o),
(434,83,c),
(381,47,o),
(355,38,o),
(294,38,cs),
(201,38,o),
(143,115,o),
(143,250,cs)
);
},
{
closed = 1;
nodes = (
(347,474,o),
(365,426,o),
(365,323,c),
(147,311,l),
(163,421,o),
(227,474,o),
(285,474,cs)
);
},
{
closed = 1;
nodes = (
(129,625,o),
(153,586,o),
(187,586,cs),
(217,586,o),
(252,618,o),
(252,643,cs),
(252,667,o),
(229,706,o),
(194,706,cs),
(165,706,o),
(129,674,o),
(129,650,cs)
);
},
{
closed = 1;
nodes = (
(298,625,o),
(322,586,o),
(356,586,cs),
(386,586,o),
(421,618,o),
(421,643,cs),
(421,667,o),
(398,706,o),
(363,706,cs),
(334,706,o),
(298,674,o),
(298,650,cs)
);
}
);
};
layerId = "E67231B9-FA09-451D-8B80-B70CA73DDE32";
shapes = (
{
ref = e;
},
{
pos = (118,-2);
ref = dieresiscomb;
}
);
width = 495;
}
);
unicode = 235;
},
{
glyphname = egrave;
kernLeft = _KERN_o_2ND;
kernRight = _KERN_e_1ST;
lastChange = "2023-10-27 11:43:03 +0000";
layers = (
{
associatedMasterId = "E67231B9-FA09-451D-8B80-B70CA73DDE32";
layerId = "DA51D0F6-E92C-4977-9AEE-C0B7DC2D6803";
name = img;
width = 505;
},
{
background = {
anchors = (
{
name = top;
pos = (275,503);
}
);
shapes = (
{
closed = 1;
nodes = (
(143,270,l),
(445,267,l),
(459,278,l),
(460,287,o),
(460,295,o),
(460,304,cs),
(460,429,o),
(404,517,o),
(286,517,cs),
(148,517,o),
(37,420,o),
(37,250,cs),
(37,84,o),
(139,-17,o),
(291,-17,cs),
(350,-17,o),
(410,11,o),
(452,59,c),
(451,69,o),
(446,78,o),
(434,83,c),
(381,47,o),
(355,38,o),
(294,38,cs),
(201,38,o),
(143,115,o),
(143,250,cs)
);
},
{
closed = 1;
nodes = (
(347,474,o),
(365,426,o),
(365,323,c),
(147,311,l),
(163,421,o),
(227,474,o),
(285,474,cs)
);
},
{
closed = 1;
nodes = (
(239,755,l),
(209,750,o),
(179,738,o),
(159,715,c),
(200,659,o),
(239,606,o),
(283,564,c),
(295,566,o),
(309,571,o),
(319,581,c)
);
}
);
};
layerId = "E67231B9-FA09-451D-8B80-B70CA73DDE32";
shapes = (
{
ref = e;
},
{
pos = (166,-2);
ref = gravecomb;
}
);
width = 495;
}
);
unicode = 232;
},
{
glyphname = f;
kernLeft = _KERN_f_2ND;
lastChange = "2023-10-27 11:47:12 +0000";
layers = (
{
anchors = (
{
name = bottom;
pos = (176,0);
},
{
name = top;
pos = (176,984);
}
);
background = {
shapes = (
{
closed = 1;
nodes = (
(326,620,l),
(337,615,o),
(357,614,o),
(367,616,c),
(376,651,o),
(382,688,o),
(386,725,c),
(350,747,o),
(321,755,o),
(268,755,cs),
(166,755,o),
(98,671,o),
(98,535,cs),
(98,475,l),
(43,475,l),
(37,468,o),
(31,438,o),
(33,425,c),
(98,425,l),
(98,50,l),
(76,40,o),
(52,35,o),
(28,30,c),
(24,18,o),
(24,7,o),
(26,-5,c),
(63,-3,o),
(110,0,o),
(148,0,cs),
(185,0,o),
(254,-3,o),
(290,-5,c),
(296,7,o),
(297,18,o),
(295,30,c),
(198,50,l),
(198,425,l),
(328,425,l),
(334,435,o),
(338,459,o),
(338,475,c),
(198,475,l),
(198,560,ls),
(198,657,o),
(223,716,o),
(276,716,cs),
(290,716,o),
(301,714,o),
(315,708,c)
);
}
);
};
layerId = "E67231B9-FA09-451D-8B80-B70CA73DDE32";
shapes = (
{
closed = 1;
nodes = (
(326,620,l),
(337,615,o),
(357,614,o),
(367,616,c),
(376,651,o),
(382,688,o),
(386,725,c),
(350,747,o),
(321,755,o),
(268,755,cs),
(166,755,o),
(98,671,o),
(98,535,cs),
(98,475,l),
(43,475,l),
(37,468,o),
(31,438,o),
(33,425,c),
(98,425,l),
(98,50,l),
(76,40,o),
(52,35,o),
(28,30,c),
(24,18,o),
(24,7,o),
(26,-5,c),
(63,-3,o),
(110,0,o),
(148,0,cs),
(185,0,o),
(254,-3,o),
(290,-5,c),
(296,7,o),
(297,18,o),
(295,30,c),
(198,50,l),
(198,425,l),
(328,425,l),
(334,435,o),
(338,459,o),
(338,475,c),
(198,475,l),
(198,560,ls),
(198,657,o),
(223,716,o),
(276,716,cs),
(290,716,o),
(301,714,o),
(315,708,c)
);
}
);
width = 352;
}
);
unicode = 102;
},
{
glyphname = g;
lastChange = "2023-10-27 11:47:12 +0000";
layers = (
{
anchors = (
{
name = bottom;
pos = (261,-270);
},
{
name = top;
pos = (261,505);
}
);
background = {
shapes = (
{
closed = 1;
nodes = (
(344,167,o),
(464,215,o),
(464,333,cs),
(464,400,o),
(433,444,o),
(390,470,c),
(435,473,o),
(481,484,o),
(517,496,c),
(521,515,o),
(504,560,o),
(489,569,c),
(356,487,l),
(324,500,o),
(288,505,o),
(256,505,cs),
(163,505,o),
(48,462,o),
(48,333,cs),
(48,263,o),
(89,218,o),
(142,192,c),
(121,172,o),
(101,145,o),
(101,101,cs),
(101,74,o),
(111,55,o),
(134,35,c),
(62,6,o),
(40,-46,o),
(40,-94,cs),
(40,-165,o),
(104,-226,o),
(256,-226,cs),
(375,-226,o),
(507,-174,o),
(507,-55,cs),
(507,49,o),
(437,71,o),
(304,87,cs),
(168,103,o),
(162,120,o),
(162,139,cs),
(162,147,o),
(166,158,o),
(180,178,c),
(206,170,o),
(232,167,o),
(256,167,cs)
);
},
{
closed = 1;
nodes = (
(188,205,o),
(139,259,o),
(139,335,cs),
(139,418,o),
(188,467,o),
(256,467,cs),
(324,467,o),
(373,418,o),
(373,335,cs),
(373,259,o),
(324,205,o),
(256,205,cs)
);
},
{
closed = 1;
nodes = (
(347,-4,o),
(417,-22,o),
(417,-81,cs),
(417,-132,o),
(359,-188,o),
(261,-188,cs),
(170,-188,o),
(121,-136,o),
(121,-80,cs),
(121,-29,o),
(138,-4,o),
(170,23,c),
(207,14,o),
(247,11,o),
(271,7,cs)
);
}
);
};
guides = (
{
angle = 90;
pos = (255,0);
},
{
angle = 90;
pos = (256,0);
}
);
layerId = "E67231B9-FA09-451D-8B80-B70CA73DDE32";
shapes = (
{
closed = 1;
nodes = (
(344,167,o),
(464,215,o),
(464,333,cs),
(464,400,o),
(433,444,o),
(390,470,c),
(435,473,o),
(481,484,o),
(517,496,c),
(521,515,o),
(504,560,o),
(489,569,c),
(356,487,l),
(324,500,o),
(288,505,o),
(256,505,cs),
(163,505,o),
(48,462,o),
(48,333,cs),
(48,263,o),
(89,218,o),
(142,192,c),
(121,172,o),
(101,145,o),
(101,101,cs),
(101,74,o),
(111,55,o),
(134,35,c),
(62,6,o),
(40,-46,o),
(40,-94,cs),
(40,-165,o),
(104,-226,o),
(256,-226,cs),
(375,-226,o),
(507,-174,o),
(507,-55,cs),
(507,49,o),
(437,71,o),
(304,87,cs),
(168,103,o),
(162,120,o),
(162,139,cs),
(162,147,o),
(166,158,o),
(180,178,c),
(206,170,o),
(232,167,o),
(256,167,cs)
);
},
{
closed = 1;
nodes = (
(188,205,o),
(139,259,o),
(139,335,cs),
(139,418,o),
(188,467,o),
(256,467,cs),
(324,467,o),
(373,418,o),
(373,335,cs),
(373,259,o),
(324,205,o),
(256,205,cs)
);
},
{
closed = 1;
nodes = (
(347,-4,o),
(417,-22,o),
(417,-81,cs),
(417,-132,o),
(359,-188,o),
(261,-188,cs),
(170,-188,o),
(121,-136,o),
(121,-80,cs),
(121,-29,o),
(138,-4,o),
(170,23,c),
(207,14,o),
(247,11,o),
(271,7,cs)
);
}
);
width = 522;
}
);
unicode = 103;
},
{
glyphname = h;
kernLeft = _KERN_h_2ND;
kernRight = _KERN_n_1ST;
lastChange = "2023-10-27 11:48:02 +0000";
layers = (
{
anchors = (
{
name = bottom;
pos = (299,0);
},
{
name = center;
pos = (299,984);
},
{
name = top;
pos = (116,715);
}
);
background = {
shapes = (
{
closed = 1;
nodes = (
(184,745,l),
(171,751,o),
(159,755,o),
(146,756,c),
(104,745,o),
(59,736,o),
(11,729,c),
(5,718,o),
(4,707,o),
(6,694,c),
(89,686,l),
(89,50,l),
(70,41,o),
(44,36,o),
(19,30,c),
(15,18,o),
(15,7,o),
(17,-5,c),
(54,-3,o),
(101,0,o),
(139,0,cs),
(176,0,o),
(215,-3,o),
(251,-5,c),
(257,7,o),
(258,18,o),
(256,30,c),
(189,50,l),
(189,392,l),
(220,427,o),
(270,450,o),
(313,450,cs),
(367,450,o),
(410,433,o),
(410,349,cs),
(410,50,l),
(389,40,o),
(364,35,o),
(340,30,c),
(336,18,o),
(336,7,o),
(338,-5,c),
(375,-3,o),
(422,0,o),
(460,0,cs),
(497,0,o),
(541,-3,o),
(577,-5,c),
(583,7,o),
(584,18,o),
(582,30,c),
(510,50,l),
(510,364,ls),
(510,457,o),
(462,520,o),
(353,520,cs),
(308,520,o),
(249,500,o),
(189,445,c),
(184,445,l)
);
}
);
};
layerId = "E67231B9-FA09-451D-8B80-B70CA73DDE32";
shapes = (
{
closed = 1;
nodes = (
(184,745,l),
(171,751,o),
(159,755,o),
(146,756,c),
(104,745,o),
(59,736,o),
(11,729,c),
(5,718,o),
(4,707,o),
(6,694,c),
(89,686,l),
(89,50,l),
(70,41,o),
(44,36,o),
(19,30,c),
(15,18,o),
(15,7,o),
(17,-5,c),
(54,-3,o),
(101,0,o),
(139,0,cs),
(176,0,o),
(215,-3,o),
(251,-5,c),
(257,7,o),
(258,18,o),
(256,30,c),
(189,50,l),
(189,392,l),
(220,427,o),
(270,450,o),
(313,450,cs),
(367,450,o),
(410,433,o),
(410,349,cs),
(410,50,l),
(389,40,o),
(364,35,o),
(340,30,c),
(336,18,o),
(336,7,o),
(338,-5,c),
(375,-3,o),
(422,0,o),
(460,0,cs),
(497,0,o),
(541,-3,o),
(577,-5,c),
(583,7,o),
(584,18,o),
(582,30,c),
(510,50,l),
(510,364,ls),
(510,457,o),
(462,520,o),
(353,520,cs),
(308,520,o),
(249,500,o),
(189,445,c),
(184,445,l)
);
}
);
width = 598;
}
);
unicode = 104;
},
{
glyphname = i;
kernLeft = _KERN_i;
kernRight = _KERN_i;
lastChange = "2023-10-27 11:48:12 +0000";
layers = (
{
background = {
shapes = (
{
closed = 1;
nodes = (
(66,641,o),
(93,601,o),
(127,601,cs),
(161,601,o),
(198,633,o),
(198,660,cs),
(198,687,o),
(173,728,o),
(137,728,cs),
(104,728,o),
(66,695,o),
(66,669,cs)
);
},
{
closed = 1;
nodes = (
(204,499,l),
(191,505,o),
(179,509,o),
(166,510,c),
(124,499,o),
(74,490,o),
(26,483,c),
(20,472,o),
(19,461,o),
(21,448,c),
(104,440,l),
(104,50,l),
(85,41,o),
(59,36,o),
(34,30,c),
(30,18,o),
(30,7,o),
(32,-5,c),
(69,-3,o),
(116,0,o),
(154,0,cs),
(191,0,o),
(230,-3,o),
(266,-5,c),
(272,7,o),
(273,18,o),
(271,30,c),
(204,50,l)
);
}
);
};
layerId = "E67231B9-FA09-451D-8B80-B70CA73DDE32";
shapes = (
{
closed = 1;
nodes = (
(161,601,o),
(198,633,o),
(198,660,cs),
(198,687,o),
(173,728,o),
(137,728,cs),
(104,728,o),
(66,695,o),
(66,669,cs),
(66,641,o),
(93,601,o),
(127,601,cs)
);
},
{
ref = idotless;
}
);
width = 290;
}
);
unicode = 105;
},
{
glyphname = idotless;
kernLeft = _KERN_i;
kernRight = _KERN_i;
lastChange = "2023-10-27 11:47:12 +0000";
layers = (
{
anchors = (
{
name = bottom;
pos = (145,0);
},
{
name = ogonek;
pos = (272,0);
},
{
name = top;
pos = (142,505);
}
);
background = {
anchors = (
{
name = top;
pos = (142,505);
}
);
shapes = (
{
closed = 1;
nodes = (
(204,499,l),
(191,505,o),
(179,509,o),
(166,510,c),
(124,499,o),
(74,490,o),
(26,483,c),
(20,472,o),
(19,461,o),
(21,448,c),
(104,440,l),
(104,50,l),
(85,41,o),
(59,36,o),
(34,30,c),
(30,18,o),
(30,7,o),
(32,-5,c),
(69,-3,o),
(116,0,o),
(154,0,cs),
(191,0,o),
(230,-3,o),
(266,-5,c),
(272,7,o),
(273,18,o),
(271,30,c),
(204,50,l)
);
}
);
};
layerId = "E67231B9-FA09-451D-8B80-B70CA73DDE32";
shapes = (
{
closed = 1;
nodes = (
(204,499,l),
(191,505,o),
(179,509,o),
(166,510,c),
(124,499,o),
(74,490,o),
(26,483,c),
(20,472,o),
(19,461,o),
(21,448,c),
(104,440,l),
(104,50,l),
(85,41,o),
(59,36,o),
(34,30,c),
(30,18,o),
(30,7,o),
(32,-5,c),
(69,-3,o),
(116,0,o),
(154,0,cs),
(191,0,o),
(230,-3,o),
(266,-5,c),
(272,7,o),
(273,18,o),
(271,30,c),
(204,50,l)
);
}
);
width = 290;
}
);
unicode = 305;
},
{
glyphname = iacute;
kernLeft = _KERN_i;
kernRight = _KERN_i;
lastChange = "2023-10-27 11:46:44 +0000";
layers = (
{
associatedMasterId = "E67231B9-FA09-451D-8B80-B70CA73DDE32";
layerId = "DA51D0F6-E92C-4977-9AEE-C0B7DC2D6803";
name = img;
width = 290;
},
{
background = {
anchors = (
{
name = top;
pos = (142,505);
}
);
shapes = (
{
closed = 1;
nodes = (
(204,499,l),
(191,505,o),
(179,509,o),
(166,510,c),
(124,499,o),
(74,490,o),
(26,483,c),
(20,472,o),
(19,461,o),
(21,448,c),
(104,440,l),
(104,50,l),
(85,41,o),
(59,36,o),
(34,30,c),
(30,18,o),
(30,7,o),
(32,-5,c),
(69,-3,o),
(116,0,o),
(154,0,cs),
(191,0,o),
(230,-3,o),
(266,-5,c),
(272,7,o),
(273,18,o),
(271,30,c),
(204,50,l)
);
},
{
closed = 1;
nodes = (
(118,583,l),
(128,573,o),
(142,568,o),
(154,566,c),
(198,608,o),
(237,661,o),
(278,717,c),
(258,740,o),
(228,752,o),
(198,757,c)
);
}
);
};
layerId = "E67231B9-FA09-451D-8B80-B70CA73DDE32";
shapes = (
{
ref = idotless;
},
{
pos = (74,0);
ref = acutecomb;
}
);
width = 290;
}
);
unicode = 237;
},
{
glyphname = icircumflex;
kernLeft = _KERN_i;
kernRight = _KERN_i;
lastChange = "2023-10-27 11:43:03 +0000";
layers = (
{
associatedMasterId = "E67231B9-FA09-451D-8B80-B70CA73DDE32";
layerId = "DA51D0F6-E92C-4977-9AEE-C0B7DC2D6803";
name = img;
width = 290;
},
{
background = {
anchors = (
{
name = top;
pos = (142,505);
}
);
shapes = (
{
closed = 1;
nodes = (
(204,499,l),
(191,505,o),
(179,509,o),
(166,510,c),
(124,499,o),
(74,490,o),
(26,483,c),
(20,472,o),
(19,461,o),
(21,448,c),
(104,440,l),
(104,50,l),
(85,41,o),
(59,36,o),
(34,30,c),
(30,18,o),
(30,7,o),
(32,-5,c),
(69,-3,o),
(116,0,o),
(154,0,cs),
(191,0,o),
(230,-3,o),
(266,-5,c),
(272,7,o),
(273,18,o),
(271,30,c),
(204,50,l)
);
},
{
closed = 1;
nodes = (
(237,640,o),
(205,693,o),
(176,751,c),
(156,755,o),
(135,755,o),
(115,753,c),
(84,688,o),
(44,630,o),
(12,579,c),
(26,565,o),
(44,559,o),
(61,556,c),
(89,591,o),
(116,639,o),
(140,684,c),
(176,607,o),
(188,588,o),
(206,559,c),
(231,562,o),
(252,571,o),
(269,588,c)
);
}
);
};
layerId = "E67231B9-FA09-451D-8B80-B70CA73DDE32";
shapes = (
{
ref = idotless;
},
{
pos = (14,0);
ref = circumflexcomb;
}
);
width = 290;
}
);
unicode = 238;
},
{
glyphname = idieresis;
kernLeft = _KERN_i;
kernRight = _KERN_i;
lastChange = "2023-10-27 11:43:03 +0000";
layers = (
{
associatedMasterId = "E67231B9-FA09-451D-8B80-B70CA73DDE32";
layerId = "DA51D0F6-E92C-4977-9AEE-C0B7DC2D6803";
name = img;
width = 290;
},
{
background = {
anchors = (
{
name = top;
pos = (142,505);
}
);
shapes = (
{
closed = 1;
nodes = (
(204,499,l),
(191,505,o),
(179,509,o),
(166,510,c),
(124,499,o),
(74,490,o),
(26,483,c),
(20,472,o),
(19,461,o),
(21,448,c),
(104,440,l),
(104,50,l),
(85,41,o),
(59,36,o),
(34,30,c),
(30,18,o),
(30,7,o),
(32,-5,c),
(69,-3,o),
(116,0,o),
(154,0,cs),
(191,0,o),
(230,-3,o),
(266,-5,c),
(272,7,o),
(273,18,o),
(271,30,c),
(204,50,l)
);
},
{
closed = 1;
nodes = (
(-4,627,o),
(20,588,o),
(54,588,cs),
(84,588,o),
(119,620,o),
(119,645,cs),
(119,669,o),
(96,708,o),
(61,708,cs),
(32,708,o),
(-4,676,o),
(-4,652,cs)
);
},
{
closed = 1;
nodes = (
(165,627,o),
(189,588,o),
(223,588,cs),
(253,588,o),
(288,620,o),
(288,645,cs),
(288,669,o),
(265,708,o),
(230,708,cs),
(201,708,o),
(165,676,o),
(165,652,cs)
);
}
);
};
layerId = "E67231B9-FA09-451D-8B80-B70CA73DDE32";
shapes = (
{
ref = idotless;
},
{
pos = (-15,0);
ref = dieresiscomb;
}
);
width = 290;
}
);
unicode = 239;
},
{
glyphname = igrave;
kernLeft = _KERN_i;
kernRight = _KERN_i;
lastChange = "2023-10-27 11:43:03 +0000";
layers = (
{
associatedMasterId = "E67231B9-FA09-451D-8B80-B70CA73DDE32";
layerId = "DA51D0F6-E92C-4977-9AEE-C0B7DC2D6803";
name = img;
width = 290;
},
{
background = {
anchors = (
{
name = top;
pos = (142,505);
}
);
shapes = (
{
closed = 1;
nodes = (
(204,499,l),
(191,505,o),
(179,509,o),
(166,510,c),
(124,499,o),
(74,490,o),
(26,483,c),
(20,472,o),
(19,461,o),
(21,448,c),
(104,440,l),
(104,50,l),
(85,41,o),
(59,36,o),
(34,30,c),
(30,18,o),
(30,7,o),
(32,-5,c),
(69,-3,o),
(116,0,o),
(154,0,cs),
(191,0,o),
(230,-3,o),
(266,-5,c),
(272,7,o),
(273,18,o),
(271,30,c),
(204,50,l)
);
},
{
closed = 1;
nodes = (
(107,757,l),
(77,752,o),
(47,740,o),
(27,717,c),
(68,661,o),
(107,608,o),
(151,566,c),
(163,568,o),
(177,573,o),
(187,583,c)
);
}
);
};
layerId = "E67231B9-FA09-451D-8B80-B70CA73DDE32";
shapes = (
{
ref = idotless;
},
{
pos = (33,0);
ref = gravecomb;
}
);
width = 290;
}
);
unicode = 236;
},
{
glyphname = j;
lastChange = "2023-10-27 11:49:26 +0000";
layers = (
{
background = {
shapes = (
{
closed = 1;
nodes = (
(52,641,o),
(79,601,o),
(113,601,cs),
(147,601,o),
(184,633,o),
(184,660,cs),
(184,687,o),
(159,728,o),
(123,728,cs),
(90,728,o),
(52,695,o),
(52,669,cs)
);
},
{
closed = 1;
nodes = (
(190,499,l),
(177,505,o),
(165,509,o),
(152,510,c),
(110,499,o),
(60,490,o),
(12,483,c),
(6,472,o),
(5,461,o),
(7,448,c),
(90,440,l),
(90,30,ls),
(90,-76,o),
(76,-145,o),
(-24,-203,c),
(-25,-220,o),
(-17,-237,o),
(-5,-246,c),
(115,-181,o),
(190,-97,o),
(190,34,c)
);
}
);
};
layerId = "E67231B9-FA09-451D-8B80-B70CA73DDE32";
shapes = (
{
closed = 1;
nodes = (
(147,601,o),
(184,633,o),
(184,660,cs),
(184,687,o),
(159,728,o),
(123,728,cs),
(90,728,o),
(52,695,o),
(52,669,cs),
(52,641,o),
(79,601,o),
(113,601,cs)
);
},
{
ref = jdotless;
}
);
width = 260;
}
);
unicode = 106;
},
{
color = 9;
glyphname = jdotless;
lastChange = "2023-10-27 11:49:11 +0000";
layers = (
{
anchors = (
{
name = bottom;
pos = (300,-270);
},
{
name = top;
pos = (135,505);
}
);
layerId = "E67231B9-FA09-451D-8B80-B70CA73DDE32";
shapes = (
{
closed = 1;
nodes = (
(190,499,l),
(177,505,o),
(165,509,o),
(152,510,c),
(110,499,o),
(60,490,o),
(12,483,c),
(6,472,o),
(5,461,o),
(7,448,c),
(90,440,l),
(90,30,ls),
(90,-76,o),
(76,-145,o),
(-24,-203,c),
(-25,-220,o),
(-17,-237,o),
(-5,-246,c),
(115,-181,o),
(190,-97,o),
(190,34,c)
);
}
);
width = 260;
}
);
unicode = 567;
},
{
glyphname = k;
kernLeft = _KERN_h_2ND;
lastChange = "2023-10-27 11:48:35 +0000";
layers = (
{
anchors = (
{
name = bottom;
pos = (271,0);
},
{
name = top;
pos = (138,736);
}
);
background = {
shapes = (
{
closed = 1;
nodes = (
(187,745,l),
(174,751,o),
(162,755,o),
(149,756,c),
(107,745,o),
(57,736,o),
(9,729,c),
(5,721,o),
(3,713,o),
(3,705,cs),
(3,702,o),
(3,698,o),
(4,694,c),
(87,686,l),
(87,50,l),
(68,41,o),
(42,36,o),
(17,30,c),
(15,23,o),
(14,16,o),
(14,9,cs),
(14,5,o),
(14,0,o),
(15,-5,c),
(52,-3,o),
(99,0,o),
(137,0,cs),
(174,0,o),
(213,-3,o),
(249,-5,c),
(253,3,o),
(255,11,o),
(255,19,cs),
(255,23,o),
(254,26,o),
(254,30,c),
(187,50,l),
(187,237,l),
(233,237,l),
(376,33,l),
(327,30,l),
(325,23,o),
(324,16,o),
(324,9,cs),
(324,5,o),
(324,0,o),
(325,-5,c),
(357,-2,o),
(387,-1,o),
(416,-1,cs),
(457,-1,o),
(496,-3,o),
(535,-5,c),
(539,3,o),
(541,11,o),
(541,19,cs),
(541,23,o),
(540,26,o),
(540,30,c),
(515,32,o),
(485,39,o),
(473,50,c),
(288,299,l),
(424,445,l),
(444,460,o),
(477,468,o),
(499,470,c),
(501,477,o),
(502,484,o),
(502,490,cs),
(502,495,o),
(502,500,o),
(501,505,c),
(464,503,o),
(445,500,o),
(407,500,cs),
(370,500,o),
(341,503,o),
(305,505,c),
(301,497,o),
(299,489,o),
(299,481,cs),
(299,477,o),
(299,474,o),
(300,470,c),
(373,455,l),
(213,277,l),
(187,277,l)
);
}
);
};
guides = (
{
pos = (0,50);
},
{
pos = (0,30);
},
{
pos = (0,-5);
}
);
layerId = "E67231B9-FA09-451D-8B80-B70CA73DDE32";
shapes = (
{
closed = 1;
nodes = (
(187,745,l),
(174,751,o),
(162,755,o),
(149,756,c),
(107,745,o),
(57,736,o),
(9,729,c),
(5,721,o),
(3,713,o),
(3,705,cs),
(3,702,o),
(3,698,o),
(4,694,c),
(87,686,l),
(87,50,l),
(68,41,o),
(42,36,o),
(17,30,c),
(15,23,o),
(14,16,o),
(14,9,cs),
(14,5,o),
(14,0,o),
(15,-5,c),
(52,-3,o),
(99,0,o),
(137,0,cs),
(174,0,o),
(213,-3,o),
(249,-5,c),
(253,3,o),
(255,11,o),
(255,19,cs),
(255,23,o),
(254,26,o),
(254,30,c),
(187,50,l),
(187,237,l),
(233,237,l),
(376,33,l),
(327,30,l),
(325,23,o),
(324,16,o),
(324,9,cs),
(324,5,o),
(324,0,o),
(325,-5,c),
(357,-2,o),
(387,-1,o),
(416,-1,cs),
(457,-1,o),
(496,-3,o),
(535,-5,c),
(539,3,o),
(541,11,o),
(541,19,cs),
(541,23,o),
(540,26,o),
(540,30,c),
(515,32,o),
(485,39,o),
(473,50,c),
(288,299,l),
(424,445,l),
(444,460,o),
(477,468,o),
(499,470,c),
(501,477,o),
(502,484,o),
(502,490,cs),
(502,495,o),
(502,500,o),
(501,505,c),
(464,503,o),
(445,500,o),
(407,500,cs),
(370,500,o),
(341,503,o),
(305,505,c),
(301,497,o),
(299,489,o),
(299,481,cs),
(299,477,o),
(299,474,o),
(300,470,c),
(373,455,l),
(213,277,l),
(187,277,l)
);
}
);
width = 542;
}
);
unicode = 107;
},
{
glyphname = l;
lastChange = "2023-10-27 11:48:30 +0000";
layers = (
{
anchors = (
{
name = bottom;
pos = (140,0);
},
{
name = center;
pos = (140,984);
},
{
name = top;
pos = (140,758);
},
{
name = topright;
pos = (259,754);
}
);
background = {
shapes = (
{
closed = 1;
nodes = (
(189,745,l),
(176,751,o),
(164,755,o),
(151,756,c),
(109,745,o),
(59,736,o),
(11,729,c),
(5,718,o),
(4,707,o),
(6,694,c),
(89,686,l),
(89,50,l),
(70,41,o),
(44,36,o),
(19,30,c),
(15,18,o),
(15,7,o),
(17,-5,c),
(54,-3,o),
(101,0,o),
(139,0,cs),
(176,0,o),
(225,-3,o),
(261,-5,c),
(267,7,o),
(268,18,o),
(266,30,c),
(189,50,l)
);
}
);
};
guides = (
{
pos = (0,45);
}
);
layerId = "E67231B9-FA09-451D-8B80-B70CA73DDE32";
shapes = (
{
closed = 1;
nodes = (
(189,745,l),
(176,751,o),
(164,755,o),
(151,756,c),
(109,745,o),
(59,736,o),
(11,729,c),
(5,718,o),
(4,707,o),
(6,694,c),
(89,686,l),
(89,50,l),
(70,41,o),
(44,36,o),
(19,30,c),
(15,18,o),
(15,7,o),
(17,-5,c),
(54,-3,o),
(101,0,o),
(139,0,cs),
(176,0,o),
(225,-3,o),
(261,-5,c),
(267,7,o),
(268,18,o),
(266,30,c),
(189,50,l)
);
}
);
width = 279;
}
);
unicode = 108;
},
{
glyphname = m;
kernLeft = _KERN_n_2ND;
kernRight = _KERN_n_1ST;
lastChange = "2023-10-27 11:47:12 +0000";
layers = (
{
anchors = (
{
name = bottom;
pos = (446,0);
},
{
name = top;
pos = (446,505);
}
);
background = {
shapes = (
{
closed = 1;
nodes = (
(195,501,l),
(182,507,o),
(174,509,o),
(161,510,c),
(118,500,o),
(71,491,o),
(22,483,c),
(16,472,o),
(15,461,o),
(17,448,c),
(100,440,l),
(100,50,l),
(78,42,o),
(54,36,o),
(30,30,c),
(26,18,o),
(26,7,o),
(28,-5,c),
(65,-3,o),
(112,0,o),
(150,0,cs),
(187,0,o),
(226,-3,o),
(262,-5,c),
(268,7,o),
(269,18,o),
(267,30,c),
(200,50,l),
(200,386,l),
(247,427,o),
(292,446,o),
(324,446,cs),
(385,446,o),
(412,416,o),
(412,326,cs),
(412,50,l),
(392,42,o),
(372,35,o),
(346,30,c),
(342,18,o),
(342,7,o),
(344,-5,c),
(381,-3,o),
(424,0,o),
(462,0,cs),
(499,0,o),
(541,-3,o),
(577,-5,c),
(583,7,o),
(584,18,o),
(582,30,c),
(512,50,l),
(511,371,l),
(511,379,l),
(552,427,o),
(594,444,o),
(624,444,cs),
(685,444,o),
(712,416,o),
(712,326,cs),
(712,50,l),
(692,42,o),
(672,35,o),
(646,30,c),
(642,18,o),
(642,7,o),
(644,-5,c),
(681,-3,o),
(724,0,o),
(762,0,cs),
(799,0,o),
(841,-3,o),
(877,-5,c),
(883,7,o),
(884,18,o),
(882,30,c),
(812,50,l),
(811,371,ls),
(811,466,o),
(758,516,o),
(671,516,cs),
(615,516,o),
(559,496,o),
(502,432,c),
(483,487,o),
(436,516,o),
(371,516,cs),
(323,516,o),
(254,496,o),
(193,432,c),
(192,433,l)
);
}
);
};
guides = (
{
angle = 90;
pos = (18,0);
}
);
layerId = "E67231B9-FA09-451D-8B80-B70CA73DDE32";
shapes = (
{
closed = 1;
nodes = (
(195,501,l),
(182,507,o),
(174,509,o),
(161,510,c),
(118,500,o),
(71,491,o),
(22,483,c),
(16,472,o),
(15,461,o),
(17,448,c),
(100,440,l),
(100,50,l),
(78,42,o),
(54,36,o),
(30,30,c),
(26,18,o),
(26,7,o),
(28,-5,c),
(65,-3,o),
(112,0,o),
(150,0,cs),
(187,0,o),
(226,-3,o),
(262,-5,c),
(268,7,o),
(269,18,o),
(267,30,c),
(200,50,l),
(200,386,l),
(247,427,o),
(292,446,o),
(324,446,cs),
(385,446,o),
(412,416,o),
(412,326,cs),
(412,50,l),
(392,42,o),
(372,35,o),
(346,30,c),
(342,18,o),
(342,7,o),
(344,-5,c),
(381,-3,o),
(424,0,o),
(462,0,cs),
(499,0,o),
(541,-3,o),
(577,-5,c),
(583,7,o),
(584,18,o),
(582,30,c),
(512,50,l),
(511,371,l),
(511,379,l),
(552,427,o),
(594,444,o),
(624,444,cs),
(685,444,o),
(712,416,o),
(712,326,cs),
(712,50,l),
(692,42,o),
(672,35,o),
(646,30,c),
(642,18,o),
(642,7,o),
(644,-5,c),
(681,-3,o),
(724,0,o),
(762,0,cs),
(799,0,o),
(841,-3,o),
(877,-5,c),
(883,7,o),
(884,18,o),
(882,30,c),
(812,50,l),
(811,371,ls),
(811,466,o),
(758,516,o),
(671,516,cs),
(615,516,o),
(559,496,o),
(502,432,c),
(483,487,o),
(436,516,o),
(371,516,cs),
(323,516,o),
(254,496,o),
(193,432,c),
(192,433,l)
);
}
);
width = 891;
}
);
unicode = 109;
},
{
glyphname = n;
kernLeft = _KERN_n_2ND;
kernRight = _KERN_n_1ST;
lastChange = "2023-10-27 11:47:12 +0000";
layers = (
{
anchors = (
{
name = bottom;
pos = (302,0);
},
{
name = top;
pos = (280,505);
}
);
background = {
anchors = (
{
name = top;
pos = (280,505);
}
);
shapes = (
{
closed = 1;
nodes = (
(195,501,l),
(182,507,o),
(174,509,o),
(161,510,c),
(118,500,o),
(71,491,o),
(22,483,c),
(16,472,o),
(15,461,o),
(17,448,c),
(100,440,l),
(100,50,l),
(78,42,o),
(54,36,o),
(30,30,c),
(26,18,o),
(26,7,o),
(28,-5,c),
(65,-3,o),
(112,0,o),
(150,0,cs),
(187,0,o),
(226,-3,o),
(262,-5,c),
(268,7,o),
(269,18,o),
(267,30,c),
(200,50,l),
(200,386,l),
(236,427,o),
(284,446,o),
(334,446,cs),
(395,446,o),
(422,416,o),
(422,326,cs),
(422,50,l),
(402,42,o),
(382,35,o),
(356,30,c),
(352,18,o),
(352,7,o),
(354,-5,c),
(391,-3,o),
(434,0,o),
(472,0,cs),
(509,0,o),
(551,-3,o),
(587,-5,c),
(593,7,o),
(594,18,o),
(592,30,c),
(522,50,l),
(521,371,ls),
(521,466,o),
(468,516,o),
(381,516,cs),
(330,516,o),
(257,496,o),
(193,432,c),
(192,433,l)
);
}
);
};
guides = (
{
angle = 90;
pos = (20,0);
}
);
layerId = "E67231B9-FA09-451D-8B80-B70CA73DDE32";
shapes = (
{
closed = 1;
nodes = (
(195,501,l),
(182,507,o),
(174,509,o),
(161,510,c),
(118,500,o),
(71,491,o),
(22,483,c),
(16,472,o),
(15,461,o),
(17,448,c),
(100,440,l),
(100,50,l),
(78,42,o),
(54,36,o),
(30,30,c),
(26,18,o),
(26,7,o),
(28,-5,c),
(65,-3,o),
(112,0,o),
(150,0,cs),
(187,0,o),
(226,-3,o),
(262,-5,c),
(268,7,o),
(269,18,o),
(267,30,c),
(200,50,l),
(200,386,l),
(236,427,o),
(284,446,o),
(334,446,cs),
(395,446,o),
(422,416,o),
(422,326,cs),
(422,50,l),
(402,42,o),
(382,35,o),
(356,30,c),
(352,18,o),
(352,7,o),
(354,-5,c),
(391,-3,o),
(434,0,o),
(472,0,cs),
(509,0,o),
(551,-3,o),
(587,-5,c),
(593,7,o),
(594,18,o),
(592,30,c),
(522,50,l),
(521,371,ls),
(521,466,o),
(468,516,o),
(381,516,cs),
(330,516,o),
(257,496,o),
(193,432,c),
(192,433,l)
);
}
);
width = 603;
}
);
unicode = 110;
},
{
glyphname = ntilde;
kernLeft = _KERN_n_2ND;
kernRight = _KERN_n_1ST;
lastChange = "2023-10-27 11:43:03 +0000";
layers = (
{
associatedMasterId = "E67231B9-FA09-451D-8B80-B70CA73DDE32";
layerId = "DA51D0F6-E92C-4977-9AEE-C0B7DC2D6803";
name = img;
width = 603;
},
{
background = {
anchors = (
{
name = top;
pos = (280,505);
}
);
shapes = (
{
closed = 1;
nodes = (
(195,501,l),
(182,507,o),
(174,509,o),
(161,510,c),
(118,500,o),
(71,491,o),
(22,483,c),
(16,472,o),
(15,461,o),
(17,448,c),
(100,440,l),
(100,50,l),
(78,42,o),
(54,36,o),
(30,30,c),
(26,18,o),
(26,7,o),
(28,-5,c),
(65,-3,o),
(112,0,o),
(150,0,cs),
(187,0,o),
(226,-3,o),
(262,-5,c),
(268,7,o),
(269,18,o),
(267,30,c),
(200,50,l),
(200,386,l),
(236,427,o),
(284,446,o),
(334,446,cs),
(395,446,o),
(422,416,o),
(422,326,cs),
(422,50,l),
(402,42,o),
(382,35,o),
(356,30,c),
(352,18,o),
(352,7,o),
(354,-5,c),
(391,-3,o),
(434,0,o),
(472,0,cs),
(509,0,o),
(551,-3,o),
(587,-5,c),
(593,7,o),
(594,18,o),
(592,30,c),
(522,50,l),
(521,371,ls),
(521,466,o),
(468,516,o),
(381,516,cs),
(330,516,o),
(257,496,o),
(193,432,c),
(192,433,l)
);
},
{
closed = 1;
nodes = (
(203,617,o),
(225,629,o),
(255,626,c),
(300,623,o),
(320,587,o),
(382,590,cs),
(425,592,o),
(447,629,o),
(460,675,c),
(451,683,o),
(441,686,o),
(431,686,c),
(416,663,o),
(392,655,o),
(365,660,cs),
(322,668,o),
(305,699,o),
(255,696,c),
(220,695,o),
(188,671,o),
(160,620,c),
(167,612,o),
(174,603,o),
(189,596,c)
);
}
);
};
layerId = "E67231B9-FA09-451D-8B80-B70CA73DDE32";
shapes = (
{
ref = n;
},
{
pos = (98,0);
ref = tildecomb;
}
);
width = 603;
}
);
unicode = 241;
},
{
glyphname = o;
kernLeft = _KERN_o_2ND;
kernRight = _KERN_o_1ST;
lastChange = "2023-10-27 11:47:12 +0000";
layers = (
{
anchors = (
{
name = bottom;
pos = (288,0);
},
{
name = center;
pos = (288,253);
},
{
name = ogonek;
pos = (518,10);
},
{
name = top;
pos = (289,506);
},
{
name = topright;
pos = (556,505);
}
);
background = {
anchors = (
{
name = top;
pos = (289,506);
}
);
shapes = (
{
closed = 1;
nodes = (
(36,90,o),
(133,-20,o),
(288,-20,cs),
(443,-20,o),
(540,90,o),
(540,250,cs),
(540,405,o),
(443,520,o),
(288,520,cs),
(133,520,o),
(36,405,o),
(36,250,cs)
);
},
{
closed = 1;
nodes = (
(432,125,o),
(397,23,o),
(290,23,cs),
(187,23,o),
(144,126,o),
(144,243,cs),
(144,370,o),
(179,477,o),
(286,477,cs),
(389,477,o),
(432,369,o),
(432,236,cs)
);
}
);
};
layerId = "E67231B9-FA09-451D-8B80-B70CA73DDE32";
shapes = (
{
closed = 1;
nodes = (
(36,90,o),
(133,-20,o),
(288,-20,cs),
(443,-20,o),
(540,90,o),
(540,250,cs),
(540,405,o),
(443,520,o),
(288,520,cs),
(133,520,o),
(36,405,o),
(36,250,cs)
);
},
{
closed = 1;
nodes = (
(432,125,o),
(397,23,o),
(290,23,cs),
(187,23,o),
(144,126,o),
(144,243,cs),
(144,370,o),
(179,477,o),
(286,477,cs),
(389,477,o),
(432,369,o),
(432,236,cs)
);
}
);
width = 576;
}
);
unicode = 111;
},
{
glyphname = oacute;
kernLeft = _KERN_o_2ND;
kernRight = _KERN_o_1ST;
lastChange = "2023-10-27 11:46:44 +0000";
layers = (
{
associatedMasterId = "E67231B9-FA09-451D-8B80-B70CA73DDE32";
layerId = "DA51D0F6-E92C-4977-9AEE-C0B7DC2D6803";
name = img;
width = 582;
},
{
background = {
anchors = (
{
name = top;
pos = (292,506);
}
);
shapes = (
{
closed = 1;
nodes = (
(39,90,o),
(136,-20,o),
(291,-20,cs),
(446,-20,o),
(543,90,o),
(543,250,cs),
(543,405,o),
(446,520,o),
(291,520,cs),
(136,520,o),
(39,405,o),
(39,250,cs)
);
},
{
closed = 1;
nodes = (
(435,125,o),
(400,23,o),
(293,23,cs),
(190,23,o),
(147,126,o),
(147,243,cs),
(147,370,o),
(182,477,o),
(289,477,cs),
(392,477,o),
(435,369,o),
(435,236,cs)
);
},
{
closed = 1;
nodes = (
(258,584,l),
(268,574,o),
(282,569,o),
(294,567,c),
(338,609,o),
(377,662,o),
(418,718,c),
(398,741,o),
(368,753,o),
(338,758,c)
);
}
);
};
layerId = "E67231B9-FA09-451D-8B80-B70CA73DDE32";
shapes = (
{
ref = o;
},
{
pos = (221,1);
ref = acutecomb;
}
);
width = 576;
}
);
unicode = 243;
},
{
glyphname = ocircumflex;
kernLeft = _KERN_o_2ND;
kernRight = _KERN_o_1ST;
lastChange = "2023-10-27 11:43:03 +0000";
layers = (
{
associatedMasterId = "E67231B9-FA09-451D-8B80-B70CA73DDE32";
layerId = "DA51D0F6-E92C-4977-9AEE-C0B7DC2D6803";
name = img;
width = 582;
},
{
background = {
anchors = (
{
name = top;
pos = (292,506);
}
);
shapes = (
{
closed = 1;
nodes = (
(39,90,o),
(136,-20,o),
(291,-20,cs),
(446,-20,o),
(543,90,o),
(543,250,cs),
(543,405,o),
(446,520,o),
(291,520,cs),
(136,520,o),
(39,405,o),
(39,250,cs)
);
},
{
closed = 1;
nodes = (
(435,125,o),
(400,23,o),
(293,23,cs),
(190,23,o),
(147,126,o),
(147,243,cs),
(147,370,o),
(182,477,o),
(289,477,cs),
(392,477,o),
(435,369,o),
(435,236,cs)
);
},
{
closed = 1;
nodes = (
(387,641,o),
(355,694,o),
(326,752,c),
(306,756,o),
(285,756,o),
(265,754,c),
(234,689,o),
(194,631,o),
(162,580,c),
(176,566,o),
(194,560,o),
(211,557,c),
(239,592,o),
(266,640,o),
(290,685,c),
(326,608,o),
(338,589,o),
(356,560,c),
(381,563,o),
(402,572,o),
(419,589,c)
);
}
);
};
layerId = "E67231B9-FA09-451D-8B80-B70CA73DDE32";
shapes = (
{
ref = o;
},
{
pos = (161,1);
ref = circumflexcomb;
}
);
width = 576;
}
);
unicode = 244;
},
{
glyphname = odieresis;
kernLeft = _KERN_o_2ND;
kernRight = _KERN_o_1ST;
lastChange = "2023-10-27 11:43:03 +0000";
layers = (
{
associatedMasterId = "E67231B9-FA09-451D-8B80-B70CA73DDE32";
layerId = "DA51D0F6-E92C-4977-9AEE-C0B7DC2D6803";
name = img;
width = 582;
},
{
background = {
anchors = (
{
name = top;
pos = (292,506);
}
);
shapes = (
{
closed = 1;
nodes = (
(39,90,o),
(136,-20,o),
(291,-20,cs),
(446,-20,o),
(543,90,o),
(543,250,cs),
(543,405,o),
(446,520,o),
(291,520,cs),
(136,520,o),
(39,405,o),
(39,250,cs)
);
},
{
closed = 1;
nodes = (
(435,125,o),
(400,23,o),
(293,23,cs),
(190,23,o),
(147,126,o),
(147,243,cs),
(147,370,o),
(182,477,o),
(289,477,cs),
(392,477,o),
(435,369,o),
(435,236,cs)
);
},
{
closed = 1;
nodes = (
(146,628,o),
(170,589,o),
(204,589,cs),
(234,589,o),
(269,621,o),
(269,646,cs),
(269,670,o),
(246,709,o),
(211,709,cs),
(182,709,o),
(146,677,o),
(146,653,cs)
);
},
{
closed = 1;
nodes = (
(315,628,o),
(339,589,o),
(373,589,cs),
(403,589,o),
(438,621,o),
(438,646,cs),
(438,670,o),
(415,709,o),
(380,709,cs),
(351,709,o),
(315,677,o),
(315,653,cs)
);
}
);
};
layerId = "E67231B9-FA09-451D-8B80-B70CA73DDE32";
shapes = (
{
ref = o;
},
{
pos = (132,1);
ref = dieresiscomb;
}
);
width = 576;
}
);
unicode = 246;
},
{
glyphname = ograve;
kernLeft = _KERN_o_2ND;
kernRight = _KERN_o_1ST;
lastChange = "2023-10-27 11:43:03 +0000";
layers = (
{
associatedMasterId = "E67231B9-FA09-451D-8B80-B70CA73DDE32";
layerId = "DA51D0F6-E92C-4977-9AEE-C0B7DC2D6803";
name = img;
width = 582;
},
{
background = {
anchors = (
{
name = top;
pos = (292,506);
}
);
shapes = (
{
closed = 1;
nodes = (
(39,90,o),
(136,-20,o),
(291,-20,cs),
(446,-20,o),
(543,90,o),
(543,250,cs),
(543,405,o),
(446,520,o),
(291,520,cs),
(136,520,o),
(39,405,o),
(39,250,cs)
);
},
{
closed = 1;
nodes = (
(435,125,o),
(400,23,o),
(293,23,cs),
(190,23,o),
(147,126,o),
(147,243,cs),
(147,370,o),
(182,477,o),
(289,477,cs),
(392,477,o),
(435,369,o),
(435,236,cs)
);
},
{
closed = 1;
nodes = (
(247,758,l),
(217,753,o),
(187,741,o),
(167,718,c),
(208,662,o),
(247,609,o),
(291,567,c),
(303,569,o),
(317,574,o),
(327,584,c)
);
}
);
};
layerId = "E67231B9-FA09-451D-8B80-B70CA73DDE32";
shapes = (
{
ref = o;
},
{
pos = (180,1);
ref = gravecomb;
}
);
width = 576;
}
);
unicode = 242;
},
{
glyphname = oslash;
kernLeft = _KERN_o_2ND;
kernRight = _KERN_o_1ST;
lastChange = "2023-10-27 11:47:12 +0000";
layers = (
{
anchors = (
{
name = top;
pos = (291,505);
}
);
background = {
shapes = (
{
closed = 1;
nodes = (
(76,-40,l),
(92,-49,o),
(111,-52,o),
(133,-51,c),
(169,6,l),
(203,-11,o),
(243,-20,o),
(288,-20,cs),
(443,-20,o),
(540,90,o),
(540,250,cs),
(540,335,o),
(510,408,o),
(458,457,c),
(525,563,l),
(511,571,o),
(496,577,o),
(469,572,c),
(416,488,l),
(380,508,o),
(337,520,o),
(288,520,cs),
(133,520,o),
(36,405,o),
(36,250,cs),
(36,158,o),
(68,83,o),
(124,36,c)
);
},
{
closed = 1;
nodes = (
(144,370,o),
(179,477,o),
(286,477,cs),
(324,477,o),
(353,462,o),
(376,437,c),
(171,102,l),
(152,141,o),
(144,190,o),
(144,243,cs)
);
},
{
closed = 1;
nodes = (
(432,125,o),
(397,23,o),
(290,23,cs),
(255,23,o),
(227,34,o),
(205,55,c),
(407,386,l),
(424,345,o),
(432,293,o),
(432,236,cs)
);
}
);
};
layerId = "E67231B9-FA09-451D-8B80-B70CA73DDE32";
shapes = (
{
closed = 1;
nodes = (
(76,-40,l),
(92,-49,o),
(111,-52,o),
(133,-51,c),
(169,6,l),
(203,-11,o),
(243,-20,o),
(288,-20,cs),
(443,-20,o),
(540,90,o),
(540,250,cs),
(540,335,o),
(510,408,o),
(458,457,c),
(525,563,l),
(511,571,o),
(496,577,o),
(469,572,c),
(416,488,l),
(380,508,o),
(337,520,o),
(288,520,cs),
(133,520,o),
(36,405,o),
(36,250,cs),
(36,158,o),
(68,83,o),
(124,36,c)
);
},
{
closed = 1;
nodes = (
(144,370,o),
(179,477,o),
(286,477,cs),
(324,477,o),
(353,462,o),
(376,437,c),
(171,102,l),
(152,141,o),
(144,190,o),
(144,243,cs)
);
},
{
closed = 1;
nodes = (
(432,125,o),
(397,23,o),
(290,23,cs),
(255,23,o),
(227,34,o),
(205,55,c),
(407,386,l),
(424,345,o),
(432,293,o),
(432,236,cs)
);
}
);
width = 582;
}
);
unicode = 248;
},
{
glyphname = otilde;
kernLeft = _KERN_o_2ND;
kernRight = _KERN_o_1ST;
lastChange = "2023-10-27 11:43:03 +0000";
layers = (
{
associatedMasterId = "E67231B9-FA09-451D-8B80-B70CA73DDE32";
layerId = "DA51D0F6-E92C-4977-9AEE-C0B7DC2D6803";
name = img;
width = 582;
},
{
background = {
anchors = (
{
name = top;
pos = (292,506);
}
);
shapes = (
{
closed = 1;
nodes = (
(39,90,o),
(136,-20,o),
(291,-20,cs),
(446,-20,o),
(543,90,o),
(543,250,cs),
(543,405,o),
(446,520,o),
(291,520,cs),
(136,520,o),
(39,405,o),
(39,250,cs)
);
},
{
closed = 1;
nodes = (
(435,125,o),
(400,23,o),
(293,23,cs),
(190,23,o),
(147,126,o),
(147,243,cs),
(147,370,o),
(182,477,o),
(289,477,cs),
(392,477,o),
(435,369,o),
(435,236,cs)
);
},
{
closed = 1;
nodes = (
(185,618,o),
(207,630,o),
(237,627,c),
(282,624,o),
(302,588,o),
(364,591,cs),
(407,593,o),
(429,630,o),
(442,676,c),
(433,684,o),
(423,687,o),
(413,687,c),
(398,664,o),
(374,656,o),
(347,661,cs),
(304,669,o),
(287,700,o),
(237,697,c),
(202,696,o),
(170,672,o),
(142,621,c),
(149,613,o),
(156,604,o),
(171,597,c)
);
}
);
};
layerId = "E67231B9-FA09-451D-8B80-B70CA73DDE32";
shapes = (
{
ref = o;
},
{
pos = (107,1);
ref = tildecomb;
}
);
width = 576;
}
);
unicode = 245;
},
{
glyphname = oe;
kernLeft = _KERN_o_2ND;
kernRight = _KERN_e_1ST;
lastChange = "2023-10-27 11:47:12 +0000";
layers = (
{
associatedMasterId = "E67231B9-FA09-451D-8B80-B70CA73DDE32";
layerId = "37E99AEB-8AF4-41FE-81C5-9E9421C04E2B";
name = public.background;
width = 884;
},
{
anchors = (
{
name = bottom;
pos = (442,0);
},
{
name = top;
pos = (442,505);
}
);
background = {
shapes = (
{
closed = 1;
nodes = (
(527,270,l),
(834,267,l),
(848,278,l),
(849,287,o),
(849,295,o),
(849,304,cs),
(849,429,o),
(790,520,o),
(665,520,cs),
(587,520,o),
(510,489,o),
(477,424,c),
(468,442,o),
(458,458,o),
(445,468,cs),
(403,501,o),
(350,520,o),
(291,520,cs),
(146,520,o),
(36,405,o),
(36,250,cs),
(36,90,o),
(146,-20,o),
(291,-20,cs),
(365,-20,o),
(432,9,o),
(478,59,c),
(523,8,o),
(589,-20,o),
(670,-20,cs),
(736,-20,o),
(796,8,o),
(835,56,c),
(834,66,o),
(829,75,o),
(817,80,c),
(764,44,o),
(738,35,o),
(673,35,cs),
(580,35,o),
(527,115,o),
(527,250,cs)
);
},
{
closed = 1;
nodes = (
(435,125,o),
(400,26,o),
(293,26,cs),
(190,26,o),
(147,126,o),
(147,243,cs),
(147,370,o),
(182,474,o),
(289,474,cs),
(392,474,o),
(435,369,o),
(435,236,cs)
);
},
{
closed = 1;
nodes = (
(734,480,o),
(755,426,o),
(755,323,c),
(532,311,l),
(543,420,o),
(589,480,o),
(665,480,cs)
);
}
);
};
layerId = "E67231B9-FA09-451D-8B80-B70CA73DDE32";
shapes = (
{
closed = 1;
nodes = (
(527,270,l),
(834,267,l),
(848,278,l),
(849,287,o),
(849,295,o),
(849,304,cs),
(849,429,o),
(790,520,o),
(665,520,cs),
(587,520,o),
(510,489,o),
(477,424,c),
(468,442,o),
(458,458,o),
(445,468,cs),
(403,501,o),
(350,520,o),
(291,520,cs),
(146,520,o),
(36,405,o),
(36,250,cs),
(36,90,o),
(146,-20,o),
(291,-20,cs),
(365,-20,o),
(432,9,o),
(478,59,c),
(523,8,o),
(589,-20,o),
(670,-20,cs),
(736,-20,o),
(796,8,o),
(835,56,c),
(834,66,o),
(829,75,o),
(817,80,c),
(764,44,o),
(738,35,o),
(673,35,cs),
(580,35,o),
(527,115,o),
(527,250,cs)
);
},
{
closed = 1;
nodes = (
(435,125,o),
(400,26,o),
(293,26,cs),
(190,26,o),
(147,126,o),
(147,243,cs),
(147,370,o),
(182,474,o),
(289,474,cs),
(392,474,o),
(435,369,o),
(435,236,cs)
);
},
{
closed = 1;
nodes = (
(734,480,o),
(755,426,o),
(755,323,c),
(532,311,l),
(543,420,o),
(589,480,o),
(665,480,cs)
);
}
);
width = 884;
}
);
unicode = 339;
},
{
glyphname = p;
kernRight = _KERN_o_1ST;
lastChange = "2023-10-27 11:47:12 +0000";
layers = (
{
anchors = (
{
name = bottom;
pos = (294,0);
},
{
name = top;
pos = (294,505);
}
);
background = {
shapes = (
{
closed = 1;
nodes = (
(185,502,l),
(174,506,o),
(164,509,o),
(150,510,c),
(75,492,o),
(23,484,o),
(12,483,c),
(6,472,o),
(5,461,o),
(7,448,c),
(89,440,l),
(89,-200,l),
(66,-210,o),
(42,-215,o),
(19,-220,c),
(15,-232,o),
(15,-243,o),
(17,-255,c),
(54,-253,o),
(101,-250,o),
(139,-250,cs),
(176,-250,o),
(235,-253,o),
(271,-255,c),
(277,-243,o),
(278,-232,o),
(276,-220,c),
(189,-200,l),
(189,3,l),
(221,-10,o),
(265,-19,o),
(291,-19,cs),
(450,-19,o),
(547,78,o),
(547,263,cs),
(547,395,o),
(474,520,o),
(339,520,cs),
(294,520,o),
(242,504,o),
(189,457,c),
(184,462,l)
);
},
{
closed = 1;
nodes = (
(189,404,l),
(207,429,o),
(259,460,o),
(309,460,cs),
(390,460,o),
(441,394,o),
(441,257,cs),
(441,112,o),
(389,27,o),
(289,27,cs),
(244,27,o),
(214,42,o),
(189,59,c)
);
}
);
};
layerId = "E67231B9-FA09-451D-8B80-B70CA73DDE32";
shapes = (
{
closed = 1;
nodes = (
(185,502,l),
(174,506,o),
(164,509,o),
(150,510,c),
(75,492,o),
(23,484,o),
(12,483,c),
(6,472,o),
(5,461,o),
(7,448,c),
(89,440,l),
(89,-200,l),
(66,-210,o),
(42,-215,o),
(19,-220,c),
(15,-232,o),
(15,-243,o),
(17,-255,c),
(54,-253,o),
(101,-250,o),
(139,-250,cs),
(176,-250,o),
(235,-253,o),
(271,-255,c),
(277,-243,o),
(278,-232,o),
(276,-220,c),
(189,-200,l),
(189,3,l),
(221,-10,o),
(265,-19,o),
(291,-19,cs),
(450,-19,o),
(547,78,o),
(547,263,cs),
(547,395,o),
(474,520,o),
(339,520,cs),
(294,520,o),
(242,504,o),
(189,457,c),
(184,462,l)
);
},
{
closed = 1;
nodes = (
(189,404,l),
(207,429,o),
(259,460,o),
(309,460,cs),
(390,460,o),
(441,394,o),
(441,257,cs),
(441,112,o),
(389,27,o),
(289,27,cs),
(244,27,o),
(214,42,o),
(189,59,c)
);
}
);
width = 587;
}
);
unicode = 112;
},
{
glyphname = thorn;
kernLeft = _KERN_b_2ND;
kernRight = _KERN_o_1ST;
lastChange = "2023-10-27 11:47:12 +0000";
layers = (
{
anchors = (
{
name = bottom;
pos = (284,0);
},
{
name = top;
pos = (284,984);
}
);
background = {
shapes = (
{
closed = 1;
nodes = (
(166,745,l),
(155,749,o),
(145,752,o),
(131,753,c),
(56,735,o),
(4,727,o),
(-7,726,c),
(-13,715,o),
(-14,704,o),
(-12,691,c),
(70,683,l),
(70,-200,l),
(47,-210,o),
(23,-215,o),
(0,-220,c),
(-4,-232,o),
(-4,-243,o),
(-2,-255,c),
(35,-253,o),
(82,-250,o),
(120,-250,cs),
(157,-250,o),
(216,-253,o),
(252,-255,c),
(258,-243,o),
(259,-232,o),
(257,-220,c),
(170,-200,l),
(170,3,l),
(202,-10,o),
(246,-19,o),
(272,-19,cs),
(431,-19,o),
(528,78,o),
(528,263,cs),
(528,395,o),
(455,520,o),
(320,520,cs),
(275,520,o),
(223,504,o),
(170,457,c),
(165,462,l)
);
},
{
closed = 1;
nodes = (
(170,404,l),
(188,429,o),
(240,460,o),
(290,460,cs),
(371,460,o),
(422,394,o),
(422,257,cs),
(422,112,o),
(370,27,o),
(270,27,cs),
(225,27,o),
(195,42,o),
(170,59,c)
);
}
);
};
layerId = "E67231B9-FA09-451D-8B80-B70CA73DDE32";
shapes = (
{
closed = 1;
nodes = (
(166,745,l),
(155,749,o),
(145,752,o),
(131,753,c),
(56,735,o),
(4,727,o),
(-7,726,c),
(-13,715,o),
(-14,704,o),
(-12,691,c),
(70,683,l),
(70,-200,l),
(47,-210,o),
(23,-215,o),
(0,-220,c),
(-4,-232,o),
(-4,-243,o),
(-2,-255,c),
(35,-253,o),
(82,-250,o),
(120,-250,cs),
(157,-250,o),
(216,-253,o),
(252,-255,c),
(258,-243,o),
(259,-232,o),
(257,-220,c),
(170,-200,l),
(170,3,l),
(202,-10,o),
(246,-19,o),
(272,-19,cs),
(431,-19,o),
(528,78,o),
(528,263,cs),
(528,395,o),
(455,520,o),
(320,520,cs),
(275,520,o),
(223,504,o),
(170,457,c),
(165,462,l)
);
},
{
closed = 1;
nodes = (
(170,404,l),
(188,429,o),
(240,460,o),
(290,460,cs),
(371,460,o),
(422,394,o),
(422,257,cs),
(422,112,o),
(370,27,o),
(270,27,cs),
(225,27,o),
(195,42,o),
(170,59,c)
);
}
);
width = 568;
}
);
unicode = 254;
},
{
glyphname = q;
lastChange = "2023-10-27 11:47:12 +0000";
layers = (
{
anchors = (
{
name = bottom;
pos = (283,0);
},
{
name = top;
pos = (283,505);
}
);
background = {
shapes = (
{
closed = 1;
nodes = (
(499,465,l),
(415,516,o),
(345,520,o),
(309,520,cs),
(137,520,o),
(40,415,o),
(40,240,cs),
(40,118,o),
(99,-20,o),
(249,-20,cs),
(294,-20,o),
(346,-10,o),
(399,37,c),
(399,-200,l),
(374,-211,o),
(347,-215,o),
(319,-220,c),
(315,-232,o),
(315,-243,o),
(317,-255,c),
(354,-253,o),
(411,-250,o),
(449,-250,cs),
(486,-250,o),
(525,-253,o),
(561,-255,c),
(567,-243,o),
(568,-232,o),
(566,-220,c),
(499,-200,l)
);
},
{
closed = 1;
nodes = (
(399,95,l),
(381,70,o),
(329,40,o),
(279,40,cs),
(171,40,o),
(147,150,o),
(147,240,cs),
(147,385,o),
(196,471,o),
(299,471,cs),
(352,471,o),
(379,454,o),
(399,438,c)
);
}
);
};
layerId = "E67231B9-FA09-451D-8B80-B70CA73DDE32";
shapes = (
{
closed = 1;
nodes = (
(499,465,l),
(415,516,o),
(345,520,o),
(309,520,cs),
(137,520,o),
(40,415,o),
(40,240,cs),
(40,118,o),
(99,-20,o),
(249,-20,cs),
(294,-20,o),
(346,-10,o),
(399,37,c),
(399,-200,l),
(374,-211,o),
(347,-215,o),
(319,-220,c),
(315,-232,o),
(315,-243,o),
(317,-255,c),
(354,-253,o),
(411,-250,o),
(449,-250,cs),
(486,-250,o),
(525,-253,o),
(561,-255,c),
(567,-243,o),
(568,-232,o),
(566,-220,c),
(499,-200,l)
);
},
{
closed = 1;
nodes = (
(399,95,l),
(381,70,o),
(329,40,o),
(279,40,cs),
(171,40,o),
(147,150,o),
(147,240,cs),
(147,385,o),
(196,471,o),
(299,471,cs),
(352,471,o),
(379,454,o),
(399,438,c)
);
}
);
width = 566;
}
);
unicode = 113;
},
{
glyphname = r;
kernLeft = _KERN_n_2ND;
lastChange = "2023-10-27 11:47:12 +0000";
layers = (
{
anchors = (
{
name = bottom;
pos = (216,0);
},
{
name = top;
pos = (216,505);
}
);
background = {
shapes = (
{
closed = 1;
nodes = (
(200,337,l),
(239,427,o),
(288,456,o),
(335,456,c),
(349,356,l),
(360,351,o),
(384,350,o),
(394,352,c),
(408,399,o),
(416,447,o),
(414,502,c),
(392,515,o),
(370,517,o),
(348,517,cs),
(289,517,o),
(237,468,o),
(196,407,c),
(195,408,l),
(195,499,l),
(182,505,o),
(175,509,o),
(162,510,c),
(120,499,o),
(70,490,o),
(22,483,c),
(16,472,o),
(15,461,o),
(17,448,c),
(100,440,l),
(100,50,l),
(81,41,o),
(55,36,o),
(30,30,c),
(26,18,o),
(26,7,o),
(28,-5,c),
(65,-3,o),
(112,0,o),
(150,0,cs),
(187,0,o),
(256,-3,o),
(292,-5,c),
(298,7,o),
(299,18,o),
(297,30,c),
(200,50,l)
);
}
);
};
guides = (
{
pos = (0,509);
}
);
layerId = "E67231B9-FA09-451D-8B80-B70CA73DDE32";
shapes = (
{
closed = 1;
nodes = (
(200,337,l),
(239,427,o),
(288,456,o),
(335,456,c),
(349,356,l),
(360,351,o),
(384,350,o),
(394,352,c),
(408,399,o),
(416,447,o),
(414,502,c),
(392,515,o),
(370,517,o),
(348,517,cs),
(289,517,o),
(237,468,o),
(196,407,c),
(195,408,l),
(195,499,l),
(182,505,o),
(175,509,o),
(162,510,c),
(120,499,o),
(70,490,o),
(22,483,c),
(16,472,o),
(15,461,o),
(17,448,c),
(100,440,l),
(100,50,l),
(81,41,o),
(55,36,o),
(30,30,c),
(26,18,o),
(26,7,o),
(28,-5,c),
(65,-3,o),
(112,0,o),
(150,0,cs),
(187,0,o),
(256,-3,o),
(292,-5,c),
(298,7,o),
(299,18,o),
(297,30,c),
(200,50,l)
);
}
);
width = 431;
}
);
unicode = 114;
},
{
glyphname = s;
lastChange = "2023-10-27 11:47:12 +0000";
layers = (
{
anchors = (
{
name = bottom;
pos = (216,0);
},
{
name = top;
pos = (216,505);
}
);
background = {
shapes = (
{
closed = 1;
nodes = (
(99,150,l),
(90,153,o),
(79,155,o),
(66,155,cs),
(61,155,o),
(62,155,o),
(56,154,c),
(41,110,o),
(38,73,o),
(38,37,cs),
(38,20,l),
(93,-14,o),
(144,-20,o),
(207,-20,cs),
(305,-20,o),
(397,23,o),
(397,125,cs),
(397,196,o),
(358,236,o),
(252,287,cs),
(150,336,o),
(133,363,o),
(133,402,cs),
(133,457,o),
(183,474,o),
(230,474,cs),
(252,474,o),
(277,470,o),
(294,465,c),
(310,357,l),
(320,353,o),
(330,351,o),
(340,351,cs),
(345,351,o),
(350,352,o),
(355,353,c),
(367,387,o),
(374,430,o),
(374,468,cs),
(374,475,o),
(373,483,o),
(373,490,c),
(333,507,o),
(279,518,o),
(227,518,cs),
(136,518,o),
(50,483,o),
(50,382,cs),
(50,298,o),
(95,257,o),
(172,221,cs),
(277,172,o),
(305,144,o),
(305,102,cs),
(305,48,o),
(254,26,o),
(200,26,cs),
(164,26,o),
(137,30,o),
(109,44,c)
);
}
);
};
layerId = "E67231B9-FA09-451D-8B80-B70CA73DDE32";
shapes = (
{
closed = 1;
nodes = (
(99,150,l),
(90,153,o),
(79,155,o),
(66,155,cs),
(61,155,o),
(62,155,o),
(56,154,c),
(41,110,o),
(38,73,o),
(38,37,cs),
(38,20,l),
(93,-14,o),
(144,-20,o),
(207,-20,cs),
(305,-20,o),
(397,23,o),
(397,125,cs),
(397,196,o),
(358,236,o),
(252,287,cs),
(150,336,o),
(133,363,o),
(133,402,cs),
(133,457,o),
(183,474,o),
(230,474,cs),
(252,474,o),
(277,470,o),
(294,465,c),
(310,357,l),
(320,353,o),
(330,351,o),
(340,351,cs),
(345,351,o),
(350,352,o),
(355,353,c),
(367,387,o),
(374,430,o),
(374,468,cs),
(374,475,o),
(373,483,o),
(373,490,c),
(333,507,o),
(279,518,o),
(227,518,cs),
(136,518,o),
(50,483,o),
(50,382,cs),
(50,298,o),
(95,257,o),
(172,221,cs),
(277,172,o),
(305,144,o),
(305,102,cs),
(305,48,o),
(254,26,o),
(200,26,cs),
(164,26,o),
(137,30,o),
(109,44,c)
);
}
);
width = 432;
}
);
unicode = 115;
},
{
glyphname = germandbls;
kernLeft = _KERN_f_2ND;
lastChange = "2023-10-27 11:47:12 +0000";
layers = (
{
anchors = (
{
name = bottom;
pos = (315,0);
},
{
name = top;
pos = (315,984);
}
);
background = {
shapes = (
{
closed = 1;
nodes = (
(195,560,ls),
(195,648,o),
(213,716,o),
(327,716,cs),
(423,716,o),
(456,659,o),
(468,612,cs),
(481,563,o),
(460,530,o),
(393,507,cs),
(313,480,o),
(286,446,o),
(286,382,cs),
(286,298,o),
(330,257,o),
(407,221,cs),
(512,172,o),
(522,144,o),
(522,102,cs),
(522,48,o),
(479,26,o),
(425,26,cs),
(396,26,o),
(378,30,o),
(357,43,c),
(344,150,l),
(331,155,o),
(312,157,o),
(294,154,c),
(277,104,o),
(275,61,o),
(276,19,c),
(331,-15,o),
(369,-20,o),
(432,-20,cs),
(530,-20,o),
(612,23,o),
(612,125,cs),
(612,196,o),
(593,236,o),
(487,287,cs),
(385,336,o),
(372,366,o),
(372,400,cs),
(372,435,o),
(382,455,o),
(438,474,cs),
(529,505,o),
(548,544,o),
(538,604,cs),
(526,674,o),
(465,765,o),
(325,765,cs),
(170,765,o),
(95,671,o),
(95,535,c),
(40,535,l),
(35,529,o),
(29,505,o),
(29,491,c),
(29,489,o),
(30,487,o),
(30,485,c),
(95,485,l),
(95,50,l),
(72,42,o),
(48,36,o),
(25,30,c),
(23,23,o),
(22,16,o),
(22,9,cs),
(22,5,o),
(22,0,o),
(23,-5,c),
(60,-3,o),
(157,0,o),
(195,0,c)
);
}
);
};
layerId = "E67231B9-FA09-451D-8B80-B70CA73DDE32";
shapes = (
{
closed = 1;
nodes = (
(195,560,ls),
(195,648,o),
(213,716,o),
(327,716,cs),
(423,716,o),
(456,659,o),
(468,612,cs),
(481,563,o),
(460,530,o),
(393,507,cs),
(313,480,o),
(286,446,o),
(286,382,cs),
(286,298,o),
(330,257,o),
(407,221,cs),
(512,172,o),
(522,144,o),
(522,102,cs),
(522,48,o),
(479,26,o),
(425,26,cs),
(396,26,o),
(378,30,o),
(357,43,c),
(344,150,l),
(331,155,o),
(312,157,o),
(294,154,c),
(277,104,o),
(275,61,o),
(276,19,c),
(331,-15,o),
(369,-20,o),
(432,-20,cs),
(530,-20,o),
(612,23,o),
(612,125,cs),
(612,196,o),
(593,236,o),
(487,287,cs),
(385,336,o),
(372,366,o),
(372,400,cs),
(372,435,o),
(382,455,o),
(438,474,cs),
(529,505,o),
(548,544,o),
(538,604,cs),
(526,674,o),
(465,765,o),
(325,765,cs),
(170,765,o),
(95,671,o),
(95,535,c),
(40,535,l),
(35,529,o),
(29,505,o),
(29,491,c),
(29,489,o),
(30,487,o),
(30,485,c),
(95,485,l),
(95,50,l),
(72,42,o),
(48,36,o),
(25,30,c),
(23,23,o),
(22,16,o),
(22,9,cs),
(22,5,o),
(22,0,o),
(23,-5,c),
(60,-3,o),
(157,0,o),
(195,0,c)
);
}
);
width = 630;
}
);
unicode = 223;
},
{
glyphname = t;
lastChange = "2023-10-27 11:47:12 +0000";
layers = (
{
anchors = (
{
name = bottom;
pos = (162,0);
},
{
name = center;
pos = (162,253);
},
{
name = top;
pos = (162,505);
},
{
name = topright;
pos = (303,984);
}
);
background = {
shapes = (
{
closed = 1;
nodes = (
(258,-16,o),
(298,7,o),
(313,24,c),
(312,38,o),
(307,48,o),
(298,54,c),
(279,43,o),
(259,34,o),
(238,34,cs),
(200,34,o),
(188,52,o),
(188,144,cs),
(188,438,l),
(293,438,l),
(303,456,o),
(302,475,o),
(293,493,c),
(188,493,l),
(188,605,l),
(135,605,l),
(108,512,o),
(99,483,o),
(15,483,c),
(12,468,o),
(12,453,o),
(20,438,c),
(90,438,l),
(90,119,ls),
(90,14,o),
(138,-16,o),
(203,-16,cs)
);
}
);
};
layerId = "E67231B9-FA09-451D-8B80-B70CA73DDE32";
shapes = (
{
closed = 1;
nodes = (
(258,-16,o),
(298,7,o),
(313,24,c),
(312,38,o),
(307,48,o),
(298,54,c),
(279,43,o),
(259,34,o),
(238,34,cs),
(200,34,o),
(188,52,o),
(188,144,cs),
(188,438,l),
(293,438,l),
(303,456,o),
(302,475,o),
(293,493,c),
(188,493,l),
(188,605,l),
(135,605,l),
(108,512,o),
(99,483,o),
(15,483,c),
(12,468,o),
(12,453,o),
(20,438,c),
(90,438,l),
(90,119,ls),
(90,14,o),
(138,-16,o),
(203,-16,cs)
);
}
);
width = 323;
}
);
unicode = 116;
},
{
glyphname = u;
kernLeft = _KERN_u;
kernRight = _KERN_u;
lastChange = "2023-10-27 11:47:12 +0000";
layers = (
{
anchors = (
{
name = bottom;
pos = (295,0);
},
{
name = ogonek;
pos = (531,10);
},
{
name = top;
pos = (280,504);
},
{
name = topright;
pos = (570,505);
}
);
background = {
anchors = (
{
name = top;
pos = (280,504);
}
);
shapes = (
{
closed = 1;
nodes = (
(503,499,l),
(490,505,o),
(478,509,o),
(465,510,c),
(423,499,o),
(383,490,o),
(335,483,c),
(329,472,o),
(328,461,o),
(330,448,c),
(403,440,l),
(403,118,l),
(372,83,o),
(321,54,o),
(278,54,cs),
(224,54,o),
(184,65,o),
(184,149,cs),
(184,499,l),
(171,505,o),
(159,509,o),
(146,510,c),
(104,499,o),
(64,490,o),
(16,483,c),
(10,472,o),
(9,461,o),
(11,448,c),
(84,440,l),
(84,134,ls),
(84,41,o),
(123,-16,o),
(219,-16,cs),
(287,-16,o),
(340,5,o),
(408,66,c),
(413,66,l),
(430,-8,l),
(446,-12,o),
(466,-14,o),
(486,-14,cs),
(516,-14,o),
(547,-11,o),
(568,-7,c),
(574,6,o),
(575,15,o),
(573,28,c),
(550,33,o),
(526,35,o),
(503,48,c)
);
}
);
};
layerId = "E67231B9-FA09-451D-8B80-B70CA73DDE32";
shapes = (
{
closed = 1;
nodes = (
(503,499,l),
(490,505,o),
(478,509,o),
(465,510,c),
(423,499,o),
(383,490,o),
(335,483,c),
(329,472,o),
(328,461,o),
(330,448,c),
(403,440,l),
(403,118,l),
(372,83,o),
(321,54,o),
(278,54,cs),
(224,54,o),
(184,65,o),
(184,149,cs),
(184,499,l),
(171,505,o),
(159,509,o),
(146,510,c),
(104,499,o),
(64,490,o),
(16,483,c),
(10,472,o),
(9,461,o),
(11,448,c),
(84,440,l),
(84,134,ls),
(84,41,o),
(123,-16,o),
(219,-16,cs),
(287,-16,o),
(340,5,o),
(408,66,c),
(413,66,l),
(430,-8,l),
(446,-12,o),
(466,-14,o),
(486,-14,cs),
(516,-14,o),
(547,-11,o),
(568,-7,c),
(574,6,o),
(575,15,o),
(573,28,c),
(550,33,o),
(526,35,o),
(503,48,c)
);
}
);
width = 590;
}
);
unicode = 117;
},
{
glyphname = uacute;
kernLeft = _KERN_u;
kernRight = _KERN_u;
lastChange = "2023-10-27 11:46:44 +0000";
layers = (
{
associatedMasterId = "E67231B9-FA09-451D-8B80-B70CA73DDE32";
layerId = "DA51D0F6-E92C-4977-9AEE-C0B7DC2D6803";
name = img;
width = 590;
},
{
background = {
anchors = (
{
name = top;
pos = (280,504);
}
);
shapes = (
{
closed = 1;
nodes = (
(503,499,l),
(490,505,o),
(478,509,o),
(465,510,c),
(423,499,o),
(383,490,o),
(335,483,c),
(329,472,o),
(328,461,o),
(330,448,c),
(403,440,l),
(403,118,l),
(372,83,o),
(321,54,o),
(278,54,cs),
(224,54,o),
(184,65,o),
(184,149,cs),
(184,499,l),
(171,505,o),
(159,509,o),
(146,510,c),
(104,499,o),
(64,490,o),
(16,483,c),
(10,472,o),
(9,461,o),
(11,448,c),
(84,440,l),
(84,134,ls),
(84,41,o),
(123,-16,o),
(219,-16,cs),
(287,-16,o),
(340,5,o),
(408,66,c),
(413,66,l),
(430,-8,l),
(446,-12,o),
(466,-14,o),
(486,-14,cs),
(516,-14,o),
(547,-11,o),
(568,-7,c),
(574,6,o),
(575,15,o),
(573,28,c),
(550,33,o),
(526,35,o),
(503,48,c)
);
},
{
closed = 1;
nodes = (
(256,582,l),
(266,572,o),
(280,567,o),
(292,565,c),
(336,607,o),
(375,660,o),
(416,716,c),
(396,739,o),
(366,751,o),
(336,756,c)
);
}
);
};
layerId = "E67231B9-FA09-451D-8B80-B70CA73DDE32";
shapes = (
{
ref = u;
},
{
pos = (212,-1);
ref = acutecomb;
}
);
width = 590;
}
);
unicode = 250;
},
{
glyphname = ucircumflex;
kernLeft = _KERN_u;
kernRight = _KERN_u;
lastChange = "2023-10-27 11:43:03 +0000";
layers = (
{
associatedMasterId = "E67231B9-FA09-451D-8B80-B70CA73DDE32";
layerId = "DA51D0F6-E92C-4977-9AEE-C0B7DC2D6803";
name = img;
width = 590;
},
{
background = {
anchors = (
{
name = top;
pos = (280,504);
}
);
shapes = (
{
closed = 1;
nodes = (
(503,499,l),
(490,505,o),
(478,509,o),
(465,510,c),
(423,499,o),
(383,490,o),
(335,483,c),
(329,472,o),
(328,461,o),
(330,448,c),
(403,440,l),
(403,118,l),
(372,83,o),
(321,54,o),
(278,54,cs),
(224,54,o),
(184,65,o),
(184,149,cs),
(184,499,l),
(171,505,o),
(159,509,o),
(146,510,c),
(104,499,o),
(64,490,o),
(16,483,c),
(10,472,o),
(9,461,o),
(11,448,c),
(84,440,l),
(84,134,ls),
(84,41,o),
(123,-16,o),
(219,-16,cs),
(287,-16,o),
(340,5,o),
(408,66,c),
(413,66,l),
(430,-8,l),
(446,-12,o),
(466,-14,o),
(486,-14,cs),
(516,-14,o),
(547,-11,o),
(568,-7,c),
(574,6,o),
(575,15,o),
(573,28,c),
(550,33,o),
(526,35,o),
(503,48,c)
);
},
{
closed = 1;
nodes = (
(385,639,o),
(353,692,o),
(324,750,c),
(304,754,o),
(283,754,o),
(263,752,c),
(232,687,o),
(192,629,o),
(160,578,c),
(174,564,o),
(192,558,o),
(209,555,c),
(237,590,o),
(264,638,o),
(288,683,c),
(324,606,o),
(336,587,o),
(354,558,c),
(379,561,o),
(400,570,o),
(417,587,c)
);
}
);
};
layerId = "E67231B9-FA09-451D-8B80-B70CA73DDE32";
shapes = (
{
ref = u;
},
{
pos = (152,-1);
ref = circumflexcomb;
}
);
width = 590;
}
);
unicode = 251;
},
{
glyphname = udieresis;
kernLeft = _KERN_u;
kernRight = _KERN_u;
lastChange = "2023-10-27 11:43:03 +0000";
layers = (
{
associatedMasterId = "E67231B9-FA09-451D-8B80-B70CA73DDE32";
layerId = "DA51D0F6-E92C-4977-9AEE-C0B7DC2D6803";
name = img;
width = 590;
},
{
background = {
anchors = (
{
name = top;
pos = (280,504);
}
);
shapes = (
{
closed = 1;
nodes = (
(503,499,l),
(490,505,o),
(478,509,o),
(465,510,c),
(423,499,o),
(383,490,o),
(335,483,c),
(329,472,o),
(328,461,o),
(330,448,c),
(403,440,l),
(403,118,l),
(372,83,o),
(321,54,o),
(278,54,cs),
(224,54,o),
(184,65,o),
(184,149,cs),
(184,499,l),
(171,505,o),
(159,509,o),
(146,510,c),
(104,499,o),
(64,490,o),
(16,483,c),
(10,472,o),
(9,461,o),
(11,448,c),
(84,440,l),
(84,134,ls),
(84,41,o),
(123,-16,o),
(219,-16,cs),
(287,-16,o),
(340,5,o),
(408,66,c),
(413,66,l),
(430,-8,l),
(446,-12,o),
(466,-14,o),
(486,-14,cs),
(516,-14,o),
(547,-11,o),
(568,-7,c),
(574,6,o),
(575,15,o),
(573,28,c),
(550,33,o),
(526,35,o),
(503,48,c)
);
},
{
closed = 1;
nodes = (
(134,626,o),
(158,587,o),
(192,587,cs),
(222,587,o),
(257,619,o),
(257,644,cs),
(257,668,o),
(234,707,o),
(199,707,cs),
(170,707,o),
(134,675,o),
(134,651,cs)
);
},
{
closed = 1;
nodes = (
(303,626,o),
(327,587,o),
(361,587,cs),
(391,587,o),
(426,619,o),
(426,644,cs),
(426,668,o),
(403,707,o),
(368,707,cs),
(339,707,o),
(303,675,o),
(303,651,cs)
);
}
);
};
layerId = "E67231B9-FA09-451D-8B80-B70CA73DDE32";
shapes = (
{
ref = u;
},
{
pos = (123,-1);
ref = dieresiscomb;
}
);
width = 590;
}
);
unicode = 252;
},
{
glyphname = ugrave;
kernLeft = _KERN_u;
kernRight = _KERN_u;
lastChange = "2023-10-27 11:43:03 +0000";
layers = (
{
associatedMasterId = "E67231B9-FA09-451D-8B80-B70CA73DDE32";
layerId = "DA51D0F6-E92C-4977-9AEE-C0B7DC2D6803";
name = img;
width = 590;
},
{
background = {
anchors = (
{
name = top;
pos = (280,504);
}
);
shapes = (
{
closed = 1;
nodes = (
(503,499,l),
(490,505,o),
(478,509,o),
(465,510,c),
(423,499,o),
(383,490,o),
(335,483,c),
(329,472,o),
(328,461,o),
(330,448,c),
(403,440,l),
(403,118,l),
(372,83,o),
(321,54,o),
(278,54,cs),
(224,54,o),
(184,65,o),
(184,149,cs),
(184,499,l),
(171,505,o),
(159,509,o),
(146,510,c),
(104,499,o),
(64,490,o),
(16,483,c),
(10,472,o),
(9,461,o),
(11,448,c),
(84,440,l),
(84,134,ls),
(84,41,o),
(123,-16,o),
(219,-16,cs),
(287,-16,o),
(340,5,o),
(408,66,c),
(413,66,l),
(430,-8,l),
(446,-12,o),
(466,-14,o),
(486,-14,cs),
(516,-14,o),
(547,-11,o),
(568,-7,c),
(574,6,o),
(575,15,o),
(573,28,c),
(550,33,o),
(526,35,o),
(503,48,c)
);
},
{
closed = 1;
nodes = (
(225,756,l),
(195,751,o),
(165,739,o),
(145,716,c),
(186,660,o),
(225,607,o),
(269,565,c),
(281,567,o),
(295,572,o),
(305,582,c)
);
}
);
};
layerId = "E67231B9-FA09-451D-8B80-B70CA73DDE32";
shapes = (
{
ref = u;
},
{
pos = (171,-1);
ref = gravecomb;
}
);
width = 590;
}
);
unicode = 249;
},
{
glyphname = v;
lastChange = "2023-10-27 11:47:12 +0000";
layers = (
{
anchors = (
{
name = bottom;
pos = (283,0);
},
{
name = top;
pos = (283,505);
}
);
background = {
shapes = (
{
closed = 1;
nodes = (
(269,-30,l),
(281,-30,o),
(304,-23,o),
(314,-17,c),
(498,450,l),
(518,461,o),
(543,465,o),
(569,470,c),
(573,482,o),
(573,493,o),
(571,505,c),
(534,503,o),
(505,500,o),
(467,500,cs),
(430,500,o),
(400,503,o),
(364,505,c),
(358,493,o),
(357,482,o),
(359,470,c),
(438,450,l),
(343,207,l),
(329,168,o),
(320,132,o),
(310,94,c),
(307,94,l),
(298,139,o),
(283,184,o),
(265,230,cs),
(179,450,l),
(200,461,o),
(224,465,o),
(248,470,c),
(252,482,o),
(252,493,o),
(250,505,c),
(213,503,o),
(159,500,o),
(121,500,cs),
(84,500,o),
(35,503,o),
(-1,505,c),
(-7,493,o),
(-8,482,o),
(-6,470,c),
(71,450,l)
);
}
);
};
guides = (
{
pos = (0,450);
}
);
layerId = "E67231B9-FA09-451D-8B80-B70CA73DDE32";
shapes = (
{
closed = 1;
nodes = (
(269,-30,l),
(281,-30,o),
(304,-23,o),
(314,-17,c),
(498,450,l),
(518,461,o),
(543,465,o),
(569,470,c),
(573,482,o),
(573,493,o),
(571,505,c),
(534,503,o),
(505,500,o),
(467,500,cs),
(430,500,o),
(400,503,o),
(364,505,c),
(358,493,o),
(357,482,o),
(359,470,c),
(438,450,l),
(343,207,l),
(329,168,o),
(320,132,o),
(310,94,c),
(307,94,l),
(298,139,o),
(283,184,o),
(265,230,cs),
(179,450,l),
(200,461,o),
(224,465,o),
(248,470,c),
(252,482,o),
(252,493,o),
(250,505,c),
(213,503,o),
(159,500,o),
(121,500,cs),
(84,500,o),
(35,503,o),
(-1,505,c),
(-7,493,o),
(-8,482,o),
(-6,470,c),
(71,450,l)
);
}
);
width = 565;
}
);
unicode = 118;
},
{
glyphname = w;
lastChange = "2023-10-27 11:47:12 +0000";
layers = (
{
anchors = (
{
name = bottom;
pos = (416,0);
},
{
name = top;
pos = (416,505);
}
);
background = {
shapes = (
{
closed = 1;
nodes = (
(554,-28,l),
(566,-28,o),
(592,-20,o),
(602,-14,c),
(762,450,l),
(782,461,o),
(807,465,o),
(833,470,c),
(837,482,o),
(837,493,o),
(835,505,c),
(798,503,o),
(767,500,o),
(729,500,cs),
(692,500,o),
(665,503,o),
(629,505,c),
(623,493,o),
(622,482,o),
(624,470,c),
(701,450,l),
(630,224,ls),
(615,178,o),
(601,134,o),
(591,89,c),
(588,89,l),
(576,137,o),
(561,183,o),
(546,232,cs),
(479,450,l),
(496,460,o),
(524,464,o),
(548,470,c),
(552,482,o),
(552,493,o),
(550,505,c),
(513,503,o),
(473,500,o),
(435,500,cs),
(398,500,o),
(352,503,o),
(316,505,c),
(310,493,o),
(309,482,o),
(311,470,c),
(388,450,l),
(402,408,l),
(338,237,ls),
(323,195,o),
(309,145,o),
(297,99,c),
(294,99,l),
(283,144,o),
(268,195,o),
(252,241,cs),
(178,450,l),
(196,459,o),
(223,464,o),
(247,470,c),
(251,482,o),
(251,493,o),
(249,505,c),
(212,503,o),
(161,500,o),
(123,500,cs),
(86,500,o),
(37,503,o),
(1,505,c),
(-5,493,o),
(-6,482,o),
(-4,470,c),
(73,450,l),
(257,-27,l),
(269,-27,o),
(294,-20,o),
(304,-14,c),
(428,333,l)
);
}
);
};
guides = (
{
pos = (0,93);
}
);
layerId = "E67231B9-FA09-451D-8B80-B70CA73DDE32";
shapes = (
{
closed = 1;
nodes = (
(554,-28,l),
(566,-28,o),
(592,-20,o),
(602,-14,c),
(762,450,l),
(782,461,o),
(807,465,o),
(833,470,c),
(837,482,o),
(837,493,o),
(835,505,c),
(798,503,o),
(767,500,o),
(729,500,cs),
(692,500,o),
(665,503,o),
(629,505,c),
(623,493,o),
(622,482,o),
(624,470,c),
(701,450,l),
(630,224,ls),
(615,178,o),
(601,134,o),
(591,89,c),
(588,89,l),
(576,137,o),
(561,183,o),
(546,232,cs),
(479,450,l),
(496,460,o),
(524,464,o),
(548,470,c),
(552,482,o),
(552,493,o),
(550,505,c),
(513,503,o),
(473,500,o),
(435,500,cs),
(398,500,o),
(352,503,o),
(316,505,c),
(310,493,o),
(309,482,o),
(311,470,c),
(388,450,l),
(402,408,l),
(338,237,ls),
(323,195,o),
(309,145,o),
(297,99,c),
(294,99,l),
(283,144,o),
(268,195,o),
(252,241,cs),
(178,450,l),
(196,459,o),
(223,464,o),
(247,470,c),
(251,482,o),
(251,493,o),
(249,505,c),
(212,503,o),
(161,500,o),
(123,500,cs),
(86,500,o),
(37,503,o),
(1,505,c),
(-5,493,o),
(-6,482,o),
(-4,470,c),
(73,450,l),
(257,-27,l),
(269,-27,o),
(294,-20,o),
(304,-14,c),
(428,333,l)
);
}
);
width = 832;
}
);
unicode = 119;
},
{
glyphname = x;
lastChange = "2023-10-27 11:47:12 +0000";
layers = (
{
anchors = (
{
name = bottom;
pos = (269,0);
},
{
name = top;
pos = (269,505);
}
);
background = {
shapes = (
{
closed = 1;
nodes = (
(472,450,l),
(493,460,o),
(518,465,o),
(544,470,c),
(548,482,o),
(548,493,o),
(546,505,c),
(509,503,o),
(479,500,o),
(441,500,cs),
(404,500,o),
(368,503,o),
(332,505,c),
(326,493,o),
(325,482,o),
(327,470,c),
(406,450,l),
(292,308,l),
(194,450,l),
(206,457,o),
(235,466,o),
(261,470,c),
(265,482,o),
(265,493,o),
(263,505,c),
(226,503,o),
(172,500,o),
(134,500,cs),
(97,500,o),
(48,503,o),
(12,505,c),
(6,493,o),
(5,482,o),
(7,470,c),
(84,450,l),
(232,233,l),
(85,50,l),
(66,38,o),
(40,34,o),
(13,30,c),
(9,18,o),
(9,7,o),
(11,-5,c),
(48,-3,o),
(75,0,o),
(113,0,cs),
(150,0,o),
(175,-3,o),
(211,-5,c),
(217,7,o),
(218,18,o),
(216,30,c),
(149,50,l),
(261,190,l),
(360,47,l),
(300,30,l),
(296,18,o),
(296,7,o),
(298,-5,c),
(335,-3,o),
(382,0,o),
(420,0,cs),
(457,0,o),
(496,-3,o),
(532,-5,c),
(538,7,o),
(539,18,o),
(537,30,c),
(515,36,o),
(492,38,o),
(470,50,c),
(321,265,l)
);
}
);
};
layerId = "E67231B9-FA09-451D-8B80-B70CA73DDE32";
shapes = (
{
closed = 1;
nodes = (
(472,450,l),
(493,460,o),
(518,465,o),
(544,470,c),
(548,482,o),
(548,493,o),
(546,505,c),
(509,503,o),
(479,500,o),
(441,500,cs),
(404,500,o),
(368,503,o),
(332,505,c),
(326,493,o),
(325,482,o),
(327,470,c),
(406,450,l),
(292,308,l),
(194,450,l),
(206,457,o),
(235,466,o),
(261,470,c),
(265,482,o),
(265,493,o),
(263,505,c),
(226,503,o),
(172,500,o),
(134,500,cs),
(97,500,o),
(48,503,o),
(12,505,c),
(6,493,o),
(5,482,o),
(7,470,c),
(84,450,l),
(232,233,l),
(85,50,l),
(66,38,o),
(40,34,o),
(13,30,c),
(9,18,o),
(9,7,o),
(11,-5,c),
(48,-3,o),
(75,0,o),
(113,0,cs),
(150,0,o),
(175,-3,o),
(211,-5,c),
(217,7,o),
(218,18,o),
(216,30,c),
(149,50,l),
(261,190,l),
(360,47,l),
(300,30,l),
(296,18,o),
(296,7,o),
(298,-5,c),
(335,-3,o),
(382,0,o),
(420,0,cs),
(457,0,o),
(496,-3,o),
(532,-5,c),
(538,7,o),
(539,18,o),
(537,30,c),
(515,36,o),
(492,38,o),
(470,50,c),
(321,265,l)
);
}
);
width = 538;
}
);
unicode = 120;
},
{
glyphname = y;
kernLeft = _KERN_y;
kernRight = _KERN_y;
lastChange = "2023-10-27 11:47:12 +0000";
layers = (
{
anchors = (
{
name = bottom;
pos = (287,0);
},
{
name = top;
pos = (315,504);
}
);
background = {
anchors = (
{
name = top;
pos = (315,504);
}
);
shapes = (
{
closed = 1;
nodes = (
(183,-270,o),
(255,-179,o),
(307,-47,cs),
(503,450,l),
(522,461,o),
(548,464,o),
(572,470,c),
(576,482,o),
(576,493,o),
(574,505,c),
(537,503,o),
(515,500,o),
(477,500,cs),
(440,500,o),
(415,503,o),
(379,505,c),
(373,493,o),
(372,482,o),
(374,470,c),
(443,450,l),
(358,227,ls),
(332,161,o),
(327,124,o),
(319,94,c),
(316,94,l),
(304,158,o),
(275,224,o),
(265,249,cs),
(182,450,l),
(203,461,o),
(227,464,o),
(251,470,c),
(255,482,o),
(255,493,o),
(253,505,c),
(216,503,o),
(167,500,o),
(129,500,cs),
(92,500,o),
(47,503,o),
(11,505,c),
(5,493,o),
(4,482,o),
(6,470,c),
(83,450,l),
(265,-4,l),
(232,-94,o),
(192,-168,o),
(156,-202,c),
(92,-127,l),
(80,-127,o),
(62,-135,o),
(54,-141,c),
(60,-186,o),
(88,-235,o),
(111,-269,c)
);
}
);
};
guides = (
{
pos = (0,450);
},
{
angle = 71.74;
pos = (348,0);
},
{
angle = 71.74;
pos = (282,0);
}
);
layerId = "E67231B9-FA09-451D-8B80-B70CA73DDE32";
shapes = (
{
closed = 1;
nodes = (
(183,-270,o),
(255,-179,o),
(307,-47,cs),
(503,450,l),
(522,461,o),
(548,464,o),
(572,470,c),
(576,482,o),
(576,493,o),
(574,505,c),
(537,503,o),
(515,500,o),
(477,500,cs),
(440,500,o),
(415,503,o),
(379,505,c),
(373,493,o),
(372,482,o),
(374,470,c),
(443,450,l),
(358,227,ls),
(332,161,o),
(327,124,o),
(319,94,c),
(316,94,l),
(304,158,o),
(275,224,o),
(265,249,cs),
(182,450,l),
(203,461,o),
(227,464,o),
(251,470,c),
(255,482,o),
(255,493,o),
(253,505,c),
(216,503,o),
(167,500,o),
(129,500,cs),
(92,500,o),
(47,503,o),
(11,505,c),
(5,493,o),
(4,482,o),
(6,470,c),
(83,450,l),
(265,-4,l),
(232,-94,o),
(192,-168,o),
(156,-202,c),
(92,-127,l),
(80,-127,o),
(62,-135,o),
(54,-141,c),
(60,-186,o),
(88,-235,o),
(111,-269,c)
);
}
);
width = 573;
}
);
unicode = 121;
},
{
glyphname = yacute;
kernLeft = _KERN_y;
kernRight = _KERN_y;
lastChange = "2023-10-27 11:46:44 +0000";
layers = (
{
associatedMasterId = "E67231B9-FA09-451D-8B80-B70CA73DDE32";
layerId = "DA51D0F6-E92C-4977-9AEE-C0B7DC2D6803";
name = img;
width = 573;
},
{
background = {
anchors = (
{
name = top;
pos = (315,504);
}
);
shapes = (
{
closed = 1;
nodes = (
(183,-270,o),
(255,-179,o),
(307,-47,cs),
(503,450,l),
(522,461,o),
(548,464,o),
(572,470,c),
(576,482,o),
(576,493,o),
(574,505,c),
(537,503,o),
(515,500,o),
(477,500,cs),
(440,500,o),
(415,503,o),
(379,505,c),
(373,493,o),
(372,482,o),
(374,470,c),
(443,450,l),
(358,227,ls),
(332,161,o),
(327,124,o),
(319,94,c),
(316,94,l),
(304,158,o),
(275,224,o),
(265,249,cs),
(182,450,l),
(203,461,o),
(227,464,o),
(251,470,c),
(255,482,o),
(255,493,o),
(253,505,c),
(216,503,o),
(167,500,o),
(129,500,cs),
(92,500,o),
(47,503,o),
(11,505,c),
(5,493,o),
(4,482,o),
(6,470,c),
(83,450,l),
(265,-4,l),
(232,-94,o),
(192,-168,o),
(156,-202,c),
(92,-127,l),
(80,-127,o),
(62,-135,o),
(54,-141,c),
(60,-186,o),
(88,-235,o),
(111,-269,c)
);
},
{
closed = 1;
nodes = (
(290,582,l),
(300,572,o),
(314,567,o),
(326,565,c),
(370,607,o),
(409,660,o),
(450,716,c),
(430,739,o),
(400,751,o),
(370,756,c)
);
}
);
};
layerId = "E67231B9-FA09-451D-8B80-B70CA73DDE32";
shapes = (
{
ref = y;
},
{
pos = (247,-1);
ref = acutecomb;
}
);
width = 573;
}
);
unicode = 253;
},
{
glyphname = ydieresis;
kernLeft = _KERN_y;
kernRight = _KERN_y;
lastChange = "2023-10-27 11:43:03 +0000";
layers = (
{
associatedMasterId = "E67231B9-FA09-451D-8B80-B70CA73DDE32";
layerId = "DA51D0F6-E92C-4977-9AEE-C0B7DC2D6803";
name = img;
width = 573;
},
{
background = {
anchors = (
{
name = top;
pos = (315,504);
}
);
shapes = (
{
closed = 1;
nodes = (
(183,-270,o),
(255,-179,o),
(307,-47,cs),
(503,450,l),
(522,461,o),
(548,464,o),
(572,470,c),
(576,482,o),
(576,493,o),
(574,505,c),
(537,503,o),
(515,500,o),
(477,500,cs),
(440,500,o),
(415,503,o),
(379,505,c),
(373,493,o),
(372,482,o),
(374,470,c),
(443,450,l),
(358,227,ls),
(332,161,o),
(327,124,o),
(319,94,c),
(316,94,l),
(304,158,o),
(275,224,o),
(265,249,cs),
(182,450,l),
(203,461,o),
(227,464,o),
(251,470,c),
(255,482,o),
(255,493,o),
(253,505,c),
(216,503,o),
(167,500,o),
(129,500,cs),
(92,500,o),
(47,503,o),
(11,505,c),
(5,493,o),
(4,482,o),
(6,470,c),
(83,450,l),
(265,-4,l),
(232,-94,o),
(192,-168,o),
(156,-202,c),
(92,-127,l),
(80,-127,o),
(62,-135,o),
(54,-141,c),
(60,-186,o),
(88,-235,o),
(111,-269,c)
);
},
{
closed = 1;
nodes = (
(169,626,o),
(193,587,o),
(227,587,cs),
(257,587,o),
(292,619,o),
(292,644,cs),
(292,668,o),
(269,707,o),
(234,707,cs),
(205,707,o),
(169,675,o),
(169,651,cs)
);
},
{
closed = 1;
nodes = (
(338,626,o),
(362,587,o),
(396,587,cs),
(426,587,o),
(461,619,o),
(461,644,cs),
(461,668,o),
(438,707,o),
(403,707,cs),
(374,707,o),
(338,675,o),
(338,651,cs)
);
}
);
};
layerId = "E67231B9-FA09-451D-8B80-B70CA73DDE32";
shapes = (
{
ref = y;
},
{
pos = (158,-1);
ref = dieresiscomb;
}
);
width = 573;
}
);
unicode = 255;
},
{
glyphname = z;
lastChange = "2023-10-27 11:47:12 +0000";
layers = (
{
anchors = (
{
name = bottom;
pos = (235,0);
},
{
name = center;
pos = (235,253);
},
{
name = top;
pos = (235,505);
}
);
background = {
shapes = (
{
closed = 1;
nodes = (
(137,45,l),
(426,463,l),
(424,475,o),
(420,488,o),
(412,500,c),
(37,500,l),
(39,445,o),
(45,394,o),
(53,347,c),
(63,345,o),
(87,346,o),
(98,351,c),
(116,455,l),
(301,455,l),
(26,34,l),
(28,19,o),
(32,7,o),
(36,0,c),
(430,0,l),
(431,20,o),
(431,41,o),
(431,61,cs),
(431,95,o),
(430,129,o),
(424,163,c),
(414,165,o),
(390,164,o),
(379,159,c),
(351,45,l)
);
}
);
};
layerId = "E67231B9-FA09-451D-8B80-B70CA73DDE32";
shapes = (
{
closed = 1;
nodes = (
(137,45,l),
(426,463,l),
(424,475,o),
(420,488,o),
(412,500,c),
(37,500,l),
(39,445,o),
(45,394,o),
(53,347,c),
(63,345,o),
(87,346,o),
(98,351,c),
(116,455,l),
(301,455,l),
(26,34,l),
(28,19,o),
(32,7,o),
(36,0,c),
(430,0,l),
(431,20,o),
(431,41,o),
(431,61,cs),
(431,95,o),
(430,129,o),
(424,163,c),
(414,165,o),
(390,164,o),
(379,159,c),
(351,45,l)
);
}
);
width = 469;
}
);
unicode = 122;
},
{
glyphname = ordfeminine;
lastChange = "2023-09-29 12:40:24 +0000";
layers = (
{
associatedMasterId = "E67231B9-FA09-451D-8B80-B70CA73DDE32";
layerId = "37E99AEB-8AF4-41FE-81C5-9E9421C04E2B";
name = public.background;
width = 393;
},
{
layerId = "E67231B9-FA09-451D-8B80-B70CA73DDE32";
shapes = (
{
closed = 1;
nodes = (
(113,529,o),
(149,541,o),
(235,541,c),
(235,463,l),
(222,444,o),
(191,425,o),
(168,425,cs),
(138,425,o),
(113,444,o),
(113,478,cs)
);
},
{
closed = 1;
nodes = (
(307,584,l),
(303,683,o),
(286,720,o),
(197,720,cs),
(150,720,o),
(105,714,o),
(63,696,c),
(64,677,o),
(66,632,o),
(75,612,c),
(81,611,o),
(100,611,o),
(107,615,c),
(116,673,l),
(136,679,o),
(156,683,o),
(177,683,cs),
(220,683,o),
(235,670,o),
(235,582,c),
(147,584,o),
(45,556,o),
(45,472,cs),
(45,425,o),
(68,380,o),
(144,380,cs),
(186,380,o),
(217,400,o),
(239,422,c),
(243,422,l),
(254,384,l),
(265,381,o),
(281,380,o),
(297,380,cs),
(316,380,o),
(336,381,o),
(348,383,c),
(352,391,o),
(352,408,o),
(351,416,c),
(336,418,o),
(322,421,o),
(307,428,c)
);
}
);
width = 393;
}
);
unicode = 170;
},
{
glyphname = ordmasculine;
lastChange = "2023-09-29 12:40:24 +0000";
layers = (
{
associatedMasterId = "E67231B9-FA09-451D-8B80-B70CA73DDE32";
layerId = "37E99AEB-8AF4-41FE-81C5-9E9421C04E2B";
name = public.background;
width = 413;
},
{
guides = (
{
pos = (0,378);
}
);
layerId = "E67231B9-FA09-451D-8B80-B70CA73DDE32";
shapes = (
{
closed = 1;
nodes = (
(96,723,o),
(40,635,o),
(40,547,cs),
(40,460,o),
(96,375,o),
(208,375,cs),
(313,375,o),
(373,461,o),
(373,554,cs),
(373,639,o),
(321,723,o),
(212,723,cs)
);
},
{
closed = 1;
nodes = (
(270,686,o),
(305,624,o),
(305,552,cs),
(305,480,o),
(270,413,o),
(208,413,cs),
(142,413,o),
(109,480,o),
(109,552,cs),
(109,624,o),
(142,686,o),
(208,686,cs)
);
}
);
width = 413;
}
);
unicode = 186;
},
{
glyphname = zero;
lastChange = "2023-09-29 12:40:24 +0000";
layers = (
{
guides = (
{
angle = 90;
pos = (305,0);
}
);
layerId = "E67231B9-FA09-451D-8B80-B70CA73DDE32";
shapes = (
{
closed = 1;
nodes = (
(195,25,o),
(158,190,o),
(158,342,cs),
(158,484,o),
(192,673,o),
(305,673,cs),
(418,673,o),
(452,484,o),
(452,342,cs),
(452,190,o),
(415,25,o),
(305,25,cs)
);
},
{
closed = 1;
nodes = (
(438,-15,o),
(558,80,o),
(558,338,cs),
(558,567,o),
(458,713,o),
(305,713,cs),
(152,713,o),
(52,567,o),
(52,338,cs),
(52,80,o),
(172,-15,o),
(305,-15,cs)
);
}
);
width = 610;
}
);
unicode = 48;
},
{
glyphname = one;
lastChange = "2023-09-29 12:40:24 +0000";
layers = (
{
layerId = "E67231B9-FA09-451D-8B80-B70CA73DDE32";
shapes = (
{
closed = 1;
nodes = (
(238,690,l),
(225,696,o),
(211,700,o),
(198,701,c),
(151,683,o),
(97,668,o),
(34,656,c),
(28,645,o),
(27,634,o),
(29,621,c),
(138,611,l),
(138,50,l),
(106,37,o),
(78,35,o),
(49,30,c),
(45,18,o),
(45,7,o),
(47,-5,c),
(84,-3,o),
(151,0,o),
(189,0,cs),
(226,0,o),
(295,-3,o),
(331,-5,c),
(337,7,o),
(338,18,o),
(336,30,c),
(238,50,l)
);
}
);
width = 360;
}
);
unicode = 49;
},
{
glyphname = two;
lastChange = "2023-09-29 12:40:24 +0000";
layers = (
{
layerId = "E67231B9-FA09-451D-8B80-B70CA73DDE32";
shapes = (
{
closed = 1;
nodes = (
(130,75,l),
(127,78,l),
(185,144,o),
(460,381,o),
(460,532,cs),
(460,700,o),
(335,713,o),
(237,713,cs),
(175,713,o),
(99,694,o),
(49,670,c),
(48,610,o),
(59,558,o),
(71,506,c),
(83,502,o),
(105,505,o),
(113,509,c),
(126,640,l),
(154,651,o),
(187,660,o),
(222,660,cs),
(291,660,o),
(350,633,o),
(350,535,cs),
(350,370,o),
(139,173,o),
(39,55,c),
(39,0,l),
(481,0,l),
(481,58,o),
(479,117,o),
(471,175,c),
(458,180,o),
(451,180,o),
(435,178,c),
(413,75,l)
);
}
);
width = 518;
}
);
unicode = 50;
},
{
glyphname = three;
lastChange = "2023-09-29 12:40:24 +0000";
layers = (
{
guides = (
{
angle = 90;
pos = (443,0);
}
);
layerId = "E67231B9-FA09-451D-8B80-B70CA73DDE32";
shapes = (
{
closed = 1;
nodes = (
(459,295,o),
(396,351,o),
(278,368,c),
(278,372,l),
(355,390,o),
(430,454,o),
(430,543,cs),
(430,669,o),
(342,713,o),
(245,713,cs),
(182,713,o),
(116,697,o),
(64,674,c),
(64,618,o),
(74,566,o),
(87,515,c),
(91,514,o),
(94,514,o),
(98,514,cs),
(106,514,o),
(115,516,o),
(123,520,c),
(142,645,l),
(167,656,o),
(195,663,o),
(222,663,cs),
(284,663,o),
(338,628,o),
(338,535,cs),
(338,451,o),
(271,387,o),
(169,383,c),
(169,343,l),
(283,341,o),
(353,291,o),
(353,178,cs),
(353,82,o),
(287,35,o),
(214,35,cs),
(184,35,o),
(153,41,o),
(124,51,c),
(107,180,l),
(99,183,o),
(91,186,o),
(82,186,cs),
(78,186,o),
(75,186,o),
(71,185,c),
(53,130,o),
(48,76,o),
(46,21,c),
(98,-3,o),
(163,-17,o),
(225,-17,cs),
(346,-17,o),
(459,55,o),
(459,180,cs)
);
}
);
width = 512;
}
);
unicode = 51;
},
{
glyphname = four;
lastChange = "2023-09-29 12:40:24 +0000";
layers = (
{
guides = (
{
angle = 81.25;
pos = (458,0);
}
);
layerId = "E67231B9-FA09-451D-8B80-B70CA73DDE32";
shapes = (
{
closed = 1;
nodes = (
(342,598,l),
(344,598,l),
(339,494,l),
(339,272,l),
(116,272,l),
(282,506,l)
);
},
{
closed = 1;
nodes = (
(339,50,l),
(313,40,o),
(287,34,o),
(259,30,c),
(255,18,o),
(255,7,o),
(257,-5,c),
(294,-3,o),
(351,0,o),
(389,0,cs),
(426,0,o),
(475,-3,o),
(511,-5,c),
(517,7,o),
(518,18,o),
(516,30,c),
(434,50,l),
(434,204,l),
(529,204,l),
(541,225,o),
(543,253,o),
(539,272,c),
(434,272,l),
(434,738,l),
(406,736,o),
(386,730,o),
(364,720,c),
(30,239,l),
(29,226,o),
(33,215,o),
(37,204,c),
(339,204,l)
);
}
);
width = 560;
}
);
unicode = 52;
},
{
glyphname = five;
lastChange = "2023-09-29 12:40:24 +0000";
layers = (
{
guides = (
{
angle = 81.25;
pos = (318,0);
}
);
layerId = "E67231B9-FA09-451D-8B80-B70CA73DDE32";
shapes = (
{
closed = 1;
nodes = (
(467,350,o),
(374,429,o),
(242,429,cs),
(207,429,o),
(171,425,o),
(133,416,c),
(137,610,l),
(410,610,l),
(422,632,o),
(426,657,o),
(426,677,cs),
(426,686,o),
(425,694,o),
(424,700,c),
(76,700,l),
(76,355,l),
(114,361,o),
(148,365,o),
(180,365,cs),
(293,365,o),
(365,320,o),
(365,203,cs),
(365,94,o),
(296,36,o),
(215,36,cs),
(186,36,o),
(155,43,o),
(124,58,c),
(105,189,l),
(96,193,o),
(78,195,o),
(70,195,c),
(57,140,o),
(49,85,o),
(46,30,c),
(95,-3,o),
(151,-18,o),
(207,-18,cs),
(341,-18,o),
(467,83,o),
(467,222,cs)
);
}
);
width = 502;
}
);
unicode = 53;
},
{
glyphname = six;
lastChange = "2023-09-29 12:40:24 +0000";
layers = (
{
layerId = "E67231B9-FA09-451D-8B80-B70CA73DDE32";
shapes = (
{
closed = 1;
nodes = (
(443,668,o),
(443,672,o),
(443,677,cs),
(443,692,o),
(440,715,o),
(436,720,c),
(206,687,o),
(42,562,o),
(42,295,cs),
(42,110,o),
(128,-15,o),
(296,-15,cs),
(417,-15,o),
(524,75,o),
(524,217,cs),
(524,385,o),
(422,463,o),
(314,463,cs),
(266,463,o),
(199,445,o),
(148,410,c),
(175,558,o),
(278,643,o),
(442,666,c)
);
},
{
closed = 1;
nodes = (
(140,336,o),
(140,349,o),
(141,362,c),
(186,392,o),
(243,408,o),
(286,408,cs),
(363,408,o),
(424,347,o),
(424,218,cs),
(424,110,o),
(373,28,o),
(295,28,cs),
(210,28,o),
(140,115,o),
(140,323,cs)
);
}
);
width = 546;
}
);
unicode = 54;
},
{
glyphname = seven;
lastChange = "2023-09-29 12:40:24 +0000";
layers = (
{
layerId = "E67231B9-FA09-451D-8B80-B70CA73DDE32";
shapes = (
{
closed = 1;
nodes = (
(383,625,l),
(386,622,l),
(99,0,l),
(189,0,l),
(465,660,l),
(467,673,o),
(469,687,o),
(465,700,c),
(26,700,l),
(28,631,o),
(35,573,o),
(42,520,c),
(54,516,o),
(67,516,o),
(81,520,c),
(99,625,l)
);
}
);
width = 475;
}
);
unicode = 55;
},
{
glyphname = eight;
lastChange = "2023-09-29 12:40:24 +0000";
layers = (
{
layerId = "E67231B9-FA09-451D-8B80-B70CA73DDE32";
shapes = (
{
closed = 1;
nodes = (
(508,280,o),
(429,333,o),
(352,375,c),
(439,431,o),
(470,485,o),
(470,547,cs),
(470,639,o),
(399,712,o),
(278,712,cs),
(149,712,o),
(72,628,o),
(72,534,cs),
(72,459,o),
(119,402,o),
(185,361,c),
(97,322,o),
(38,277,o),
(38,178,cs),
(38,57,o),
(138,-15,o),
(264,-15,cs),
(381,-15,o),
(508,57,o),
(508,188,cs)
);
},
{
closed = 1;
nodes = (
(130,244,o),
(168,299,o),
(229,336,c),
(322,292,o),
(419,242,o),
(419,159,cs),
(419,72,o),
(356,26,o),
(277,26,cs),
(197,26,o),
(130,79,o),
(130,183,cs)
);
},
{
closed = 1;
nodes = (
(382,473,o),
(345,431,o),
(308,401,c),
(228,440,o),
(157,477,o),
(157,560,cs),
(157,629,o),
(199,671,o),
(265,671,cs),
(318,671,o),
(382,639,o),
(382,540,cs)
);
}
);
width = 547;
}
);
unicode = 56;
},
{
glyphname = fraction;
lastChange = "2023-09-29 12:40:24 +0000";
layers = (
{
associatedMasterId = "E67231B9-FA09-451D-8B80-B70CA73DDE32";
layerId = "37E99AEB-8AF4-41FE-81C5-9E9421C04E2B";
name = public.background;
width = 334;
},
{
layerId = "E67231B9-FA09-451D-8B80-B70CA73DDE32";
shapes = (
{
closed = 1;
nodes = (
(345,706,l),
(322,710,o),
(299,707,o),
(278,700,c),
(-12,-7,l),
(12,-11,o),
(39,-6,o),
(55,0,c)
);
}
);
width = 334;
}
);
unicode = 8260;
},
{
glyphname = onesuperior;
lastChange = "2023-09-29 12:40:24 +0000";
layers = (
{
associatedMasterId = "E67231B9-FA09-451D-8B80-B70CA73DDE32";
layerId = "37E99AEB-8AF4-41FE-81C5-9E9421C04E2B";
name = public.background;
width = 325;
},
{
guides = (
{
angle = 90;
pos = (46,0);
}
);
layerId = "E67231B9-FA09-451D-8B80-B70CA73DDE32";
shapes = (
{
closed = 1;
nodes = (
(210,713,l),
(180,720,l),
(143,699,o),
(90,684,o),
(45,675,c),
(44,663,o),
(46,654,o),
(50,646,c),
(130,642,l),
(130,364,l),
(51,344,l),
(47,332,o),
(47,321,o),
(49,309,c),
(86,311,o),
(132,314,o),
(170,314,cs),
(207,314,o),
(252,311,o),
(288,309,c),
(294,321,o),
(295,332,o),
(293,344,c),
(210,364,l)
);
}
);
width = 325;
}
);
unicode = 185;
},
{
glyphname = twosuperior;
lastChange = "2023-09-29 12:40:24 +0000";
layers = (
{
associatedMasterId = "E67231B9-FA09-451D-8B80-B70CA73DDE32";
layerId = "37E99AEB-8AF4-41FE-81C5-9E9421C04E2B";
name = public.background;
width = 389;
},
{
guides = (
{
pos = (0,843);
}
);
layerId = "E67231B9-FA09-451D-8B80-B70CA73DDE32";
shapes = (
{
closed = 1;
nodes = (
(104,377,l),
(104,380,l),
(213,463,o),
(312,527,o),
(312,615,cs),
(312,679,o),
(276,727,o),
(186,727,cs),
(134,727,o),
(93,718,o),
(56,700,c),
(54,663,o),
(59,629,o),
(65,597,c),
(69,596,o),
(75,595,o),
(81,595,cs),
(88,595,o),
(95,596,o),
(99,597,c),
(112,677,l),
(129,686,o),
(156,690,o),
(176,690,cs),
(213,690,o),
(234,661,o),
(234,608,cs),
(234,528,o),
(163,467,o),
(45,377,c),
(45,314,l),
(326,314,l),
(327,329,o),
(328,345,o),
(328,360,cs),
(328,390,o),
(326,419,o),
(321,449,c),
(316,449,o),
(310,450,o),
(305,450,cs),
(300,450,o),
(296,450,o),
(291,449,c),
(275,377,l)
);
}
);
width = 389;
}
);
unicode = 178;
},
{
glyphname = threesuperior;
lastChange = "2023-09-29 12:40:24 +0000";
layers = (
{
associatedMasterId = "E67231B9-FA09-451D-8B80-B70CA73DDE32";
layerId = "37E99AEB-8AF4-41FE-81C5-9E9421C04E2B";
name = public.background;
width = 385;
},
{
guides = (
{
angle = 90;
pos = (55,0);
}
);
layerId = "E67231B9-FA09-451D-8B80-B70CA73DDE32";
shapes = (
{
closed = 1;
nodes = (
(262,369,o),
(235,343,o),
(184,343,cs),
(164,343,o),
(127,347,o),
(110,356,c),
(97,434,l),
(93,435,o),
(86,436,o),
(79,436,cs),
(73,436,o),
(67,435,o),
(63,434,c),
(57,402,o),
(52,368,o),
(54,331,c),
(91,313,o),
(130,304,o),
(182,304,cs),
(272,304,o),
(340,344,o),
(340,422,cs),
(340,493,o),
(293,517,o),
(225,528,c),
(225,530,l),
(283,546,o),
(321,572,o),
(321,631,cs),
(321,695,o),
(275,727,o),
(185,727,cs),
(133,727,o),
(97,718,o),
(60,700,c),
(58,663,o),
(63,629,o),
(69,597,c),
(73,596,o),
(79,595,o),
(85,595,cs),
(92,595,o),
(99,596,o),
(103,597,c),
(116,677,l),
(133,686,o),
(151,690,o),
(171,690,cs),
(213,690,o),
(246,671,o),
(246,618,cs),
(246,571,o),
(210,542,o),
(144,542,c),
(144,501,l),
(227,501,o),
(262,477,o),
(262,420,cs)
);
}
);
width = 385;
}
);
unicode = 179;
},
{
glyphname = foursuperior;
lastChange = "2023-09-29 12:40:24 +0000";
layers = (
{
associatedMasterId = "E67231B9-FA09-451D-8B80-B70CA73DDE32";
layerId = "37E99AEB-8AF4-41FE-81C5-9E9421C04E2B";
name = public.background;
width = 389;
},
{
guides = (
{
angle = 90;
pos = (22,0);
},
{
angle = 90;
pos = (65,0);
}
);
layerId = "E67231B9-FA09-451D-8B80-B70CA73DDE32";
shapes = (
{
closed = 1;
nodes = (
(271,364,l),
(271,419,l),
(329,419,l),
(340,438,o),
(342,451,o),
(338,468,c),
(271,468,l),
(271,715,l),
(254,723,o),
(233,729,o),
(205,729,c),
(19,437,l),
(25,419,l),
(191,419,l),
(191,364,l),
(122,344,l),
(118,332,o),
(118,321,o),
(120,309,c),
(157,311,o),
(193,314,o),
(231,314,cs),
(268,314,o),
(303,311,o),
(339,309,c),
(345,321,o),
(346,332,o),
(344,344,c)
);
},
{
closed = 1;
nodes = (
(91,468,l),
(155,567,l),
(189,630,l),
(191,628,l),
(191,468,l)
);
}
);
width = 389;
}
);
unicode = 8308;
},
